{"glyphs":{"0":{"ha":745,"x_min":68,"x_max":677,"o":"m 373 1017 q 588 927 498 1017 q 677 712 677 838 l 677 304 q 588 90 677 179 q 373 0 498 0 q 157 90 247 0 q 68 304 68 179 l 68 712 q 157 927 68 838 q 373 1017 247 1017 m 509 848 q 373 905 452 905 q 237 848 293 905 q 180 712 180 791 l 180 304 q 237 168 180 225 q 373 111 293 111 q 509 168 452 111 q 566 304 566 225 l 566 712 q 509 848 566 791 z "},"1":{"ha":527,"x_min":16,"x_max":330,"o":"m 218 762 l 123 606 q 88 581 111 586 q 46 587 66 575 q 21 621 26 599 q 28 663 16 644 l 224 987 q 275 1017 240 1017 q 314 1000 298 1017 q 330 961 330 984 l 330 56 q 314 16 330 33 q 275 0 298 0 q 235 16 252 0 q 218 56 218 33 l 218 762 z "},"2":{"ha":745,"x_min":68,"x_max":677,"o":"m 180 734 q 163 695 180 711 q 123 679 147 679 q 84 695 100 679 q 68 734 68 711 q 159 936 68 853 q 373 1017 248 1017 q 587 936 497 1017 q 677 734 677 853 q 589 515 677 595 q 393 411 535 468 q 246 336 286 369 q 180 191 180 281 l 180 111 l 622 111 q 661 95 645 111 q 677 56 677 79 q 661 16 677 33 q 622 0 645 0 l 123 0 q 84 16 100 0 q 68 56 68 33 l 68 191 q 157 410 68 332 q 352 515 210 458 q 499 590 459 557 q 566 734 566 645 q 511 853 566 804 q 373 905 454 905 q 234 853 291 905 q 180 734 180 804 z "},"3":{"ha":745,"x_min":68,"x_max":677,"o":"m 180 734 q 163 695 180 711 q 123 679 147 679 q 84 695 100 679 q 68 734 68 711 q 159 936 68 853 q 373 1017 248 1017 q 587 936 497 1017 q 677 734 677 853 q 587 533 677 616 q 555 508 572 519 q 587 484 572 496 q 677 282 677 400 q 587 81 677 163 q 373 0 497 0 q 159 81 248 0 q 68 282 68 163 q 84 321 68 305 q 123 338 100 338 q 163 321 147 338 q 180 282 180 305 q 234 163 180 213 q 373 111 291 111 q 511 163 454 111 q 566 282 566 213 q 511 401 566 351 q 373 452 454 452 q 333 469 349 452 q 317 508 317 485 q 333 548 317 532 q 373 564 349 564 q 511 616 454 564 q 566 734 566 665 q 511 853 566 804 q 373 905 454 905 q 234 853 291 905 q 180 734 180 804 z "},"4":{"ha":852,"x_min":68,"x_max":785,"o":"m 617 56 q 601 16 617 33 q 561 0 584 0 q 522 16 538 0 q 505 56 505 33 l 505 231 l 127 231 l 127 231 q 97 239 111 231 q 73 275 78 252 q 80 317 68 297 l 512 988 q 561 1017 528 1017 q 601 1000 584 1017 q 617 961 617 984 l 617 342 l 729 342 q 768 326 752 342 q 785 286 785 309 q 768 247 785 263 q 729 231 752 231 l 617 231 l 617 56 m 224 342 l 505 342 l 505 777 l 224 342 z "},"5":{"ha":732,"x_min":68,"x_max":679,"o":"m 572 1017 q 612 1000 595 1017 q 629 961 629 984 q 612 922 629 938 q 572 905 595 905 l 267 905 l 238 584 q 267 596 252 591 q 372 615 318 615 q 589 525 499 615 q 679 307 679 435 q 589 90 679 180 q 372 0 499 0 q 183 64 267 0 q 73 231 100 129 q 79 273 68 254 q 114 299 92 293 q 156 293 136 304 q 182 258 176 281 q 252 153 199 193 q 372 111 304 111 q 510 169 452 111 q 567 307 567 226 q 510 446 567 389 q 372 503 452 503 q 305 492 336 503 q 246 458 273 479 q 230 443 239 452 q 214 425 223 435 q 166 405 195 402 q 128 425 143 407 q 115 465 114 442 l 160 961 q 176 1000 160 984 q 216 1017 193 1017 l 572 1017 z "},"6":{"ha":745,"x_min":68,"x_max":677,"o":"m 373 610 q 588 520 499 610 q 677 304 677 431 q 588 89 677 178 q 373 0 499 0 q 157 89 246 0 q 68 304 68 178 l 68 712 q 157 927 68 838 q 373 1017 247 1017 q 588 927 498 1017 q 677 712 677 838 q 661 673 677 689 q 622 656 645 656 q 582 673 599 656 q 566 712 566 689 q 509 848 566 791 q 373 905 452 905 q 237 848 293 905 q 180 712 180 791 l 180 541 q 373 610 264 610 m 509 441 q 373 498 453 498 q 236 441 293 498 q 180 304 180 385 q 236 168 180 224 q 373 111 293 111 q 509 168 453 111 q 566 304 566 224 q 509 441 566 385 z "},"7":{"ha":631,"x_min":14,"x_max":617,"o":"m 293 37 q 264 5 286 15 q 222 2 243 -5 q 190 31 200 10 q 188 73 180 52 l 479 905 l 69 905 q 30 922 46 905 q 14 961 14 938 q 30 1000 14 984 q 69 1017 46 1017 l 555 1017 q 576 1013 566 1017 q 608 985 597 1005 q 610 942 617 964 l 293 37 z "},"8":{"ha":700,"x_min":68,"x_max":632,"o":"m 519 508 q 549 481 535 496 q 632 282 632 399 q 549 82 632 165 q 350 0 467 0 q 151 82 233 0 q 68 282 68 165 q 151 481 68 399 q 182 508 165 496 q 151 535 165 521 q 68 734 68 618 q 151 935 68 852 q 350 1017 233 1017 q 549 935 467 1017 q 632 734 632 852 q 549 535 632 618 q 519 508 535 521 m 471 402 q 350 452 420 452 q 229 402 279 452 q 180 282 180 353 q 229 161 180 212 q 350 111 279 111 q 471 161 420 111 q 521 282 521 212 q 471 402 521 353 m 471 855 q 350 905 420 905 q 229 855 279 905 q 180 734 180 805 q 229 614 180 664 q 350 564 279 564 q 471 614 420 564 q 521 734 521 664 q 471 855 521 805 z "},"9":{"ha":745,"x_min":68,"x_max":677,"o":"m 373 407 q 157 496 246 407 q 68 712 68 586 q 157 928 68 838 q 373 1017 246 1017 q 588 928 499 1017 q 677 712 677 838 l 677 304 q 588 90 677 179 q 373 0 498 0 q 157 90 247 0 q 68 304 68 179 q 84 344 68 328 q 123 361 100 361 q 163 344 147 361 q 180 304 180 328 q 237 168 180 225 q 373 111 293 111 q 509 168 452 111 q 566 304 566 225 l 566 476 q 373 407 481 407 m 236 576 q 373 519 293 519 q 509 576 453 519 q 566 712 566 632 q 509 848 566 792 q 373 905 453 905 q 236 848 293 905 q 180 712 180 792 q 236 576 180 632 z "},"\u0000":{"ha":136,"x_min":0,"x_max":0,"o":""}," ":{"ha":344,"x_min":0,"x_max":0,"o":""},"!":{"ha":248,"x_min":62,"x_max":186,"o":"m 68 960 q 84 1000 68 983 q 123 1017 100 1017 q 163 1000 147 1017 q 180 960 180 983 l 180 300 q 163 261 180 277 q 123 245 147 245 q 84 261 100 245 q 68 300 68 277 l 68 960 m 124 123 q 168 105 150 123 q 186 62 186 87 q 168 18 186 36 q 124 0 150 0 q 80 18 98 0 q 62 62 62 36 q 80 105 62 87 q 124 123 98 123 z "},"\"":{"ha":443,"x_min":68,"x_max":375,"o":"m 68 960 q 84 1000 68 983 q 123 1017 100 1017 q 163 1000 147 1017 q 180 960 180 983 l 180 695 q 163 656 180 672 q 123 639 147 639 q 84 656 100 639 q 68 695 68 672 l 68 960 m 263 960 q 279 1000 263 983 q 319 1016 296 1016 q 359 1000 342 1016 q 375 960 375 983 l 375 695 q 359 655 375 671 q 319 639 342 639 q 279 655 296 639 q 263 695 263 671 l 263 960 z "},"#":{"ha":1053,"x_min":68,"x_max":985,"o":"m 724 870 q 750 903 730 892 q 793 908 770 915 q 826 882 814 902 q 831 840 837 861 l 789 694 l 930 694 q 969 677 953 694 q 985 638 985 661 q 969 598 985 614 q 930 582 953 582 l 756 582 l 705 408 l 897 408 q 937 391 920 408 q 953 351 953 375 q 937 312 953 328 q 897 296 920 296 l 673 296 l 622 119 q 595 86 615 97 q 553 81 575 75 q 519 108 531 87 q 515 150 509 128 l 557 296 l 380 296 l 330 119 q 302 86 323 97 q 260 81 283 75 q 227 108 238 87 q 222 150 216 128 l 264 296 l 123 296 q 84 312 100 296 q 68 351 68 328 q 84 391 68 375 q 123 408 100 408 l 297 408 l 348 582 l 156 582 q 117 598 133 582 q 100 638 100 614 q 117 677 100 661 q 156 694 133 694 l 380 694 l 431 870 q 458 903 437 892 q 500 908 478 915 q 534 882 522 902 q 538 840 545 861 l 496 694 l 673 694 l 724 870 m 589 408 l 640 582 l 464 582 l 413 408 l 589 408 z "},"$":{"ha":717,"x_min":68,"x_max":649,"o":"m 302 1102 q 319 1141 302 1125 q 359 1158 335 1158 q 398 1141 382 1158 q 414 1102 414 1125 l 414 1004 q 548 931 492 987 q 627 741 627 852 q 610 702 627 718 q 570 686 594 686 q 531 702 547 686 q 515 741 515 718 q 469 852 515 806 q 414 888 446 876 l 414 580 q 454 569 435 576 q 595 463 542 538 q 649 295 649 387 q 564 90 649 174 q 414 9 501 26 l 414 -80 q 398 -119 414 -103 q 359 -136 382 -136 q 319 -119 335 -136 q 302 -80 302 -103 l 302 9 q 153 90 216 26 q 68 295 68 174 q 84 334 68 318 q 123 351 100 351 q 163 334 147 351 q 180 295 180 318 q 232 168 180 221 q 302 125 262 138 l 302 480 q 220 513 260 488 q 125 610 159 549 q 90 741 90 671 q 169 931 90 852 q 302 1004 225 987 l 302 1102 m 414 125 q 485 168 455 138 q 537 295 537 221 q 505 398 537 352 q 418 464 471 445 q 414 465 416 465 l 414 125 m 302 888 q 248 852 271 876 q 202 741 202 806 q 222 665 202 701 q 277 608 242 629 q 302 595 290 600 l 302 888 z "},"%":{"ha":1060,"x_min":68,"x_max":992,"o":"m 743 990 q 777 1016 754 1010 q 819 1010 799 1022 q 844 977 839 999 q 839 935 850 955 l 317 29 q 284 3 306 9 q 241 9 262 -3 q 216 43 222 20 q 221 85 210 64 l 743 990 m 771 444 q 615 378 680 444 q 550 222 550 314 q 615 66 550 131 q 771 1 680 1 q 928 66 863 1 q 992 222 992 131 q 928 378 992 314 q 771 444 863 444 m 848 300 q 881 222 881 267 q 848 145 881 177 q 771 113 817 113 q 694 145 726 113 q 662 222 662 177 q 694 300 662 267 q 771 332 726 332 q 848 300 817 332 m 289 1018 q 133 954 197 1018 q 68 797 68 888 q 133 641 68 705 q 289 576 197 576 q 446 641 380 576 q 510 797 510 705 q 446 954 510 888 q 289 1018 380 1018 m 366 874 q 398 797 398 842 q 366 720 398 751 q 289 688 334 688 q 212 720 243 688 q 180 797 180 751 q 212 874 180 842 q 289 907 243 907 q 366 874 334 907 z "},"&":{"ha":789,"x_min":68,"x_max":747,"o":"m 532 427 q 537 385 544 407 q 511 351 531 362 q 468 347 490 340 q 435 373 446 353 q 415 468 408 422 q 472 548 423 521 q 570 574 507 568 q 582 574 578 574 l 583 575 l 584 575 q 619 584 608 578 l 621 585 q 626 589 626 588 q 619 610 627 594 q 615 618 616 614 q 615 656 608 637 q 641 686 623 676 q 711 672 682 709 q 717 663 714 668 q 734 559 747 608 q 680 491 722 516 q 699 452 691 472 q 724 328 724 393 q 628 96 724 192 q 396 0 532 0 q 164 96 260 0 q 68 328 68 192 q 164 560 68 464 q 231 612 194 590 l 229 613 q 161 779 161 682 q 229 945 161 877 q 396 1015 298 1015 q 562 945 493 1015 q 631 779 631 877 q 614 740 631 756 q 575 724 598 724 q 536 740 552 724 q 519 779 519 756 q 483 867 519 831 q 396 903 447 903 q 309 867 345 903 q 273 779 273 831 q 309 692 273 728 q 396 656 345 656 q 435 640 419 656 q 452 600 452 623 q 435 561 452 577 q 396 544 419 544 q 243 481 307 544 q 180 328 180 418 q 243 175 180 239 q 396 112 307 112 q 549 175 486 112 q 612 328 612 239 q 596 410 612 372 q 566 461 585 437 q 526 451 539 458 q 525 451 525 450 q 532 427 524 443 z "},"'":{"ha":248,"x_min":68,"x_max":180,"o":"m 68 960 q 84 1000 68 983 q 123 1017 100 1017 q 163 1000 147 1017 q 180 960 180 983 l 180 695 q 163 656 180 672 q 123 639 147 639 q 84 656 100 639 q 68 695 68 672 l 68 960 z "},"(":{"ha":496,"x_min":68,"x_max":429,"o":"m 373 -80 q 412 -96 396 -80 q 429 -136 429 -113 q 412 -176 429 -159 q 373 -192 396 -192 q 157 -102 247 -192 q 68 113 68 -13 l 68 712 q 157 927 68 838 q 373 1017 247 1017 q 412 1000 396 1017 q 429 961 429 984 q 412 922 429 938 q 373 905 396 905 q 237 848 293 905 q 180 712 180 791 l 180 113 q 237 -24 180 33 q 373 -80 293 -80 z "},")":{"ha":496,"x_min":68,"x_max":429,"o":"m 123 905 q 84 922 100 905 q 68 961 68 938 q 84 1000 68 984 q 123 1017 100 1017 q 339 927 250 1017 q 429 712 429 838 l 429 113 q 339 -102 429 -13 q 123 -192 250 -192 q 84 -176 100 -192 q 68 -136 68 -159 q 84 -96 68 -113 q 123 -80 100 -80 q 260 -24 203 -80 q 317 113 317 33 l 317 712 q 260 848 317 791 q 123 905 203 905 z "},"*":{"ha":732,"x_min":68,"x_max":664,"o":"m 310 961 q 326 1000 310 984 q 366 1017 343 1017 q 406 1000 389 1017 q 422 961 422 984 l 422 787 l 587 841 q 629 838 609 848 q 657 805 650 827 q 654 763 664 783 q 621 735 643 742 l 456 682 l 558 541 q 568 499 572 522 q 546 463 565 477 q 505 453 527 450 q 468 475 481 457 l 366 616 l 264 475 q 228 453 250 457 q 186 463 205 450 q 164 499 168 477 q 174 541 160 522 l 276 682 l 111 735 q 78 763 89 742 q 75 805 68 783 q 102 838 82 827 q 145 841 123 848 l 310 787 l 310 961 z "},"+":{"ha":837,"x_min":68,"x_max":769,"o":"m 123 430 q 84 447 100 430 q 68 486 68 463 q 84 526 68 509 q 123 542 100 542 l 363 542 l 363 781 q 379 821 363 804 q 418 837 395 837 q 458 821 441 837 q 475 781 475 804 l 475 542 l 713 542 q 753 526 736 542 q 769 486 769 509 q 753 447 769 463 q 713 430 736 430 l 475 430 l 475 191 q 458 152 475 168 q 418 136 441 136 q 379 152 395 136 q 363 191 363 168 l 363 430 l 123 430 z "},",":{"ha":260,"x_min":68,"x_max":192,"o":"m 115 1 q 86 18 99 5 q 68 62 68 36 q 86 105 68 87 q 130 123 104 123 q 174 105 156 123 q 192 62 192 87 q 189 43 192 52 l 132 -132 q 118 -148 129 -142 q 96 -150 108 -153 q 80 -136 85 -146 q 78 -113 75 -125 l 115 1 z "},"-":{"ha":564,"x_min":68,"x_max":496,"o":"m 123 339 q 84 356 100 339 q 68 395 68 372 q 84 435 68 418 q 123 451 100 451 l 439 451 q 479 435 463 451 q 496 395 496 418 q 479 356 496 372 q 439 339 463 339 l 123 339 z "},".":{"ha":1049,"x_min":68,"x_max":973,"o":"m 68 -191 l 68 968 l 973 968 l 973 -191 l 68 -191 m 92 -164 l 949 -164 l 949 948 l 92 948 l 92 -164 m 492 319 l 494 319 l 501 319 l 501 307 q 503 221 503 259 l 498 220 l 494 220 q 492 313 492 268 l 492 315 l 492 319 m 830 319 l 831 319 l 840 319 q 840 310 840 313 q 842 221 840 273 l 834 220 l 831 220 q 829 307 830 259 q 830 319 830 315 m 536 316 l 538 316 q 543 308 538 315 q 541 288 541 296 l 541 275 q 551 236 541 245 l 551 236 q 575 315 566 236 l 576 315 q 585 313 585 313 q 581 254 581 273 q 589 233 581 233 q 591 220 591 222 l 585 220 q 572 241 576 220 l 571 241 q 553 222 564 222 l 549 222 q 531 264 536 222 q 530 279 530 267 l 530 286 q 536 316 530 303 m 742 316 l 746 316 q 765 297 754 316 q 773 267 773 282 l 773 261 q 746 222 773 236 q 736 220 741 220 l 732 220 q 708 249 711 220 l 708 255 q 735 315 708 289 q 742 316 741 316 m 169 313 l 175 313 q 194 286 194 310 q 172 253 194 263 q 153 248 163 250 l 153 223 l 153 223 q 143 225 149 223 l 143 248 l 140 248 l 136 249 q 140 262 136 256 l 143 262 l 143 262 q 139 290 143 290 q 135 297 135 294 q 169 313 147 313 m 718 255 l 718 250 q 735 233 718 235 q 760 252 750 233 q 764 264 764 257 l 764 266 q 746 302 764 284 q 744 303 744 302 q 720 269 732 303 q 718 255 718 262 m 152 295 q 153 263 153 271 q 153 262 153 263 q 178 273 173 266 q 184 286 184 280 q 174 300 184 298 l 170 300 q 152 295 152 298 m 274 297 q 293 264 287 297 q 283 261 292 264 q 274 283 279 283 q 260 233 262 277 q 261 222 261 223 q 251 221 254 221 q 242 280 242 268 q 252 281 250 281 l 252 281 q 254 268 252 278 l 255 268 q 274 297 262 297 m 364 293 q 387 271 378 293 q 388 260 388 265 l 388 258 q 364 222 388 233 q 358 221 361 221 q 340 247 340 224 q 357 291 340 281 q 364 293 358 292 m 416 293 q 441 233 429 293 q 441 228 441 233 q 433 223 436 223 q 418 277 423 265 q 406 230 412 269 q 402 223 405 230 l 397 223 q 391 262 393 223 q 390 277 390 271 q 399 279 395 279 q 401 265 401 267 l 402 265 q 416 293 407 293 m 804 293 q 827 228 814 293 q 819 223 821 223 q 802 277 808 268 q 789 227 798 269 q 787 223 787 223 l 783 223 q 776 277 778 223 q 786 279 780 279 q 787 264 787 266 l 787 264 q 804 293 792 293 m 320 292 q 332 280 332 288 l 332 279 q 326 274 332 278 l 325 274 q 316 279 322 279 q 305 271 307 279 q 325 267 305 268 q 338 244 338 260 q 325 221 338 227 l 319 220 l 316 220 q 293 235 300 220 l 293 236 q 299 243 294 238 l 300 243 q 319 233 308 233 q 328 244 328 236 q 314 254 326 254 q 295 269 295 254 l 295 271 q 320 292 295 292 m 618 292 q 632 279 627 292 l 632 279 q 623 274 625 274 q 615 279 623 278 q 604 272 607 279 l 604 271 q 623 267 604 268 q 636 243 636 261 q 620 220 636 225 l 614 220 q 591 235 599 220 l 591 236 q 597 243 596 243 l 598 243 q 616 233 606 233 q 626 244 626 236 q 615 254 626 252 q 595 262 598 254 q 593 271 593 269 q 618 292 593 292 m 847 291 l 847 291 q 857 290 856 290 q 856 272 856 277 l 856 266 q 865 242 857 242 l 865 242 q 878 288 878 251 l 878 288 l 888 288 l 888 286 q 892 226 892 233 q 872 188 892 195 q 869 188 871 188 l 865 188 q 850 201 853 188 q 849 208 849 204 l 849 208 q 851 218 849 218 l 852 218 q 860 214 858 214 l 859 208 q 865 201 859 202 l 867 201 q 882 230 882 201 q 882 244 882 233 l 881 244 q 863 228 876 228 l 863 228 q 846 260 850 228 l 846 271 q 847 291 846 278 m 224 290 q 240 275 240 288 l 240 271 q 214 247 240 258 l 207 247 q 218 236 207 239 q 233 248 226 236 l 235 248 q 241 238 241 240 q 220 223 229 223 l 216 223 q 195 254 198 223 q 217 290 195 281 l 224 290 m 462 290 l 469 290 q 488 260 488 284 q 487 236 487 245 q 488 225 487 236 q 479 220 482 220 l 479 220 l 477 227 q 462 222 469 222 l 457 222 q 442 236 442 224 l 442 241 q 464 265 442 262 q 477 261 471 264 l 477 262 q 466 279 475 279 q 454 272 460 279 l 452 272 q 446 279 450 273 l 446 281 q 462 290 454 290 m 667 290 q 683 275 683 288 q 654 247 683 255 l 650 247 l 650 245 q 661 236 654 236 q 676 248 667 236 l 677 248 q 683 240 677 248 q 669 225 683 234 q 663 223 666 223 l 658 223 q 638 253 642 223 q 659 290 638 280 l 667 290 m 350 248 q 358 235 351 235 l 360 235 q 378 259 376 240 l 378 261 q 364 279 374 279 l 363 279 q 351 257 354 279 q 350 248 350 252 m 207 261 q 229 273 220 261 l 229 275 q 223 276 224 276 q 207 263 212 276 l 207 261 m 650 261 l 652 261 q 673 274 663 261 q 667 276 669 276 l 665 276 q 650 262 654 276 l 650 261 m 452 240 l 452 238 q 459 234 452 236 q 476 245 471 234 q 463 250 471 250 q 452 240 452 248 m 419 172 q 429 149 428 172 l 429 147 l 425 146 l 424 146 q 418 161 422 161 q 413 148 414 161 q 414 145 414 146 q 415 119 414 138 q 421 121 418 121 l 423 121 l 423 111 l 416 109 q 419 62 419 70 l 412 62 q 409 106 409 98 l 408 106 q 401 104 405 104 l 401 116 q 408 117 406 116 q 406 153 406 132 q 418 172 408 172 l 419 172 m 553 172 q 564 147 562 172 l 559 146 l 557 146 l 557 147 q 553 161 557 157 q 547 151 547 157 q 549 119 547 145 q 549 119 549 119 q 556 121 553 121 l 557 121 l 557 115 l 557 111 q 549 109 557 111 l 551 106 q 553 62 551 98 l 546 62 q 543 106 546 66 q 535 104 537 104 l 535 116 l 543 117 q 541 152 541 148 q 553 172 541 172 m 481 161 l 484 161 l 488 161 l 488 155 q 490 65 488 113 l 482 65 q 481 134 481 109 l 481 161 m 498 161 l 499 161 l 505 161 l 505 140 q 507 65 505 119 l 499 65 q 497 157 497 110 l 497 159 q 498 161 497 161 m 359 159 q 366 157 364 157 q 364 129 364 138 l 366 129 l 374 130 l 374 119 q 364 117 373 119 l 367 67 l 366 66 l 360 66 q 357 117 358 85 l 348 117 l 348 127 l 355 128 l 357 128 l 357 140 q 359 159 357 159 m 674 159 q 682 157 676 159 q 680 138 680 149 l 680 129 l 682 129 l 690 130 l 690 119 l 688 119 l 680 117 l 684 67 l 680 66 l 676 66 q 674 117 674 108 l 664 117 l 665 122 l 665 127 l 672 128 l 673 128 l 673 129 q 674 159 673 143 m 773 159 q 781 157 775 159 q 780 134 780 145 l 780 129 l 781 129 l 789 130 l 789 125 l 789 119 q 780 117 789 119 l 780 113 q 783 67 780 103 l 781 66 l 775 66 l 772 117 l 764 117 l 764 127 l 771 128 l 772 128 l 773 159 m 274 157 l 281 157 q 296 141 290 157 q 292 135 292 137 l 290 135 q 276 145 284 145 q 252 127 264 145 q 246 104 246 115 l 246 101 q 262 77 246 81 q 268 77 264 77 q 289 90 289 79 l 289 97 q 281 99 286 99 l 274 99 l 274 111 q 296 104 293 111 q 298 98 298 100 q 296 79 296 81 q 299 61 296 71 q 294 58 298 61 l 293 58 q 289 73 290 58 q 269 64 285 67 l 268 64 q 239 99 242 64 l 239 102 q 269 155 239 141 l 274 157 m 587 135 q 610 109 603 135 l 610 100 q 587 66 610 77 l 583 65 q 566 79 572 65 q 565 90 565 86 l 565 93 q 578 132 565 121 q 587 135 583 135 m 640 135 q 663 71 650 135 l 662 71 q 656 68 659 68 q 640 122 646 114 q 624 68 635 117 l 623 68 l 620 68 q 614 119 616 68 l 619 121 l 621 121 q 623 98 623 110 l 623 98 q 640 135 629 135 m 330 132 q 344 119 344 130 q 345 117 345 119 q 321 93 345 102 q 311 91 317 91 l 311 90 q 322 79 311 83 l 323 79 q 338 90 330 79 l 340 90 q 345 83 340 88 l 345 83 q 325 68 335 68 l 321 68 q 302 90 308 68 l 302 100 q 320 131 302 122 q 330 132 323 132 m 734 132 l 742 132 q 758 113 753 132 q 760 101 760 102 q 758 83 760 97 q 760 68 760 81 l 755 65 l 753 65 l 751 73 q 734 66 745 66 l 732 66 q 718 79 718 68 l 718 85 q 738 106 720 106 q 752 101 746 106 l 752 103 q 740 123 752 120 l 738 123 q 726 117 734 123 l 726 117 q 722 122 725 117 l 722 123 q 734 132 728 132 m 430 131 q 437 129 431 131 q 447 79 437 79 q 466 123 460 87 q 467 131 467 127 l 467 131 q 474 129 469 131 q 472 98 472 113 l 472 90 q 475 77 472 84 q 472 70 472 73 l 471 70 q 465 87 466 73 l 464 87 q 451 68 461 77 l 445 68 q 431 119 431 68 l 431 125 l 430 131 m 572 93 q 582 77 573 77 l 583 77 q 601 94 593 77 q 603 102 603 100 q 588 123 599 123 l 585 123 q 572 93 575 123 m 310 102 q 336 117 326 102 q 329 121 335 121 l 327 121 q 310 102 314 121 m 724 83 q 732 77 726 77 l 736 77 q 751 90 745 77 q 739 95 745 95 l 738 95 q 724 83 724 93 m 344 31 q 355 28 345 31 q 352 -35 353 2 q 359 -81 352 -58 q 351 -88 351 -88 l 350 -88 q 346 -79 348 -88 l 345 -79 q 330 -90 345 -85 q 298 -62 308 -90 q 296 -43 296 -54 q 319 -3 296 -10 l 322 -3 q 342 -14 332 -3 l 342 -14 q 344 31 342 -8 m 214 26 l 224 23 q 223 -1 223 7 l 223 -11 q 233 -9 232 -9 q 235 -25 235 -22 l 233 -25 q 223 -26 227 -26 q 227 -87 225 -68 q 215 -89 218 -89 l 215 -88 q 212 -28 212 -47 l 210 -27 l 201 -27 l 201 -11 l 211 -11 l 211 -5 q 214 26 211 26 m 457 26 l 458 26 l 468 23 q 467 -7 467 4 l 467 -11 q 477 -9 476 -9 l 478 -18 l 478 -25 q 467 -26 467 -26 q 471 -87 467 -42 q 459 -89 462 -89 l 459 -88 q 456 -27 456 -37 l 444 -27 l 444 -11 l 455 -11 q 457 26 455 12 m 370 24 q 378 15 376 24 l 378 14 q 372 3 378 7 l 368 3 q 362 15 362 7 q 370 24 363 24 m 412 -3 q 439 -29 429 -3 q 441 -41 441 -37 l 441 -47 q 414 -87 441 -74 q 406 -89 412 -89 q 384 -61 387 -89 l 384 -52 q 404 -5 384 -17 q 412 -3 411 -3 m 543 -3 l 546 -3 q 553 -5 553 -3 l 553 -7 q 566 -3 559 -3 q 589 -33 583 -3 q 589 -43 589 -41 q 568 -86 587 -78 l 563 -87 l 556 -87 l 557 -92 q 557 -119 557 -96 l 546 -119 q 543 -3 543 -30 m 621 -3 q 647 -27 636 -3 q 650 -43 650 -36 q 624 -87 650 -73 q 614 -89 618 -89 q 593 -71 600 -89 q 592 -55 592 -62 q 612 -5 592 -18 q 621 -3 620 -3 m 758 -3 q 784 -27 774 -3 q 787 -40 787 -33 l 787 -45 q 760 -87 787 -75 q 751 -89 758 -89 q 730 -61 732 -89 l 730 -52 q 750 -5 730 -17 q 758 -3 757 -3 m 821 -3 q 840 -43 833 -3 l 840 -43 q 859 -3 846 -3 l 859 -3 q 886 -83 876 -3 l 885 -83 q 876 -87 878 -87 l 876 -87 q 859 -20 863 -20 q 847 -76 852 -35 q 840 -83 845 -83 q 833 -73 835 -83 q 820 -21 824 -21 q 809 -84 809 -60 q 798 -87 802 -87 l 798 -86 l 789 -16 q 801 -12 798 -12 q 804 -33 802 -17 l 805 -33 q 821 -3 811 -3 m 175 -4 q 191 -18 191 -7 l 191 -19 q 183 -25 191 -20 l 181 -25 q 172 -20 181 -20 l 172 -20 q 158 -26 163 -20 l 158 -29 q 179 -33 158 -33 q 197 -59 197 -41 l 197 -62 q 182 -88 197 -81 q 176 -90 179 -90 l 170 -90 q 143 -73 154 -90 q 151 -62 143 -70 l 153 -62 q 173 -75 158 -75 q 185 -61 185 -75 q 171 -49 185 -51 q 149 -41 153 -49 q 146 -33 146 -35 l 146 -27 q 175 -4 146 -4 m 484 -5 q 494 -7 492 -7 q 493 -31 493 -23 l 493 -35 q 501 -64 493 -57 l 505 -64 q 519 -16 519 -52 l 519 -9 l 531 -9 l 531 -9 q 536 -79 536 -70 l 536 -86 q 517 -127 536 -116 q 507 -130 511 -130 q 487 -116 492 -130 q 486 -110 486 -113 l 486 -104 q 488 -94 486 -94 l 498 -98 l 497 -104 l 497 -106 q 505 -113 497 -112 l 507 -113 q 524 -91 521 -113 q 525 -83 525 -88 l 525 -69 l 524 -60 l 524 -60 q 504 -81 517 -81 l 503 -81 q 482 -47 487 -81 q 481 -33 481 -41 l 481 -27 q 484 -5 481 -5 m 701 -5 l 706 -5 q 716 -12 710 -5 q 724 -24 724 -20 q 715 -33 716 -33 l 715 -33 q 703 -22 708 -22 l 702 -22 q 690 -41 694 -26 l 687 -56 q 696 -72 687 -71 l 699 -72 q 722 -61 706 -72 l 722 -61 q 726 -76 726 -75 q 694 -88 709 -88 q 675 -57 679 -88 q 688 -14 675 -34 q 701 -5 696 -5 m 364 -7 l 372 -7 l 376 -7 q 376 -13 376 -9 q 378 -87 376 -58 l 366 -87 l 366 -81 q 364 -7 364 -35 m 237 -7 q 249 -12 249 -11 l 249 -25 q 257 -71 249 -71 l 260 -71 q 277 -33 272 -58 q 281 -7 280 -26 l 282 -7 q 292 -12 292 -9 q 290 -52 290 -40 l 290 -58 q 294 -72 290 -65 q 287 -84 294 -76 l 287 -84 q 279 -67 279 -76 l 278 -67 q 259 -87 271 -87 l 257 -87 q 237 -24 237 -87 l 237 -7 m 308 -45 q 328 -73 308 -68 l 330 -73 q 340 -55 338 -73 l 340 -53 q 326 -20 340 -28 l 322 -20 l 321 -20 q 308 -43 309 -20 l 308 -45 m 395 -56 q 406 -73 395 -71 l 408 -73 q 428 -53 418 -73 q 429 -47 429 -50 l 429 -41 q 413 -20 425 -20 l 412 -20 q 395 -56 397 -20 m 553 -25 q 555 -71 553 -27 l 560 -71 q 578 -43 575 -71 q 566 -20 576 -20 l 566 -20 q 553 -25 559 -20 m 604 -56 l 604 -59 q 614 -73 604 -71 l 615 -73 q 635 -55 626 -73 q 638 -43 638 -50 q 619 -20 634 -20 q 604 -56 606 -20 m 741 -56 q 752 -73 741 -73 l 754 -73 q 774 -52 764 -73 q 775 -45 775 -48 l 775 -41 q 758 -20 770 -20 l 758 -20 q 741 -56 744 -20 m 663 -65 q 671 -75 669 -65 l 671 -78 q 663 -87 669 -87 q 655 -77 656 -87 q 663 -65 656 -65 m 486 928 l 486 764 l 309 764 q 239 738 273 764 l 239 745 q 486 928 339 928 m 543 928 l 549 928 q 739 827 639 928 q 777 764 777 781 l 543 764 l 543 928 m 290 707 l 486 707 l 486 643 q 435 656 463 656 l 290 656 q 277 669 277 656 l 277 694 q 290 707 279 707 m 543 707 l 802 707 l 808 643 l 808 631 q 720 429 808 505 l 606 429 q 543 492 543 437 l 543 707 m 220 656 l 227 656 q 321 599 227 607 l 441 599 q 486 555 486 599 l 486 485 q 416 429 486 429 l 309 429 q 220 618 220 510 l 220 656 m 511 410 l 517 410 q 644 372 559 372 l 644 365 q 517 340 571 340 l 511 340 q 385 365 457 340 l 385 372 q 511 410 474 372 z "},"/":{"ha":685,"x_min":68,"x_max":617,"o":"m 505 982 q 534 1013 513 1004 q 577 1014 556 1022 q 608 984 599 1005 q 609 941 617 963 l 180 -156 q 151 -186 172 -177 q 108 -187 130 -196 q 77 -158 86 -179 q 76 -115 68 -136 l 505 982 z "},":":{"ha":260,"x_min":68,"x_max":192,"o":"m 130 123 q 174 105 156 123 q 192 62 192 87 q 174 18 192 36 q 130 0 156 0 q 86 18 104 0 q 68 62 68 36 q 86 105 68 87 q 130 123 104 123 m 130 564 q 174 546 156 564 q 192 503 192 528 q 174 459 192 477 q 130 441 156 441 q 86 459 104 441 q 68 503 68 477 q 86 546 68 528 q 130 564 104 564 z "},";":{"ha":260,"x_min":68,"x_max":192,"o":"m 115 1 q 86 18 99 5 q 68 62 68 36 q 86 105 68 87 q 130 123 104 123 q 174 105 156 123 q 192 62 192 87 q 189 43 192 52 l 132 -132 q 118 -148 129 -142 q 96 -150 108 -153 q 80 -136 85 -146 q 78 -113 75 -125 l 115 1 m 130 564 q 174 546 156 564 q 192 503 192 528 q 174 459 192 477 q 130 441 156 441 q 86 459 104 441 q 68 503 68 477 q 86 546 68 528 q 130 564 104 564 z "},"<":{"ha":644,"x_min":68,"x_max":576,"o":"m 492 710 q 535 712 513 720 q 566 684 557 705 q 568 641 576 663 q 540 610 561 619 l 258 475 l 540 341 q 568 310 561 332 q 566 267 576 288 q 535 238 557 246 q 492 240 513 231 l 104 425 q 78 452 86 433 q 76 494 68 473 q 104 526 83 516 l 492 710 z "},"=":{"ha":696,"x_min":68,"x_max":631,"o":"m 123 543 q 84 559 100 543 q 68 599 68 576 q 84 638 68 622 q 123 654 100 654 l 575 654 q 615 638 599 654 q 631 599 631 622 q 615 559 631 576 q 575 543 599 543 l 123 543 m 123 271 q 84 288 100 271 q 68 328 68 304 q 84 367 68 351 q 123 383 100 383 l 575 383 q 615 367 599 383 q 631 328 631 351 q 615 288 631 304 q 575 271 599 271 l 123 271 z "},">":{"ha":644,"x_min":68,"x_max":576,"o":"m 104 610 q 76 641 83 619 q 78 684 68 663 q 109 712 87 705 q 152 710 131 720 l 540 526 q 568 494 561 516 q 566 452 576 473 q 540 425 558 433 l 152 240 q 109 238 131 231 q 78 267 87 246 q 76 310 68 288 q 104 341 83 332 l 387 475 l 104 610 z "},"?":{"ha":669,"x_min":68,"x_max":602,"o":"m 180 750 q 163 711 180 727 q 123 694 147 694 q 84 711 100 694 q 68 750 68 727 q 146 939 68 861 q 335 1017 224 1017 q 524 939 446 1017 q 602 750 602 861 q 542 556 602 625 q 417 473 507 516 q 362 442 377 455 q 339 392 339 422 l 339 311 q 323 272 339 288 q 283 256 306 256 q 243 272 260 256 q 227 311 227 288 l 227 392 q 270 513 227 469 q 370 574 296 540 q 451 628 428 602 q 490 750 490 671 q 444 860 490 814 q 335 905 399 905 q 225 860 271 905 q 180 750 180 814 m 283 123 q 327 105 309 123 q 345 62 345 87 q 327 18 345 36 q 283 0 309 0 q 239 18 257 0 q 220 62 220 36 q 239 105 220 87 q 283 123 257 123 z "},"@":{"ha":1118,"x_min":68,"x_max":1088,"o":"m 566 804 q 587 802 574 804 q 706 749 655 795 l 709 770 q 730 806 712 793 q 772 818 749 821 q 808 796 795 814 q 820 755 823 778 q 757 307 820 756 q 780 311 766 307 q 888 388 843 328 q 932 518 930 444 l 933 534 q 827 787 933 686 q 572 892 724 887 q 556 893 569 893 q 290 783 400 893 q 180 516 180 672 q 286 243 180 348 q 435 150 347 182 q 620 119 522 119 q 993 264 848 119 q 1032 281 1009 281 q 1072 265 1055 281 q 1088 226 1088 249 q 1072 186 1088 203 q 620 7 895 7 q 397 45 502 7 q 208 163 286 86 q 68 516 68 302 q 211 861 68 719 q 556 1004 354 1004 l 576 1004 q 905 868 770 997 q 1044 534 1044 733 l 1044 514 q 977 321 1040 406 q 808 203 909 230 q 758 195 783 196 q 709 203 730 195 q 654 254 671 218 q 647 276 649 264 q 522 238 587 238 q 502 239 514 238 q 354 323 411 248 q 300 494 300 395 q 302 526 300 508 q 387 719 313 639 q 566 804 465 804 m 576 692 q 566 692 573 692 q 469 644 513 692 q 412 515 420 591 q 412 494 412 507 q 443 391 412 432 q 512 350 471 354 q 522 349 515 349 q 620 398 575 349 q 672 499 659 440 l 677 533 l 677 547 q 646 650 677 609 q 576 692 618 688 z "},"A":{"ha":722,"x_min":7,"x_max":715,"o":"m 184 327 l 121 43 q 96 9 115 21 q 54 1 77 -3 q 19 26 31 7 q 12 68 7 45 l 196 886 q 266 993 212 960 q 361 1018 306 1018 q 456 992 416 1018 q 526 886 509 958 l 709 68 q 702 26 715 45 q 667 1 690 7 q 625 9 645 -3 q 601 43 606 21 l 537 327 l 184 327 m 513 435 l 416 861 q 395 898 411 888 q 361 906 383 906 q 326 899 337 906 q 304 861 311 890 l 209 435 l 513 435 z "},"B":{"ha":688,"x_min":68,"x_max":644,"o":"m 180 452 l 180 111 l 361 111 q 482 161 432 111 q 532 282 532 212 q 482 402 532 353 q 361 452 432 452 l 180 452 m 180 564 l 361 564 q 482 614 432 564 q 532 734 532 664 q 482 855 532 805 q 361 905 432 905 l 180 905 l 180 564 m 123 0 q 84 16 100 0 q 68 56 68 33 l 68 961 q 84 1000 68 984 q 123 1017 100 1017 l 361 1017 q 561 935 478 1017 q 644 734 644 852 q 507 508 644 585 q 644 282 644 431 q 561 82 644 165 q 361 0 478 0 l 123 0 z "},"C":{"ha":745,"x_min":68,"x_max":677,"o":"m 677 712 q 661 673 677 689 q 622 656 645 656 q 582 673 599 656 q 566 712 566 689 q 509 848 566 792 q 373 905 453 905 q 236 848 293 905 q 180 712 180 792 l 180 304 q 236 168 180 224 q 373 111 293 111 q 509 168 453 111 q 566 304 566 224 q 582 344 566 328 q 622 361 599 361 q 661 344 645 361 q 677 304 677 328 q 588 89 677 178 q 373 0 499 0 q 157 89 246 0 q 68 304 68 178 l 68 712 q 157 928 68 838 q 373 1017 246 1017 q 588 928 499 1017 q 677 712 677 838 z "},"D":{"ha":745,"x_min":68,"x_max":677,"o":"m 350 1017 q 581 921 486 1017 q 677 689 677 825 l 677 327 q 581 96 677 192 q 350 0 486 0 l 123 0 q 84 16 100 0 q 68 56 68 33 l 68 961 q 84 1000 68 984 q 123 1017 100 1017 l 350 1017 m 180 905 l 180 111 l 350 111 q 503 175 439 111 q 566 327 566 238 l 566 689 q 503 842 566 779 q 350 905 439 905 l 180 905 z "},"E":{"ha":621,"x_min":68,"x_max":587,"o":"m 531 111 q 570 95 554 111 q 587 56 587 79 q 570 16 587 33 q 531 0 554 0 l 123 0 q 84 16 100 0 q 68 56 68 33 l 68 961 q 84 1000 68 984 q 123 1017 100 1017 l 531 1017 q 570 1000 554 1017 q 587 961 587 984 q 570 922 587 938 q 531 905 554 905 l 180 905 l 180 564 l 486 564 q 526 548 509 564 q 542 508 542 532 q 526 469 542 485 q 486 452 509 452 l 180 452 l 180 111 l 531 111 z "},"F":{"ha":551,"x_min":68,"x_max":542,"o":"m 180 56 q 163 16 180 33 q 123 0 147 0 q 84 16 100 0 q 68 56 68 33 l 68 961 q 84 1000 68 984 q 123 1017 100 1017 l 486 1017 q 526 1000 509 1017 q 542 961 542 984 q 526 922 542 938 q 486 905 509 905 l 180 905 l 180 564 l 441 564 q 480 548 464 564 q 496 508 496 532 q 480 469 496 485 q 441 452 464 452 l 180 452 l 180 56 z "},"G":{"ha":745,"x_min":68,"x_max":677,"o":"m 373 452 q 333 469 349 452 q 317 508 317 485 q 333 548 317 532 q 373 564 349 564 l 622 564 q 661 548 645 564 q 677 508 677 532 l 677 304 q 588 90 677 179 q 373 0 498 0 q 157 90 247 0 q 68 304 68 179 l 68 712 q 157 927 68 838 q 373 1017 247 1017 q 588 927 498 1017 q 677 712 677 838 q 661 673 677 689 q 622 656 645 656 q 582 673 599 656 q 566 712 566 689 q 509 848 566 791 q 373 905 452 905 q 237 848 293 905 q 180 712 180 791 l 180 304 q 237 168 180 225 q 373 111 293 111 q 509 168 452 111 q 566 304 566 225 l 566 452 l 373 452 z "},"H":{"ha":700,"x_min":68,"x_max":632,"o":"m 632 56 q 616 16 632 33 q 576 0 600 0 q 537 16 553 0 q 520 56 520 33 l 520 452 l 180 452 l 180 56 q 163 16 180 33 q 123 0 147 0 q 84 16 100 0 q 68 56 68 33 l 68 961 q 84 1000 68 984 q 123 1017 100 1017 q 163 1000 147 1017 q 180 961 180 984 l 180 564 l 520 564 l 520 961 q 537 1000 520 984 q 576 1017 553 1017 q 616 1000 600 1017 q 632 961 632 984 l 632 56 z "},"I":{"ha":288,"x_min":88,"x_max":200,"o":"m 200 56 q 184 16 200 33 q 144 0 168 0 q 104 16 121 0 q 88 56 88 33 l 88 961 q 104 1000 88 984 q 144 1017 121 1017 q 184 1000 168 1017 q 200 961 200 984 l 200 56 z "},"J":{"ha":608,"x_min":14,"x_max":533,"o":"m 421 960 q 437 999 421 983 q 477 1015 454 1015 q 516 999 500 1015 q 533 960 533 983 l 533 303 q 381 26 533 100 q 273 0 330 0 q 165 26 217 0 q 14 303 14 100 q 30 342 14 326 q 69 359 46 359 q 109 342 93 359 q 125 303 125 326 q 214 125 125 170 q 273 112 241 112 q 332 125 304 112 q 421 303 421 170 l 421 960 z "},"K":{"ha":635,"x_min":68,"x_max":629,"o":"m 180 56 q 163 16 180 33 q 123 0 147 0 q 84 16 100 0 q 68 56 68 33 l 68 961 q 84 1000 68 984 q 123 1017 100 1017 q 163 1000 147 1017 q 180 961 180 984 l 180 543 q 191 576 183 559 q 223 625 201 599 l 518 996 q 555 1016 532 1013 q 597 1004 578 1019 q 617 967 614 990 q 606 926 620 944 l 310 556 q 292 529 297 540 q 288 509 288 519 q 292 489 288 499 q 311 462 298 478 l 614 91 q 627 50 629 73 q 607 13 625 27 q 566 0 589 -2 q 528 20 543 3 l 224 391 q 191 441 203 417 q 180 475 184 458 l 180 56 z "},"L":{"ha":637,"x_min":68,"x_max":632,"o":"m 576 111 q 616 95 600 111 q 632 56 632 79 q 616 16 632 33 q 576 0 600 0 l 123 0 q 84 16 100 0 q 68 56 68 33 l 68 56 l 68 961 q 84 1000 68 984 q 123 1017 100 1017 q 163 1000 147 1017 q 180 961 180 984 l 180 111 l 576 111 z "},"M":{"ha":956,"x_min":68,"x_max":888,"o":"m 888 56 q 872 16 888 33 q 833 0 856 0 q 793 16 810 0 q 777 56 777 33 l 777 892 q 767 905 777 903 q 753 895 756 907 l 595 291 q 551 229 585 252 q 478 205 519 205 q 405 229 437 205 q 361 291 371 252 l 203 895 q 189 905 200 907 q 180 892 180 903 l 180 56 q 163 16 180 33 q 123 0 146 0 q 84 16 100 0 q 68 56 68 33 l 68 892 q 96 972 68 937 q 169 1014 125 1006 q 255 1000 214 1023 q 309 931 297 977 l 467 326 q 478 317 469 317 q 489 326 488 317 l 648 931 q 701 1000 659 977 q 787 1014 741 1023 q 860 972 831 1006 q 888 892 888 938 l 888 56 z "},"N":{"ha":790,"x_min":68,"x_max":722,"o":"m 610 960 q 627 1000 610 983 q 667 1016 643 1016 q 706 1000 690 1016 q 722 960 722 983 l 722 124 q 696 48 722 81 q 629 4 671 15 q 546 10 585 -7 q 485 77 501 30 l 202 895 q 193 905 199 905 q 182 901 185 905 q 180 892 180 897 l 180 56 q 163 16 180 33 q 123 0 146 0 q 84 16 100 0 q 68 56 68 33 l 68 892 q 94 968 68 935 q 161 1013 119 1002 q 244 1006 204 1023 q 304 943 288 987 l 588 119 q 602 112 592 110 q 610 124 610 114 l 610 960 z "},"O":{"ha":745,"x_min":68,"x_max":677,"o":"m 373 1017 q 588 927 498 1017 q 677 712 677 838 l 677 304 q 588 90 677 179 q 373 0 498 0 q 157 90 247 0 q 68 304 68 179 l 68 712 q 157 927 68 838 q 373 1017 247 1017 m 509 848 q 373 905 452 905 q 237 848 293 905 q 180 712 180 791 l 180 304 q 237 168 180 225 q 373 111 293 111 q 509 168 452 111 q 566 304 566 225 l 566 712 q 509 848 566 791 z "},"P":{"ha":621,"x_min":68,"x_max":610,"o":"m 180 56 q 163 16 180 33 q 123 0 147 0 q 84 16 100 0 q 68 56 68 33 l 68 961 q 84 1000 68 984 q 123 1017 100 1017 l 328 1017 q 527 935 444 1017 q 610 734 610 852 q 527 535 610 618 q 328 452 444 452 l 180 452 l 180 56 m 180 905 l 180 564 l 328 564 q 448 614 398 564 q 498 734 498 664 q 448 855 498 805 q 328 905 398 905 l 180 905 z "},"Q":{"ha":745,"x_min":68,"x_max":677,"o":"m 317 246 q 333 286 317 269 q 373 302 349 302 q 412 286 396 302 q 429 246 429 269 l 429 120 q 509 168 475 134 q 566 304 566 225 l 566 712 q 509 848 566 791 q 373 905 452 905 q 237 848 293 905 q 180 712 180 791 l 180 304 q 237 168 180 225 q 317 120 271 134 l 317 246 m 429 -82 q 412 -121 429 -105 q 373 -138 396 -138 q 333 -121 349 -138 q 317 -82 317 -105 l 317 5 q 157 90 224 22 q 68 304 68 179 l 68 712 q 157 927 68 838 q 373 1017 247 1017 q 588 927 498 1017 q 677 712 677 838 l 677 304 q 588 90 677 179 q 429 5 521 22 l 429 -82 z "},"R":{"ha":715,"x_min":68,"x_max":665,"o":"m 180 56 q 163 16 180 33 q 123 0 147 0 q 84 16 100 0 q 68 56 68 33 l 68 961 q 84 1000 68 984 q 123 1017 100 1017 l 361 1017 q 561 934 478 1017 q 644 734 644 851 q 561 535 644 618 q 456 469 516 490 q 571 331 528 401 q 661 65 633 231 q 652 24 665 43 q 615 1 638 5 q 574 10 593 -3 q 551 47 555 24 q 476 273 526 191 q 302 452 425 357 l 180 452 l 180 56 m 180 905 l 180 564 l 361 564 q 482 614 432 564 q 532 734 532 664 q 482 855 532 805 q 361 905 432 905 l 180 905 z "},"S":{"ha":705,"x_min":47,"x_max":657,"o":"m 657 734 q 641 695 657 711 q 602 679 625 679 q 562 695 578 679 q 545 734 545 711 q 491 853 545 804 q 353 905 434 905 q 214 853 271 905 q 159 734 159 804 q 223 609 159 650 q 364 563 262 585 q 566 492 511 531 q 657 282 657 427 q 566 81 657 163 q 353 0 477 0 q 139 81 228 0 q 47 282 47 163 q 64 321 47 305 q 103 338 80 338 q 143 321 127 338 q 159 282 159 305 q 214 163 159 213 q 353 111 271 111 q 491 163 434 111 q 545 282 545 213 q 481 408 545 367 q 340 454 443 431 q 139 524 194 486 q 47 734 47 589 q 139 936 47 853 q 353 1017 228 1017 q 566 936 477 1017 q 657 734 657 853 z "},"T":{"ha":669,"x_min":7,"x_max":662,"o":"m 390 56 q 374 16 390 33 q 334 0 357 0 q 295 16 311 0 q 279 56 279 33 l 279 905 l 62 905 q 23 922 39 905 q 7 961 7 938 q 23 1000 7 984 q 62 1017 39 1017 l 606 1017 q 646 1000 629 1017 q 662 961 662 984 q 646 922 662 938 q 606 905 629 905 l 390 905 l 390 56 z "},"U":{"ha":745,"x_min":68,"x_max":677,"o":"m 566 961 q 582 1000 566 984 q 622 1017 599 1017 q 661 1000 645 1017 q 677 961 677 984 l 677 304 q 588 90 677 179 q 373 0 498 0 q 157 90 247 0 q 68 304 68 179 l 68 961 q 84 1000 68 984 q 123 1017 100 1017 q 163 1000 147 1017 q 180 961 180 984 l 180 304 q 237 168 180 225 q 373 111 293 111 q 509 168 452 111 q 566 304 566 225 l 566 961 z "},"V":{"ha":722,"x_min":7,"x_max":715,"o":"m 12 950 q 19 992 7 972 q 54 1017 31 1011 q 96 1009 77 1021 q 121 975 115 997 l 304 157 q 326 119 311 128 q 361 112 337 112 q 395 120 383 112 q 416 157 411 130 l 601 975 q 625 1009 606 997 q 667 1017 645 1021 q 702 992 690 1011 q 709 950 715 972 l 526 132 q 456 26 509 60 q 361 0 416 0 q 266 25 306 0 q 196 132 212 58 l 12 950 z "},"W":{"ha":1008,"x_min":14,"x_max":994,"o":"m 881 968 q 902 1005 884 991 q 943 1016 920 1019 q 981 995 966 1013 q 991 954 994 977 l 881 117 q 836 33 874 65 q 747 0 799 2 q 661 21 699 -1 q 611 92 617 47 l 529 683 q 504 699 526 699 q 479 684 481 699 l 397 92 q 349 22 391 47 q 266 0 313 0 q 174 31 212 0 q 127 117 134 64 l 16 954 q 28 995 14 977 q 64 1016 41 1013 q 106 1005 87 1019 q 127 968 124 991 l 237 131 q 264 110 240 110 q 290 129 288 111 l 372 720 q 424 791 378 766 q 504 811 459 811 q 584 791 549 811 q 636 720 630 766 l 718 129 q 745 112 723 111 q 770 131 768 112 l 881 968 z "},"X":{"ha":686,"x_min":34,"x_max":652,"o":"m 42 941 q 43 983 34 962 q 75 1013 53 1004 q 117 1011 96 1021 q 146 981 138 1002 l 285 616 q 314 572 298 583 q 343 564 325 564 q 372 572 361 564 q 401 616 389 584 l 540 981 q 569 1011 548 1002 q 612 1013 590 1021 q 643 983 633 1004 q 644 941 652 962 l 506 576 q 450 509 486 535 q 506 440 486 482 l 644 75 q 643 33 652 54 q 612 4 633 12 q 569 5 590 -4 q 540 36 548 15 l 401 401 q 372 444 389 433 q 343 452 361 452 q 314 445 325 452 q 285 401 298 433 l 146 36 q 117 5 138 15 q 75 4 96 -4 q 43 33 53 12 q 42 75 34 54 l 180 440 q 236 508 200 481 q 180 576 200 534 l 42 941 z "},"Y":{"ha":632,"x_min":7,"x_max":625,"o":"m 15 941 q 16 983 7 962 q 47 1013 26 1004 q 90 1011 69 1021 q 119 981 111 1002 l 258 616 q 287 572 271 583 q 316 564 298 564 q 345 572 334 564 q 374 616 362 584 l 513 981 q 542 1011 521 1002 q 585 1013 563 1021 q 616 983 606 1004 q 617 941 625 962 l 479 576 q 410 481 454 513 q 372 462 392 469 l 372 56 q 355 16 372 33 q 316 0 339 0 q 277 16 293 0 q 260 56 260 33 l 260 461 q 223 480 241 468 q 153 576 178 511 l 15 941 z "},"Z":{"ha":608,"x_min":20,"x_max":581,"o":"m 85 905 q 46 921 62 905 q 30 961 30 938 q 46 1000 30 984 q 85 1017 62 1017 l 407 1017 q 498 990 456 1017 q 560 918 539 964 q 574 825 581 873 q 535 739 568 777 l 151 206 q 137 177 140 193 q 142 145 135 161 q 163 120 150 129 q 195 112 176 112 l 515 112 q 555 96 538 112 q 571 56 571 79 q 555 16 571 33 q 515 0 538 0 l 195 0 q 104 26 145 0 q 41 98 62 53 q 27 192 20 144 q 66 278 33 240 l 450 810 q 464 840 462 824 q 458 871 466 856 q 438 897 451 888 q 407 905 425 905 l 85 905 z "},"[":{"ha":540,"x_min":68,"x_max":472,"o":"m 416 -81 q 456 -97 439 -81 q 472 -137 472 -114 q 456 -176 472 -160 q 416 -193 439 -193 l 123 -193 q 84 -176 100 -193 q 68 -137 68 -160 l 68 960 q 84 1000 68 983 q 123 1016 100 1016 l 416 1016 q 456 1000 439 1016 q 472 960 472 983 q 456 921 472 937 q 416 905 439 905 l 180 905 l 180 -81 l 416 -81 z "},"\\":{"ha":685,"x_min":68,"x_max":617,"o":"m 180 1048 l 609 -49 q 608 -92 617 -70 q 577 -121 599 -113 q 534 -120 556 -130 q 505 -90 513 -111 l 76 1008 q 77 1050 68 1029 q 108 1080 86 1072 q 151 1079 130 1088 q 180 1048 172 1070 z "},"]":{"ha":540,"x_min":68,"x_max":472,"o":"m 123 -193 q 84 -177 100 -193 q 68 -138 68 -161 q 84 -98 68 -115 q 123 -81 100 -81 l 360 -81 l 360 904 l 123 904 q 84 920 100 904 q 68 960 68 937 q 84 999 68 983 q 123 1015 100 1015 l 416 1015 q 456 999 439 1015 q 472 960 472 983 l 472 -138 q 456 -177 472 -161 q 416 -193 439 -193 l 123 -193 z "},"^":{"ha":713,"x_min":68,"x_max":645,"o":"m 179 441 q 147 413 169 420 q 105 414 125 405 q 76 446 84 424 q 77 488 68 467 l 306 984 q 337 1013 315 1005 q 380 1011 359 1021 q 407 984 398 1002 l 635 488 q 637 446 645 467 q 608 414 629 424 q 566 413 587 405 q 534 441 544 420 l 356 827 l 179 441 z "},"_":{"ha":564,"x_min":-68,"x_max":631,"o":"m -12 -112 q -52 -95 -35 -112 q -68 -56 -68 -79 q -52 -16 -68 -33 q -12 0 -35 0 l 575 0 q 615 -16 599 0 q 631 -56 631 -33 q 615 -95 631 -79 q 575 -112 599 -112 l -12 -112 z "},"`":{"ha":381,"x_min":88,"x_max":313,"o":"m 102 771 q 92 812 88 789 q 114 849 95 835 q 155 859 132 863 q 192 837 178 855 l 300 690 q 310 649 313 672 q 288 612 307 626 q 246 602 269 599 q 210 625 223 606 l 102 771 z "},"a":{"ha":686,"x_min":47,"x_max":618,"o":"m 506 79 q 374 5 454 21 q 224 19 298 -9 q 99 114 146 48 q 47 283 47 186 q 99 452 47 380 q 224 546 146 517 q 374 560 298 575 q 506 486 454 545 l 506 509 q 523 549 506 532 q 562 565 539 565 q 602 549 585 565 q 618 509 618 532 l 618 56 q 602 17 618 33 q 562 1 585 1 q 523 17 539 1 q 506 56 506 33 l 506 79 m 456 405 q 334 455 405 455 q 212 405 262 455 q 161 283 161 354 q 212 161 161 211 q 334 110 262 110 q 456 161 405 110 q 506 283 506 211 q 456 405 506 354 z "},"b":{"ha":686,"x_min":68,"x_max":638,"o":"m 180 962 q 163 1001 180 985 q 123 1017 147 1017 q 84 1001 100 1017 q 68 962 68 985 l 68 56 q 84 17 68 33 q 123 1 100 1 q 163 17 147 1 q 180 56 180 33 l 180 79 q 311 5 231 21 q 463 19 387 -9 q 587 114 540 48 q 638 283 638 186 q 587 452 638 380 q 463 546 540 517 q 311 560 387 575 q 180 486 231 545 l 180 962 m 230 405 q 353 455 281 455 q 475 405 424 455 q 525 283 525 354 q 475 161 525 211 q 353 110 424 110 q 230 161 281 110 q 180 283 180 211 q 230 405 180 354 z "},"c":{"ha":637,"x_min":68,"x_max":569,"o":"m 473 163 q 512 180 489 180 q 552 165 535 181 q 569 126 568 149 q 553 86 569 103 q 460 22 513 45 q 350 0 408 0 q 151 82 233 0 q 68 282 68 165 q 151 481 68 399 q 350 564 233 564 q 460 542 408 564 q 553 477 513 519 q 569 438 569 461 q 552 399 568 415 q 512 383 535 382 q 473 400 489 384 q 416 439 449 425 q 350 452 385 452 q 229 402 279 452 q 180 282 180 353 q 229 161 180 212 q 350 111 279 111 q 416 125 385 111 q 473 163 449 138 z "},"d":{"ha":686,"x_min":47,"x_max":618,"o":"m 506 962 q 523 1001 506 985 q 562 1017 539 1017 q 602 1001 585 1017 q 618 962 618 985 l 618 56 q 602 17 618 33 q 562 1 585 1 q 523 17 539 1 q 506 56 506 33 l 506 79 q 374 5 454 21 q 224 19 298 -9 q 99 114 146 48 q 47 283 47 186 q 99 452 47 380 q 224 546 146 517 q 374 560 298 575 q 506 486 454 545 l 506 962 m 456 405 q 334 455 405 455 q 212 405 262 455 q 161 283 161 354 q 212 161 161 211 q 334 110 262 110 q 456 161 405 110 q 506 283 506 211 q 456 405 506 354 z "},"e":{"ha":659,"x_min":47,"x_max":612,"o":"m 467 157 q 507 171 485 172 q 546 153 530 170 q 561 113 562 136 q 543 75 559 90 q 345 0 461 0 q 222 24 281 0 q 118 96 161 50 q 47 283 47 174 q 130 482 47 399 q 330 565 213 565 q 529 482 447 565 q 612 283 612 399 q 595 245 612 260 q 556 231 580 231 l 168 231 q 200 172 172 203 q 264 127 226 143 q 345 112 302 112 q 467 157 418 112 m 209 403 q 169 330 175 369 l 491 330 q 450 403 484 369 q 330 453 400 453 q 209 403 259 453 z "},"f":{"ha":500,"x_min":68,"x_max":501,"o":"m 68 737 q 197 993 68 924 q 284 1017 239 1017 q 371 993 330 1017 q 494 737 501 924 q 478 698 494 714 q 438 682 462 682 q 399 698 415 682 q 382 737 382 714 q 323 893 389 855 q 284 905 304 905 q 243 893 261 905 q 180 737 180 855 l 180 567 l 406 567 q 446 551 429 567 q 462 511 462 534 q 446 471 462 488 q 406 455 429 455 l 180 455 l 180 58 q 163 19 180 35 q 123 3 146 3 q 84 19 100 3 q 68 58 68 35 l 68 737 z "},"g":{"ha":680,"x_min":47,"x_max":612,"o":"m 500 84 q 371 11 450 26 q 222 24 296 -2 q 98 118 145 54 q 47 285 47 189 q 98 452 47 380 q 222 545 145 516 q 371 558 296 573 q 500 485 450 543 l 500 511 q 517 551 500 534 q 556 567 533 567 q 595 551 579 567 q 612 511 612 534 l 612 -169 l 612 -169 q 529 -368 612 -285 q 344 -450 454 -450 q 157 -368 233 -450 q 75 -168 75 -285 q 91 -129 75 -145 q 131 -112 108 -112 q 170 -129 154 -112 q 186 -168 186 -145 q 237 -289 186 -239 q 343 -338 279 -338 l 344 -338 q 451 -289 408 -338 q 500 -169 500 -239 l 500 84 m 450 405 q 330 455 400 455 q 209 405 259 455 q 159 285 159 355 q 209 164 159 214 q 330 114 259 114 q 450 164 400 114 q 500 285 500 214 q 450 405 500 355 z "},"h":{"ha":677,"x_min":68,"x_max":610,"o":"m 68 961 q 84 1000 68 984 q 123 1017 100 1017 q 163 1000 147 1017 q 180 961 180 984 l 180 483 q 304 557 229 540 q 446 550 376 575 q 562 459 518 524 q 610 286 610 388 l 610 56 q 593 16 610 33 q 554 0 577 0 q 514 16 530 0 q 498 56 498 33 l 498 286 q 405 441 498 401 q 338 454 374 454 q 273 441 303 454 q 180 287 180 401 l 180 56 q 163 16 180 33 q 123 0 147 0 q 84 16 100 0 q 68 56 68 33 l 68 961 z "},"i":{"ha":248,"x_min":62,"x_max":186,"o":"m 68 508 q 84 548 68 532 q 123 564 100 564 q 163 548 147 564 q 180 508 180 532 l 180 56 q 163 16 180 33 q 123 0 147 0 q 84 16 100 0 q 68 56 68 33 l 68 508 m 123 813 q 168 795 149 813 q 186 751 186 777 q 168 708 186 726 q 123 690 149 690 q 80 708 98 690 q 62 751 62 726 q 80 795 62 777 q 123 813 98 813 z "},"j":{"ha":361,"x_min":-159,"x_max":280,"o":"m 162 508 q 178 548 162 531 q 218 564 195 564 q 257 548 241 564 q 274 508 274 531 l 274 -172 q 207 -380 274 -302 q 58 -449 147 -449 q -92 -380 -32 -450 q -153 -171 -159 -302 q -136 -132 -153 -148 q -97 -115 -120 -115 q -57 -132 -73 -115 q -41 -171 -41 -148 q -14 -297 -47 -251 q 60 -338 15 -339 q 131 -296 103 -337 q 162 -172 162 -250 l 162 508 m 218 813 q 262 795 243 813 q 280 751 280 777 q 262 708 280 726 q 218 690 243 690 q 174 708 192 690 q 156 751 156 726 q 174 795 156 777 q 218 813 192 813 z "},"k":{"ha":578,"x_min":68,"x_max":549,"o":"m 68 961 q 84 1000 68 984 q 123 1017 100 1017 q 163 1000 147 1017 q 180 961 180 984 l 180 547 q 308 596 229 596 q 478 526 408 596 q 549 355 549 455 q 478 186 549 256 q 433 150 458 165 l 501 101 q 524 65 519 87 q 513 23 527 42 q 477 1 500 5 q 436 11 454 -3 l 279 123 q 252 171 252 139 q 269 210 252 194 q 308 227 285 227 q 399 264 361 227 q 437 355 437 302 q 399 446 437 409 q 308 484 361 484 q 217 446 255 484 q 180 357 180 410 l 180 56 q 163 16 180 33 q 123 0 147 0 q 84 16 100 0 q 68 56 68 33 l 68 961 z "},"l":{"ha":288,"x_min":88,"x_max":200,"o":"m 88 961 q 104 1000 88 984 q 144 1017 121 1017 q 184 1000 168 1017 q 200 961 200 984 l 200 56 q 184 16 200 33 q 144 0 168 0 q 104 16 121 0 q 88 56 88 33 l 88 961 z "},"m":{"ha":972,"x_min":68,"x_max":904,"o":"m 509 444 q 613 547 545 517 q 744 556 677 576 q 857 469 813 535 q 904 286 904 395 l 904 56 q 888 16 904 33 q 848 0 871 0 q 808 16 825 0 q 792 56 792 33 l 792 286 q 716 441 792 403 q 667 453 693 453 q 618 441 641 453 q 542 286 542 403 l 542 56 q 526 16 542 33 q 486 0 509 0 q 446 16 463 0 q 430 56 430 33 l 430 286 q 354 441 430 403 q 304 453 331 453 q 256 441 279 453 q 180 287 180 404 l 180 56 q 163 16 180 33 q 123 0 147 0 q 84 16 100 0 q 68 56 68 33 l 68 509 q 84 549 68 532 q 123 565 100 565 q 163 549 147 565 q 180 509 180 532 l 180 494 q 353 562 250 576 q 509 444 456 548 z "},"n":{"ha":677,"x_min":68,"x_max":610,"o":"m 68 508 q 84 548 68 532 q 123 564 100 564 q 163 548 147 564 q 180 508 180 532 l 180 482 q 304 557 229 539 q 446 549 376 574 q 562 458 518 523 q 610 286 610 387 l 610 56 q 593 16 610 33 q 554 0 577 0 q 514 16 530 0 q 498 56 498 33 l 498 286 q 405 440 498 401 q 338 453 374 453 q 273 440 303 453 q 180 286 180 401 l 180 56 q 163 16 180 33 q 123 0 147 0 q 84 16 100 0 q 68 56 68 33 l 68 508 z "},"o":{"ha":659,"x_min":47,"x_max":612,"o":"m 330 452 q 209 402 259 452 q 159 282 159 353 q 209 161 159 212 q 330 111 259 111 q 450 161 400 111 q 500 282 500 212 q 450 402 500 353 q 330 452 400 452 m 130 481 q 330 564 213 564 q 529 481 447 564 q 612 282 612 399 q 529 82 612 165 q 330 0 447 0 q 130 82 213 0 q 47 282 47 165 q 130 481 47 399 z "},"p":{"ha":686,"x_min":68,"x_max":638,"o":"m 180 485 q 311 559 231 543 q 463 545 387 574 q 587 450 540 515 q 638 281 638 378 q 587 113 638 184 q 463 18 540 47 q 311 4 387 -11 q 180 78 231 20 l 180 -398 q 163 -437 180 -421 q 123 -454 147 -454 q 84 -437 100 -454 q 68 -398 68 -421 l 68 507 q 84 547 68 531 q 123 564 100 564 q 163 547 147 564 q 180 507 180 531 l 180 485 m 230 159 q 353 109 281 109 q 475 159 424 109 q 525 281 525 210 q 475 404 525 353 q 353 454 424 454 q 230 404 281 454 q 180 281 180 353 q 230 159 180 210 z "},"q":{"ha":686,"x_min":47,"x_max":618,"o":"m 506 486 q 374 559 454 544 q 224 545 298 574 q 99 451 146 516 q 47 282 47 379 q 99 113 47 185 q 224 18 146 47 q 374 5 298 -10 q 506 79 454 20 l 506 -397 q 523 -437 506 -420 q 562 -453 539 -453 q 602 -437 585 -453 q 618 -397 618 -420 l 618 508 q 602 548 618 532 q 562 564 585 564 q 523 548 539 564 q 506 508 506 532 l 506 486 m 456 160 q 334 109 405 109 q 212 160 262 109 q 161 282 161 210 q 212 404 161 353 q 334 454 262 454 q 456 404 405 454 q 506 282 506 353 q 456 160 506 210 z "},"r":{"ha":551,"x_min":68,"x_max":542,"o":"m 68 509 q 84 549 68 532 q 123 565 100 565 q 163 549 147 565 q 180 509 180 532 l 180 494 q 287 560 224 547 q 406 547 349 574 q 502 456 467 519 q 542 286 542 386 q 526 246 542 263 q 486 230 509 230 q 446 246 463 230 q 430 286 430 263 q 354 441 430 404 q 304 454 331 454 q 256 441 279 454 q 180 288 180 404 l 180 56 q 163 16 180 33 q 123 0 147 0 q 84 16 100 0 q 68 56 68 33 l 68 509 z "},"s":{"ha":460,"x_min":27,"x_max":433,"o":"m 399 492 q 411 450 413 473 q 390 413 408 427 q 349 401 372 399 q 312 422 326 404 q 281 450 300 438 q 235 461 260 461 q 164 439 191 461 q 147 405 147 425 q 192 357 147 373 q 238 345 208 351 q 290 332 280 334 q 389 285 356 315 q 433 170 433 243 q 370 45 433 96 q 235 0 313 0 q 121 30 174 0 q 38 114 66 61 q 34 156 27 134 q 61 189 41 178 q 104 193 81 200 q 136 165 126 186 q 235 106 165 106 q 301 127 275 106 q 321 170 321 149 q 277 229 321 210 q 178 256 264 235 q 80 298 111 272 q 35 405 35 334 q 99 524 35 478 q 235 565 155 565 q 326 546 282 565 q 399 492 370 526 z "},"t":{"ha":396,"x_min":7,"x_max":389,"o":"m 62 452 q 23 469 39 452 q 7 508 7 485 q 23 548 7 532 q 62 564 39 564 l 142 564 l 142 961 q 159 1000 142 984 q 198 1017 175 1017 q 237 1000 221 1017 q 254 961 254 984 l 254 564 l 334 564 q 373 548 357 564 q 389 508 389 532 q 373 469 389 485 q 334 452 357 452 l 254 452 l 254 56 q 237 16 254 33 q 198 0 221 0 q 159 16 175 0 q 142 56 142 33 l 142 452 l 62 452 z "},"u":{"ha":677,"x_min":68,"x_max":610,"o":"m 610 56 q 593 16 610 33 q 554 0 577 0 q 514 16 530 0 q 498 56 498 33 l 498 81 q 374 7 448 24 q 232 15 302 -10 q 116 105 159 41 q 68 279 68 176 l 68 508 q 84 548 68 532 q 123 564 100 564 q 163 548 147 564 q 180 508 180 532 l 180 279 q 273 124 180 163 q 338 111 303 111 q 405 124 374 111 q 498 277 497 163 l 498 508 q 514 548 498 532 q 554 564 530 564 q 593 548 577 564 q 610 508 610 532 l 610 56 z "},"v":{"ha":564,"x_min":7,"x_max":557,"o":"m 16 487 q 16 530 7 509 q 46 560 24 551 q 89 559 67 569 q 119 530 110 551 l 282 133 l 446 530 q 475 559 454 551 q 518 560 497 569 q 549 530 540 551 q 549 487 557 509 l 374 64 q 339 19 363 36 q 282 0 313 0 q 225 19 251 0 q 190 64 201 36 l 16 487 z "},"w":{"ha":802,"x_min":14,"x_max":788,"o":"m 18 496 q 26 538 14 519 q 61 563 39 558 q 103 555 83 568 q 127 520 122 543 l 217 111 q 220 111 218 109 l 291 370 q 329 433 301 410 q 401 461 363 461 q 473 433 441 461 q 511 370 500 409 l 582 111 q 585 111 583 109 l 675 520 q 699 555 680 543 q 741 563 719 568 q 776 538 764 558 q 783 496 788 519 l 692 83 q 643 16 682 39 q 586 0 617 1 q 530 13 555 -1 q 476 77 488 34 l 404 342 q 401 347 402 347 q 399 342 400 348 l 326 77 q 272 13 314 34 q 216 0 246 -1 q 159 16 184 1 q 111 83 120 39 l 18 496 z "},"x":{"ha":551,"x_min":14,"x_max":537,"o":"m 28 474 q 16 515 14 492 q 37 553 19 538 q 79 564 56 566 q 115 543 101 561 l 275 339 l 435 543 q 472 564 449 561 q 513 553 495 566 q 534 515 532 538 q 523 474 537 492 l 390 304 q 362 281 380 292 q 391 258 380 272 l 523 90 q 534 49 537 72 q 513 12 532 26 q 472 1 495 -2 q 435 22 449 3 l 275 225 l 115 22 q 79 1 101 3 q 37 12 56 -2 q 16 49 19 26 q 28 90 14 72 l 159 258 q 189 281 170 271 q 160 305 171 292 l 28 474 z "},"y":{"ha":650,"x_min":54,"x_max":596,"o":"m 485 509 q 501 548 485 532 q 541 564 517 564 q 580 548 564 564 q 596 509 596 532 l 596 -172 q 530 -368 596 -289 q 334 -453 454 -453 q 138 -368 215 -453 q 73 -171 73 -288 q 89 -132 73 -148 q 128 -115 105 -115 q 168 -132 151 -115 q 184 -171 184 -148 q 218 -288 184 -241 q 334 -342 262 -342 q 451 -288 407 -342 q 485 -172 485 -241 l 485 70 q 335 1 437 5 q 174 44 242 -1 q 54 282 54 123 l 54 509 q 71 548 54 532 q 110 564 87 564 q 150 548 134 564 q 166 509 166 532 l 166 282 q 259 125 166 164 q 326 112 290 112 q 391 125 361 112 q 463 182 443 146 q 485 287 484 218 l 485 509 z "},"z":{"ha":541,"x_min":37,"x_max":500,"o":"m 110 452 q 71 469 87 452 q 54 509 54 485 q 71 548 54 532 q 110 564 87 564 l 357 564 q 430 540 397 564 q 475 476 463 515 q 473 399 487 437 q 421 335 458 360 l 153 134 q 149 128 150 132 q 149 120 147 125 q 153 114 150 116 q 160 112 155 112 l 445 112 q 484 96 468 112 q 500 56 500 79 q 484 16 500 33 q 445 0 468 0 l 167 0 q 93 24 126 0 q 49 88 60 49 q 50 165 37 127 q 98 227 64 203 l 366 428 q 375 444 376 435 q 363 452 373 452 l 110 452 z "},"{":{"ha":462,"x_min":34,"x_max":394,"o":"m 338 1017 q 378 1000 361 1017 q 394 961 394 984 q 378 921 394 937 q 338 905 361 905 q 286 887 294 905 q 282 821 282 878 q 280 673 282 736 q 256 512 277 571 q 191 413 235 452 q 273 239 256 352 q 282 105 282 182 q 283 0 282 23 q 286 -61 283 -54 q 338 -80 294 -80 q 378 -96 361 -80 q 394 -136 394 -113 q 378 -176 394 -159 q 338 -192 361 -192 q 275 -186 302 -192 q 218 -160 240 -178 q 186 -113 197 -142 q 171 -1 172 -79 q 170 105 170 52 q 114 332 170 280 q 68 361 95 349 q 34 412 34 375 q 64 463 34 447 q 108 489 90 475 q 159 575 145 518 q 169 677 166 608 q 170 821 170 727 q 177 904 170 870 q 206 972 185 947 q 338 1017 245 1017 z "},"|":{"ha":288,"x_min":88,"x_max":200,"o":"m 200 -136 q 184 -175 200 -159 q 144 -191 168 -191 q 104 -175 121 -191 q 88 -136 88 -159 l 88 961 q 104 1000 88 984 q 144 1017 121 1017 q 184 1000 168 1017 q 200 961 200 984 l 200 -136 z "},"}":{"ha":462,"x_min":68,"x_max":428,"o":"m 123 1017 q 256 972 217 1017 q 285 904 277 947 q 292 821 292 870 q 293 677 292 727 q 304 575 296 608 q 354 489 317 518 q 397 463 372 475 q 428 412 428 447 q 393 361 428 375 q 348 332 367 349 q 292 105 292 280 q 291 -1 292 52 q 276 -113 290 -79 q 243 -160 264 -142 q 187 -186 222 -178 q 123 -192 159 -192 q 84 -176 100 -192 q 68 -136 68 -159 q 84 -96 68 -113 q 123 -80 100 -80 q 176 -61 168 -80 q 180 0 178 -54 q 180 105 180 23 q 189 239 180 182 q 271 413 205 352 q 206 512 227 452 q 182 673 185 571 q 180 821 180 736 q 176 887 180 878 q 123 905 168 905 q 84 921 100 905 q 68 961 68 937 q 84 1000 68 984 q 123 1017 100 1017 z "},"~":{"ha":778,"x_min":68,"x_max":710,"o":"m 174 637 q 138 613 161 618 q 96 621 116 608 q 73 656 77 633 q 81 698 68 679 q 125 743 96 721 q 268 787 186 787 q 426 747 329 787 q 516 720 485 722 q 616 764 567 719 q 656 778 633 779 q 694 760 680 777 q 709 720 710 743 q 691 682 708 696 q 524 605 606 605 q 382 644 475 605 q 268 675 308 675 q 174 637 198 675 z "},"":{"ha":248,"x_min":62,"x_max":186,"o":"m 180 -396 q 163 -436 180 -419 q 124 -452 147 -452 q 84 -436 100 -452 q 68 -396 68 -419 l 68 264 q 84 303 68 287 q 124 319 100 319 q 163 303 147 319 q 180 264 180 287 l 180 -396 m 123 441 q 80 459 98 441 q 62 503 62 477 q 80 546 62 528 q 123 564 98 564 q 168 546 149 564 q 186 503 186 528 q 168 459 186 477 q 123 441 149 441 z "},"":{"ha":618,"x_min":61,"x_max":562,"o":"m 332 111 l 343 111 q 410 125 378 111 q 466 163 442 138 q 505 180 482 180 q 545 165 528 181 q 562 126 562 149 q 547 86 562 103 q 454 22 507 45 q 343 0 401 0 q 303 3 322 0 l 238 -237 q 218 -263 233 -254 q 184 -267 201 -273 q 157 -247 166 -262 q 153 -214 149 -231 l 218 28 q 144 82 178 48 q 61 282 61 165 q 144 481 61 399 q 343 564 227 564 q 363 564 353 564 l 427 801 q 448 827 432 819 q 481 832 464 837 q 508 811 499 827 q 513 778 517 795 l 450 544 q 454 542 452 543 q 547 477 507 519 q 562 438 562 461 q 545 399 562 415 q 505 383 528 382 q 466 400 482 384 q 420 434 446 421 l 332 111 m 333 452 q 222 402 269 449 q 173 282 173 353 q 222 161 173 212 q 248 140 235 149 l 333 452 z "},"":{"ha":872,"x_min":68,"x_max":804,"o":"m 123 432 q 84 448 100 432 q 68 488 68 465 q 84 528 68 511 q 123 544 100 544 l 217 544 q 195 675 195 610 q 235 831 195 762 q 349 938 275 903 q 471 964 405 964 q 655 892 577 964 q 740 718 728 824 q 728 676 742 694 q 690 656 713 659 q 649 667 667 653 q 629 705 631 682 q 579 810 621 771 q 471 852 534 852 q 396 836 429 852 q 332 777 355 817 q 307 675 307 734 q 336 544 307 611 l 534 544 q 573 528 557 544 q 590 488 590 511 q 573 448 590 465 q 534 432 557 432 l 366 432 q 342 273 372 355 q 295 176 324 224 q 310 177 302 177 q 464 155 382 180 l 465 155 q 614 129 559 127 q 718 161 663 131 q 760 166 737 172 q 793 140 782 160 q 798 97 804 119 q 772 64 792 75 q 618 18 695 20 q 432 49 544 15 l 432 49 q 315 66 368 68 q 163 24 244 62 q 93 35 123 0 q 79 75 77 52 q 98 113 80 98 q 237 311 199 203 q 254 432 261 376 l 123 432 z "},"":{"ha":609,"x_min":41,"x_max":568,"o":"m 304 583 q 204 542 245 583 q 163 442 163 500 q 204 342 163 383 q 304 301 245 301 q 404 342 363 301 q 446 442 446 383 q 404 542 446 500 q 304 583 363 583 m 426 642 l 473 689 q 512 705 489 705 q 551 689 535 705 q 568 650 568 673 q 552 610 568 626 l 505 563 q 538 442 538 509 q 505 321 538 374 l 552 273 q 568 234 568 257 q 551 194 568 210 q 512 178 535 178 q 473 194 489 178 l 425 241 q 304 208 372 208 q 184 241 237 208 l 136 194 q 96 178 120 178 q 57 194 73 178 q 41 233 41 210 q 57 273 41 256 l 104 320 q 71 442 71 374 q 104 564 71 510 l 57 610 q 41 650 41 627 q 57 689 41 673 q 97 705 73 705 q 136 689 120 705 l 183 642 q 304 675 237 675 q 426 642 372 675 z "},"":{"ha":784,"x_min":68,"x_max":716,"o":"m 256 260 q 216 276 233 260 q 200 315 200 292 q 216 355 200 338 q 256 371 233 371 l 336 371 l 336 418 l 256 418 q 216 435 233 418 q 200 475 200 452 q 216 514 200 498 q 256 530 233 530 l 291 530 l 80 863 q 73 905 68 883 q 98 941 78 928 q 140 947 117 953 q 174 923 162 943 l 392 579 l 610 923 q 644 947 622 943 q 686 941 667 953 q 711 905 706 928 q 704 863 716 883 l 493 530 l 528 530 q 568 514 551 530 q 584 475 584 498 q 568 435 584 452 q 528 418 551 418 l 448 418 l 448 371 l 528 371 q 568 355 551 371 q 584 315 584 338 q 568 276 584 292 q 528 260 551 260 l 448 260 l 448 56 q 431 16 448 33 q 392 0 415 0 q 353 16 369 0 q 336 56 336 33 l 336 260 l 256 260 z "},"":{"ha":288,"x_min":88,"x_max":200,"o":"m 200 556 q 184 517 200 533 q 144 500 168 500 q 104 517 121 500 q 88 556 88 533 l 88 961 q 104 1000 88 984 q 144 1017 121 1017 q 184 1000 168 1017 q 200 961 200 984 l 200 556 m 200 -115 q 184 -155 200 -138 q 144 -171 168 -171 q 104 -155 121 -171 q 88 -115 88 -138 l 88 290 q 104 329 88 313 q 144 345 121 345 q 184 329 168 345 q 200 290 200 313 l 200 -115 z "},"":{"ha":643,"x_min":68,"x_max":575,"o":"m 68 62 q 84 101 68 85 q 123 117 100 117 q 163 101 147 117 q 180 62 180 85 q 219 -24 180 12 q 321 -62 261 -62 q 423 -24 382 -62 q 463 62 463 12 q 418 146 463 115 q 318 186 389 166 q 296 192 306 186 q 138 258 183 223 q 68 421 68 313 q 144 590 68 521 q 159 603 151 597 q 68 781 68 659 q 144 949 68 880 q 321 1017 218 1017 q 498 949 425 1017 q 575 781 575 880 q 558 742 575 758 q 519 725 542 725 q 479 742 496 725 q 463 781 463 758 q 423 867 463 831 q 321 905 382 905 q 219 867 261 905 q 180 781 180 831 q 228 696 180 726 q 335 656 257 677 q 500 590 455 623 q 575 421 575 534 q 498 253 575 322 q 484 241 492 247 q 575 62 575 184 q 498 -106 575 -37 q 321 -174 425 -174 q 144 -106 218 -174 q 68 62 68 -37 m 319 545 q 219 507 260 545 q 180 421 180 471 q 227 337 180 368 q 331 298 256 318 q 423 336 385 301 q 463 421 463 372 q 418 506 463 475 q 319 545 389 526 z "},"":{"ha":507,"x_min":68,"x_max":439,"o":"m 130 779 q 174 761 156 779 q 192 717 192 743 q 174 673 192 691 q 130 655 156 655 q 86 673 104 655 q 68 717 68 691 q 86 761 68 743 q 130 779 104 779 m 377 779 q 421 761 403 779 q 439 717 439 743 q 421 673 439 691 q 377 655 403 655 q 333 673 351 655 q 315 717 315 691 q 333 761 315 743 q 377 779 351 779 z "},"":{"ha":1144,"x_min":68,"x_max":1076,"o":"m 806 649 q 795 608 809 627 q 758 587 781 589 q 717 597 735 583 q 695 634 699 612 q 677 675 691 666 q 574 692 652 692 q 465 642 489 692 q 449 510 449 610 l 450 510 l 450 499 l 449 499 q 465 367 449 399 q 574 317 489 317 q 677 334 652 317 q 695 374 691 342 q 717 412 699 397 q 758 422 735 425 q 795 401 781 419 q 806 359 809 382 q 739 240 795 277 q 574 205 685 205 q 368 286 414 205 q 338 499 338 337 l 338 510 q 368 723 338 672 q 574 804 414 804 q 739 769 685 804 q 806 649 795 732 m 572 1008 q 216 861 363 1008 q 68 505 68 713 q 216 148 68 296 q 572 0 363 0 q 928 148 781 0 q 1076 505 1076 296 q 928 861 1076 713 q 572 1008 781 1008 m 850 782 q 964 505 964 667 q 850 227 964 342 q 572 112 734 112 q 294 227 410 112 q 180 505 180 342 q 294 782 180 667 q 572 897 410 897 q 850 782 734 897 z "},"":{"ha":696,"x_min":41,"x_max":646,"o":"m 310 671 q 351 681 328 684 q 388 659 374 677 q 398 617 401 640 q 376 581 394 595 l 167 362 l 376 143 q 398 106 394 130 q 388 65 401 84 q 351 43 374 47 q 310 53 328 39 l 67 316 q 54 329 60 321 q 44 370 41 348 q 66 407 47 393 l 310 671 m 555 671 q 596 681 573 684 q 633 659 618 677 q 643 617 646 640 q 621 581 639 595 l 412 362 l 621 143 q 643 106 639 130 q 633 65 646 84 q 596 43 618 47 q 555 53 573 39 l 312 316 q 299 329 304 321 q 289 370 286 348 q 311 407 292 393 l 555 671 z "},"":{"ha":577,"x_min":7,"x_max":570,"o":"m 458 387 l 62 387 q 23 404 39 387 q 7 443 7 420 q 23 482 7 466 q 62 498 39 498 l 514 498 q 554 482 538 498 q 570 443 570 466 l 570 177 q 554 138 570 154 q 514 121 538 121 q 475 138 491 121 q 458 177 458 154 l 458 387 z "},"":{"ha":1144,"x_min":68,"x_max":1076,"o":"m 792 286 q 795 243 802 265 q 767 211 787 221 q 724 208 746 201 q 692 236 702 216 l 582 456 l 473 456 l 473 261 q 457 222 473 238 q 417 205 440 205 q 378 222 394 205 q 361 261 361 238 l 361 748 q 378 787 361 771 q 417 804 394 804 l 663 804 q 787 757 760 804 q 805 633 805 727 l 806 633 l 806 628 l 805 628 q 793 514 805 543 q 705 459 773 468 l 792 286 m 473 568 l 663 568 q 690 585 684 568 q 694 628 694 595 l 694 633 q 690 675 694 665 q 663 692 684 692 l 473 692 l 473 568 m 572 1008 q 216 861 363 1008 q 68 505 68 713 q 216 148 68 296 q 572 0 363 0 q 928 148 781 0 q 1076 505 1076 296 q 928 861 1076 713 q 572 1008 781 1008 m 850 782 q 964 505 964 667 q 850 227 964 342 q 572 112 734 112 q 294 227 410 112 q 180 505 180 342 q 294 782 180 667 q 572 897 410 897 q 850 782 734 897 z "},"":{"ha":564,"x_min":68,"x_max":496,"o":"m 123 712 q 84 729 100 712 q 68 768 68 745 q 84 808 68 791 q 123 824 100 824 l 439 824 q 479 808 463 824 q 496 768 496 791 q 479 729 496 745 q 439 712 463 712 l 123 712 z "},"":{"ha":603,"x_min":68,"x_max":535,"o":"m 302 1016 q 467 948 399 1016 q 535 783 535 880 q 467 617 535 686 q 302 549 399 549 q 136 617 205 549 q 68 783 68 686 q 136 948 68 880 q 302 1016 205 1016 m 401 882 q 302 924 360 924 q 201 882 243 924 q 161 783 161 841 q 201 683 161 724 q 302 642 243 642 q 401 683 360 642 q 443 783 443 724 q 401 882 443 841 z "},"":{"ha":837,"x_min":68,"x_max":769,"o":"m 123 498 q 84 515 100 498 q 68 554 68 531 q 84 593 68 577 q 123 610 100 610 l 363 610 l 363 849 q 379 888 363 872 q 418 905 395 905 q 458 888 441 905 q 475 849 475 872 l 475 610 l 713 610 q 753 593 736 610 q 769 554 769 577 q 753 515 769 531 q 713 498 736 498 l 475 498 l 475 259 q 458 220 475 236 q 418 203 441 203 q 379 220 395 203 q 363 259 363 236 l 363 498 l 123 498 m 123 0 q 84 17 100 0 q 68 56 68 33 q 84 96 68 79 q 123 112 100 112 l 711 112 q 751 96 734 112 q 767 56 767 79 q 751 17 767 33 q 711 0 734 0 l 123 0 z "},"":{"ha":381,"x_min":149,"x_max":374,"o":"m 361 771 l 253 625 q 216 602 239 606 q 175 612 193 599 q 153 649 156 626 q 163 690 149 672 l 271 837 q 307 859 284 855 q 349 849 330 863 q 371 812 368 835 q 361 771 374 789 z "},"":{"ha":677,"x_min":68,"x_max":610,"o":"m 180 100 l 180 -397 q 163 -436 180 -420 q 123 -452 147 -452 q 84 -436 100 -452 q 68 -397 68 -420 l 68 509 q 84 548 68 532 q 123 564 100 564 q 132 564 127 564 q 137 564 134 564 q 163 548 154 564 q 180 509 180 532 l 180 278 q 273 124 180 163 q 338 111 303 111 q 405 124 374 111 q 498 277 497 163 l 498 508 q 514 548 498 532 q 554 564 530 564 q 593 548 577 564 q 610 508 610 532 l 610 56 q 593 16 610 33 q 554 0 577 0 q 514 16 530 0 q 498 56 498 33 l 498 81 q 374 7 448 24 q 232 28 302 -10 q 180 100 201 49 z "},"":{"ha":288,"x_min":-298,"x_max":612,"o":"m 443 905 l 443 -136 q 427 -175 443 -159 q 387 -191 410 -191 q 347 -175 363 -191 q 331 -136 331 -159 l 331 905 l 200 905 l 200 -136 q 184 -175 200 -159 q 144 -191 168 -191 q 104 -175 121 -191 q 88 -136 88 -159 l 88 272 l 75 272 q -189 381 -79 272 q -298 644 -298 490 q -189 907 -298 798 q 75 1017 -79 1017 l 557 1017 q 596 1000 580 1017 q 612 961 612 984 q 596 921 612 937 q 557 905 580 905 l 443 905 z "},"":{"ha":174,"x_min":34,"x_max":140,"o":"m 87 561 q 124 546 109 561 q 140 509 140 530 q 124 471 140 486 q 87 456 109 456 q 50 471 65 456 q 34 509 34 486 q 50 546 34 530 q 87 561 65 561 z "},"":{"ha":406,"x_min":58,"x_max":251,"o":"m 227 113 q 227 113 227 113 q 227 113 227 113 m 241 -130 l 169 -281 q 137 -310 159 -302 q 94 -308 115 -318 q 66 -276 73 -298 q 68 -233 58 -254 l 140 -82 q 172 -54 151 -62 q 215 -56 195 -45 q 243 -87 236 -66 q 241 -130 251 -110 z "},"":{"ha":694,"x_min":41,"x_max":646,"o":"m 132 671 l 376 407 q 398 370 394 393 q 388 329 401 348 q 374 316 382 321 l 132 53 q 91 43 114 39 q 54 65 68 47 q 44 106 41 84 q 66 143 47 130 l 275 362 l 66 581 q 44 617 47 595 q 54 659 41 640 q 91 681 68 677 q 132 671 114 684 m 377 671 l 621 407 q 643 370 639 393 q 633 329 646 348 q 619 316 627 321 l 377 53 q 336 43 359 39 q 299 65 313 47 q 289 106 286 84 q 311 143 292 130 l 520 362 l 311 581 q 289 617 292 595 q 299 659 286 640 q 336 681 313 677 q 377 671 359 684 z "},"":{"ha":1158,"x_min":3,"x_max":1124,"o":"m 150 761 l 111 695 q 76 670 98 675 q 34 676 54 665 q 9 711 14 688 q 16 753 3 733 l 156 985 q 206 1016 172 1016 q 245 1000 229 1016 q 262 960 262 983 l 262 324 q 245 284 262 300 q 206 268 229 268 q 166 284 182 268 q 150 324 150 300 l 150 761 m 560 1017 q 581 1044 565 1035 q 614 1048 597 1053 q 641 1027 632 1043 q 646 994 650 1012 l 371 -20 q 351 -47 366 -37 q 317 -51 334 -56 q 290 -31 299 -46 q 286 3 281 -14 l 560 1017 m 1006 56 q 989 16 1006 33 q 950 0 973 0 q 911 16 927 0 q 895 56 895 33 l 895 162 l 646 162 l 646 162 q 615 171 629 162 q 591 206 596 184 q 598 248 586 229 l 901 719 q 950 748 918 748 q 989 732 973 748 q 1006 692 1006 715 l 1006 274 l 1068 274 q 1107 258 1091 274 q 1124 218 1124 241 q 1107 178 1124 195 q 1068 162 1091 162 l 1006 162 l 1006 56 m 740 274 l 895 274 l 895 524 l 740 274 z "},"":{"ha":1082,"x_min":3,"x_max":1048,"o":"m 150 761 l 111 695 q 76 670 98 675 q 34 676 54 665 q 9 711 14 688 q 16 753 3 733 l 156 985 q 206 1016 172 1016 q 245 1000 229 1016 q 262 960 262 983 l 262 324 q 245 284 262 300 q 206 268 229 268 q 166 284 182 268 q 150 324 150 300 l 150 761 m 560 1017 q 581 1044 565 1035 q 614 1048 597 1053 q 641 1027 632 1043 q 646 994 650 1012 l 371 -20 q 351 -47 366 -37 q 317 -51 334 -56 q 290 -31 299 -46 q 286 3 281 -14 l 560 1017 m 698 533 q 682 494 698 510 q 642 477 665 477 q 602 494 618 477 q 586 533 586 510 q 656 687 586 623 q 817 748 723 748 q 978 687 911 748 q 1048 533 1048 623 q 982 368 1048 427 q 838 290 943 332 q 741 242 768 262 q 698 151 698 207 l 698 112 l 991 112 q 1031 96 1015 112 q 1048 56 1048 79 q 1031 16 1048 33 q 991 0 1015 0 l 642 0 q 602 16 618 0 q 586 56 586 33 l 586 151 q 652 317 586 257 q 796 394 691 352 q 892 443 866 422 q 936 533 936 477 q 903 604 936 574 q 817 636 867 636 q 730 604 766 636 q 698 533 698 574 z "},"":{"ha":1310,"x_min":34,"x_max":1276,"o":"m 146 802 q 130 762 146 779 q 90 746 113 746 q 50 762 66 746 q 34 802 34 779 q 104 956 34 892 q 264 1017 171 1017 q 426 956 359 1017 q 496 802 496 892 q 426 648 496 711 q 420 642 423 645 q 426 637 423 640 q 496 484 496 574 q 426 330 496 393 q 264 269 359 269 q 104 330 171 269 q 34 484 34 393 q 50 523 34 507 q 90 539 66 539 q 130 523 113 539 q 146 484 146 507 q 178 412 146 442 q 264 380 214 380 q 351 412 315 380 q 384 484 384 442 q 351 555 384 525 q 264 587 315 587 q 225 603 241 587 q 209 642 209 619 q 225 682 209 666 q 264 699 241 699 q 351 730 315 699 q 384 802 384 760 q 351 873 384 843 q 264 905 315 905 q 178 873 214 905 q 146 802 146 843 m 746 1017 q 766 1044 751 1035 q 800 1048 783 1053 q 827 1027 818 1043 q 831 994 836 1012 l 557 -20 q 536 -47 552 -37 q 503 -51 520 -56 q 476 -31 485 -46 q 471 3 467 -14 l 746 1017 m 1158 56 q 1142 16 1158 33 q 1103 0 1126 0 q 1063 16 1080 0 q 1047 56 1047 33 l 1047 162 l 798 162 l 798 162 q 768 171 781 162 q 743 206 749 184 q 751 248 739 229 l 1054 719 q 1103 748 1070 748 q 1142 732 1126 748 q 1158 692 1158 715 l 1158 274 l 1221 274 q 1260 258 1244 274 q 1276 218 1276 241 q 1260 178 1276 195 q 1221 162 1244 162 l 1158 162 l 1158 56 m 892 274 l 1047 274 l 1047 524 l 892 274 z "},"":{"ha":669,"x_min":68,"x_max":602,"o":"m 490 -186 q 506 -146 490 -163 q 546 -130 522 -130 q 585 -146 569 -130 q 602 -186 602 -163 q 524 -374 602 -296 q 334 -452 445 -452 q 146 -374 224 -452 q 68 -186 68 -296 q 127 8 68 -60 q 252 91 163 48 q 307 122 292 109 q 330 172 330 142 l 330 253 q 347 292 330 276 q 387 309 363 309 q 426 292 410 309 q 442 253 442 276 l 442 172 q 399 51 442 95 q 300 -10 373 24 q 218 -64 241 -38 q 180 -186 180 -107 q 225 -296 180 -250 q 334 -341 271 -341 q 444 -296 399 -341 q 490 -186 490 -250 m 387 441 q 343 459 361 441 q 325 503 325 477 q 343 546 325 528 q 387 564 361 564 q 431 546 412 564 q 449 503 449 528 q 431 459 449 477 q 387 441 412 441 z "},"":{"ha":722,"x_min":7,"x_max":715,"o":"m 184 327 l 121 43 q 96 9 115 21 q 54 1 77 -3 q 19 26 31 7 q 12 68 7 45 l 196 886 q 266 993 212 960 q 361 1018 306 1018 q 456 992 416 1018 q 526 886 509 958 l 709 68 q 702 26 715 45 q 667 1 690 7 q 625 9 645 -3 q 601 43 606 21 l 537 327 l 184 327 m 513 435 l 416 861 q 395 898 411 888 q 361 906 383 906 q 326 899 337 906 q 304 861 311 890 l 209 435 l 513 435 m 225 1223 q 215 1265 212 1242 q 237 1301 218 1287 q 279 1312 256 1315 q 315 1289 302 1308 l 423 1143 q 433 1101 437 1124 q 411 1065 430 1078 q 370 1055 393 1051 q 333 1077 347 1058 l 225 1223 z "},"":{"ha":722,"x_min":7,"x_max":715,"o":"m 184 327 l 121 43 q 96 9 115 21 q 54 1 77 -3 q 19 26 31 7 q 12 68 7 45 l 196 886 q 266 993 212 960 q 361 1018 306 1018 q 456 992 416 1018 q 526 886 509 958 l 709 68 q 702 26 715 45 q 667 1 690 7 q 625 9 645 -3 q 601 43 606 21 l 537 327 l 184 327 m 513 435 l 416 861 q 395 898 411 888 q 361 906 383 906 q 326 899 337 906 q 304 861 311 890 l 209 435 l 513 435 m 496 1223 l 389 1077 q 352 1055 375 1058 q 311 1065 329 1051 q 288 1101 292 1078 q 298 1143 285 1124 l 406 1289 q 443 1312 420 1308 q 484 1301 466 1315 q 507 1265 503 1287 q 496 1223 510 1242 z "},"":{"ha":722,"x_min":7,"x_max":715,"o":"m 184 327 l 121 43 q 96 9 115 21 q 54 1 77 -3 q 19 26 31 7 q 12 68 7 45 l 196 886 q 266 993 212 960 q 361 1018 306 1018 q 456 992 416 1018 q 526 886 509 958 l 709 68 q 702 26 715 45 q 667 1 690 7 q 625 9 645 -3 q 601 43 606 21 l 537 327 l 184 327 m 513 435 l 416 861 q 395 898 411 888 q 361 906 383 906 q 326 899 337 906 q 304 861 311 890 l 209 435 l 513 435 m 520 1130 q 530 1092 532 1113 q 509 1058 526 1070 q 471 1048 492 1045 q 437 1069 450 1052 l 361 1160 l 283 1069 q 250 1048 271 1052 q 212 1058 229 1045 q 191 1092 194 1070 q 200 1130 188 1113 l 318 1270 q 361 1292 333 1292 q 401 1272 386 1292 l 520 1130 z "},"":{"ha":722,"x_min":7,"x_max":715,"o":"m 184 327 l 121 43 q 96 9 115 21 q 54 1 77 -3 q 19 26 31 7 q 12 68 7 45 l 196 886 q 266 993 212 960 q 361 1018 306 1018 q 456 992 416 1018 q 526 886 509 958 l 709 68 q 702 26 715 45 q 667 1 690 7 q 625 9 645 -3 q 601 43 606 21 l 537 327 l 184 327 m 513 435 l 416 861 q 395 898 411 888 q 361 906 383 906 q 326 899 337 906 q 304 861 311 890 l 209 435 l 513 435 m 262 1124 q 241 1093 258 1103 q 215 1084 229 1084 q 204 1086 210 1084 q 173 1107 184 1090 q 165 1133 165 1118 q 166 1143 165 1138 q 210 1224 176 1196 q 275 1249 239 1249 q 300 1246 287 1249 q 387 1204 337 1240 q 440 1177 421 1177 q 448 1179 445 1177 q 460 1204 456 1184 l 460 1205 q 481 1236 464 1224 q 507 1244 493 1244 q 517 1242 512 1244 q 549 1221 537 1238 q 557 1195 557 1209 q 555 1184 557 1190 l 555 1183 q 503 1097 543 1124 q 444 1080 477 1080 q 416 1083 432 1080 q 332 1124 380 1090 q 284 1145 300 1145 l 282 1145 q 262 1124 266 1143 z "},"":{"ha":722,"x_min":7,"x_max":715,"o":"m 184 327 l 121 43 q 96 9 115 21 q 54 1 77 -3 q 19 26 31 7 q 12 68 7 45 l 196 886 q 266 993 212 960 q 361 1018 306 1018 q 456 992 416 1018 q 526 886 509 958 l 709 68 q 702 26 715 45 q 667 1 690 7 q 625 9 645 -3 q 601 43 606 21 l 537 327 l 184 327 m 513 435 l 416 861 q 395 898 411 888 q 361 906 383 906 q 326 899 337 906 q 304 861 311 890 l 209 435 l 513 435 m 237 1231 q 281 1213 263 1231 q 299 1169 299 1195 q 281 1125 299 1143 q 237 1107 263 1107 q 193 1125 212 1107 q 175 1169 175 1143 q 193 1213 175 1195 q 237 1231 212 1231 m 484 1231 q 528 1213 510 1231 q 546 1169 546 1195 q 528 1125 546 1143 q 484 1107 510 1107 q 440 1125 458 1107 q 422 1169 422 1143 q 440 1213 422 1195 q 484 1231 458 1231 z "},"":{"ha":722,"x_min":7,"x_max":715,"o":"m 184 327 l 121 43 q 96 9 115 21 q 54 1 77 -3 q 19 26 31 7 q 12 68 7 45 l 196 886 q 266 993 212 960 q 361 1018 306 1018 q 456 992 416 1018 q 526 886 509 958 l 709 68 q 702 26 715 45 q 667 1 690 7 q 625 9 645 -3 q 601 43 606 21 l 537 327 l 184 327 m 513 435 l 416 861 q 395 898 411 888 q 361 906 383 906 q 326 899 337 906 q 304 861 311 890 l 209 435 l 513 435 m 360 1280 q 453 1242 414 1280 q 492 1149 492 1203 q 453 1056 492 1095 q 360 1018 414 1018 q 267 1056 306 1018 q 229 1149 229 1095 q 267 1242 229 1203 q 360 1280 306 1280 m 401 1190 q 360 1206 384 1206 q 319 1190 336 1206 q 303 1149 303 1173 q 319 1108 303 1125 q 360 1092 336 1092 q 401 1108 384 1092 q 418 1149 418 1125 q 401 1190 418 1173 z "},"":{"ha":1107,"x_min":68,"x_max":1086,"o":"m 180 492 l 566 492 l 566 712 q 509 848 566 792 q 373 905 453 905 q 236 848 293 905 q 180 712 180 792 l 180 492 m 622 0 q 582 16 599 0 q 566 56 566 33 l 566 380 l 180 380 l 180 56 q 163 16 180 33 q 123 0 147 0 q 84 16 100 0 q 68 56 68 33 l 68 712 q 157 928 68 838 q 373 1017 246 1017 q 566 947 484 1017 l 566 961 q 583 1000 566 984 q 622 1017 599 1017 l 1029 1017 q 1069 1000 1053 1017 q 1086 961 1086 984 q 1069 922 1086 938 q 1029 905 1053 905 l 678 905 l 678 564 l 984 564 q 1024 548 1008 564 q 1040 508 1040 532 q 1024 469 1040 485 q 984 452 1008 452 l 678 452 l 678 111 l 1029 111 q 1069 95 1053 111 q 1086 56 1086 79 q 1069 16 1086 33 q 1029 0 1053 0 l 622 0 z "},"":{"ha":745,"x_min":68,"x_max":677,"o":"m 677 712 q 661 673 677 689 q 622 656 645 656 q 582 673 599 656 q 566 712 566 689 q 509 848 566 792 q 373 905 453 905 q 236 848 293 905 q 180 712 180 792 l 180 304 q 236 168 180 224 q 373 111 293 111 q 509 168 453 111 q 566 304 566 224 q 582 344 566 328 q 622 361 599 361 q 661 344 645 361 q 677 304 677 328 q 588 89 677 178 q 373 0 499 0 q 157 89 246 0 q 68 304 68 178 l 68 712 q 157 928 68 838 q 373 1017 246 1017 q 588 928 499 1017 q 677 712 677 838 m 410 113 q 410 113 410 113 q 410 113 409 113 m 424 -130 l 351 -281 q 319 -310 341 -302 q 277 -308 297 -318 q 248 -276 256 -298 q 250 -233 241 -254 l 323 -82 q 355 -54 333 -62 q 397 -56 377 -45 q 426 -87 418 -66 q 424 -130 433 -110 z "},"":{"ha":621,"x_min":68,"x_max":587,"o":"m 531 111 q 570 95 554 111 q 587 56 587 79 q 570 16 587 33 q 531 0 554 0 l 123 0 q 84 16 100 0 q 68 56 68 33 l 68 961 q 84 1000 68 984 q 123 1017 100 1017 l 531 1017 q 570 1000 554 1017 q 587 961 587 984 q 570 922 587 938 q 531 905 554 905 l 180 905 l 180 564 l 486 564 q 526 548 509 564 q 542 508 542 532 q 526 469 542 485 q 486 452 509 452 l 180 452 l 180 111 l 531 111 m 199 1223 q 189 1265 185 1242 q 211 1301 192 1287 q 252 1312 229 1315 q 289 1289 275 1308 l 397 1143 q 407 1101 410 1124 q 385 1065 404 1078 q 343 1055 366 1051 q 307 1077 320 1058 l 199 1223 z "},"":{"ha":621,"x_min":68,"x_max":587,"o":"m 531 111 q 570 95 554 111 q 587 56 587 79 q 570 16 587 33 q 531 0 554 0 l 123 0 q 84 16 100 0 q 68 56 68 33 l 68 961 q 84 1000 68 984 q 123 1017 100 1017 l 531 1017 q 570 1000 554 1017 q 587 961 587 984 q 570 922 587 938 q 531 905 554 905 l 180 905 l 180 564 l 486 564 q 526 548 509 564 q 542 508 542 532 q 526 469 542 485 q 486 452 509 452 l 180 452 l 180 111 l 531 111 m 471 1223 l 363 1077 q 327 1055 350 1058 q 286 1065 304 1051 q 263 1101 267 1078 q 273 1143 260 1124 l 381 1289 q 418 1312 395 1308 q 459 1301 441 1315 q 481 1265 478 1287 q 471 1223 485 1242 z "},"":{"ha":621,"x_min":68,"x_max":587,"o":"m 531 111 q 570 95 554 111 q 587 56 587 79 q 570 16 587 33 q 531 0 554 0 l 123 0 q 84 16 100 0 q 68 56 68 33 l 68 961 q 84 1000 68 984 q 123 1017 100 1017 l 531 1017 q 570 1000 554 1017 q 587 961 587 984 q 570 922 587 938 q 531 905 554 905 l 180 905 l 180 564 l 486 564 q 526 548 509 564 q 542 508 542 532 q 526 469 542 485 q 486 452 509 452 l 180 452 l 180 111 l 531 111 m 473 1130 q 483 1092 486 1113 q 462 1058 479 1070 q 424 1048 445 1045 q 390 1069 403 1052 l 314 1160 l 237 1069 q 203 1048 224 1052 q 165 1058 182 1045 q 144 1092 147 1070 q 153 1130 141 1113 l 271 1270 q 315 1292 286 1292 q 355 1272 339 1292 l 473 1130 z "},"":{"ha":621,"x_min":68,"x_max":587,"o":"m 531 111 q 570 95 554 111 q 587 56 587 79 q 570 16 587 33 q 531 0 554 0 l 123 0 q 84 16 100 0 q 68 56 68 33 l 68 961 q 84 1000 68 984 q 123 1017 100 1017 l 531 1017 q 570 1000 554 1017 q 587 961 587 984 q 570 922 587 938 q 531 905 554 905 l 180 905 l 180 564 l 486 564 q 526 548 509 564 q 542 508 542 532 q 526 469 542 485 q 486 452 509 452 l 180 452 l 180 111 l 531 111 m 205 1231 q 249 1213 231 1231 q 267 1169 267 1195 q 249 1125 267 1143 q 205 1107 231 1107 q 161 1125 179 1107 q 142 1169 142 1143 q 161 1213 142 1195 q 205 1231 179 1231 m 452 1231 q 495 1213 477 1231 q 513 1169 513 1195 q 495 1125 513 1143 q 452 1107 477 1107 q 408 1125 426 1107 q 389 1169 389 1143 q 408 1213 389 1195 q 452 1231 426 1231 z "},"":{"ha":288,"x_min":2,"x_max":227,"o":"m 200 56 q 184 16 200 33 q 144 0 168 0 q 104 16 121 0 q 88 56 88 33 l 88 961 q 104 1000 88 984 q 144 1017 121 1017 q 184 1000 168 1017 q 200 961 200 984 l 200 56 m 16 1223 q 5 1265 2 1242 q 28 1301 9 1287 q 69 1312 46 1315 q 106 1289 92 1308 l 214 1143 q 224 1101 227 1124 q 201 1065 220 1078 q 160 1055 183 1051 q 123 1077 137 1058 l 16 1223 z "},"":{"ha":288,"x_min":77,"x_max":302,"o":"m 200 56 q 184 16 200 33 q 144 0 168 0 q 104 16 121 0 q 88 56 88 33 l 88 961 q 104 1000 88 984 q 144 1017 121 1017 q 184 1000 168 1017 q 200 961 200 984 l 200 56 m 288 1223 l 180 1077 q 144 1055 167 1058 q 102 1065 121 1051 q 80 1101 83 1078 q 90 1143 77 1124 l 198 1289 q 235 1312 212 1308 q 276 1301 258 1315 q 298 1265 295 1287 q 288 1223 302 1242 z "},"":{"ha":288,"x_min":-43,"x_max":302,"o":"m 200 56 q 184 16 200 33 q 144 0 168 0 q 104 16 121 0 q 88 56 88 33 l 88 961 q 104 1000 88 984 q 144 1017 121 1017 q 184 1000 168 1017 q 200 961 200 984 l 200 56 m 290 1130 q 299 1092 302 1113 q 278 1058 296 1070 q 240 1048 261 1045 q 206 1069 219 1052 l 130 1160 l 53 1069 q 19 1048 41 1052 q -19 1058 -2 1045 q -39 1092 -37 1070 q -31 1130 -43 1113 l 87 1270 q 131 1292 102 1292 q 171 1272 155 1292 l 290 1130 z "},"":{"ha":288,"x_min":-41,"x_max":330,"o":"m 200 56 q 184 16 200 33 q 144 0 168 0 q 104 16 121 0 q 88 56 88 33 l 88 961 q 104 1000 88 984 q 144 1017 121 1017 q 184 1000 168 1017 q 200 961 200 984 l 200 56 m 21 1231 q 65 1213 47 1231 q 83 1169 83 1195 q 65 1125 83 1143 q 21 1107 47 1107 q -23 1125 -5 1107 q -41 1169 -41 1143 q -23 1213 -41 1195 q 21 1231 -5 1231 m 268 1231 q 312 1213 294 1231 q 330 1169 330 1195 q 312 1125 330 1143 q 268 1107 294 1107 q 224 1125 242 1107 q 205 1169 205 1143 q 224 1213 205 1195 q 268 1231 242 1231 z "},"":{"ha":820,"x_min":7,"x_max":752,"o":"m 254 452 l 254 111 l 425 111 q 577 175 513 111 q 640 327 640 238 l 640 689 q 577 842 640 779 q 425 905 513 905 l 254 905 l 254 564 l 446 564 q 486 548 470 564 q 503 509 503 532 q 486 469 503 486 q 446 452 470 452 l 254 452 m 142 564 l 142 961 q 159 1000 142 984 q 198 1017 175 1017 l 425 1017 q 656 921 560 1017 q 752 689 752 825 l 752 327 q 656 96 752 192 q 425 0 560 0 l 198 0 q 159 16 175 0 q 142 56 142 33 l 142 452 l 62 452 q 23 469 39 452 q 7 509 7 486 q 23 548 7 532 q 62 564 39 564 l 142 564 z "},"":{"ha":790,"x_min":68,"x_max":722,"o":"m 610 960 q 627 1000 610 983 q 667 1016 643 1016 q 706 1000 690 1016 q 722 960 722 983 l 722 124 q 696 48 722 81 q 629 4 671 15 q 546 10 585 -7 q 485 77 501 30 l 202 895 q 193 905 199 905 q 182 901 185 905 q 180 892 180 897 l 180 56 q 163 16 180 33 q 123 0 146 0 q 84 16 100 0 q 68 56 68 33 l 68 892 q 94 968 68 935 q 161 1013 119 1002 q 244 1006 204 1023 q 304 943 288 987 l 588 119 q 602 112 592 110 q 610 124 610 114 l 610 960 m 296 1124 q 276 1093 292 1103 q 250 1084 263 1084 q 239 1086 244 1084 q 208 1107 219 1090 q 199 1133 199 1118 q 201 1143 199 1138 q 245 1224 211 1196 q 310 1249 273 1249 q 334 1246 321 1249 q 422 1204 372 1240 q 475 1177 456 1177 q 483 1179 479 1177 q 494 1204 490 1184 l 494 1205 q 515 1236 498 1224 q 541 1244 528 1244 q 552 1242 547 1244 q 583 1221 572 1238 q 591 1195 591 1209 q 590 1184 591 1190 l 590 1183 q 537 1097 578 1124 q 478 1080 511 1080 q 450 1083 467 1080 q 366 1124 414 1090 q 319 1145 335 1145 l 317 1145 q 296 1124 300 1143 z "},"":{"ha":745,"x_min":68,"x_max":677,"o":"m 373 1017 q 588 927 498 1017 q 677 712 677 838 l 677 304 q 588 90 677 179 q 373 0 498 0 q 157 90 247 0 q 68 304 68 179 l 68 712 q 157 927 68 838 q 373 1017 247 1017 m 509 848 q 373 905 452 905 q 237 848 293 905 q 180 712 180 791 l 180 304 q 237 168 180 225 q 373 111 293 111 q 509 168 452 111 q 566 304 566 225 l 566 712 q 509 848 566 791 m 244 1223 q 234 1265 231 1242 q 256 1301 237 1287 q 298 1312 275 1315 q 334 1289 321 1308 l 442 1143 q 452 1101 456 1124 q 430 1065 449 1078 q 389 1055 412 1051 q 352 1077 366 1058 l 244 1223 z "},"":{"ha":745,"x_min":68,"x_max":677,"o":"m 373 1017 q 588 927 498 1017 q 677 712 677 838 l 677 304 q 588 90 677 179 q 373 0 498 0 q 157 90 247 0 q 68 304 68 179 l 68 712 q 157 927 68 838 q 373 1017 247 1017 m 509 848 q 373 905 452 905 q 237 848 293 905 q 180 712 180 791 l 180 304 q 237 168 180 225 q 373 111 293 111 q 509 168 452 111 q 566 304 566 225 l 566 712 q 509 848 566 791 m 517 1223 l 409 1077 q 372 1055 395 1058 q 331 1065 349 1051 q 309 1101 312 1078 q 319 1143 305 1124 l 427 1289 q 463 1312 440 1308 q 505 1301 486 1315 q 527 1265 524 1287 q 517 1223 530 1242 z "},"":{"ha":745,"x_min":68,"x_max":677,"o":"m 373 1017 q 588 927 498 1017 q 677 712 677 838 l 677 304 q 588 90 677 179 q 373 0 498 0 q 157 90 247 0 q 68 304 68 179 l 68 712 q 157 927 68 838 q 373 1017 247 1017 m 509 848 q 373 905 452 905 q 237 848 293 905 q 180 712 180 791 l 180 304 q 237 168 180 225 q 373 111 293 111 q 509 168 452 111 q 566 304 566 225 l 566 712 q 509 848 566 791 m 518 1130 q 528 1092 530 1113 q 507 1058 524 1070 q 469 1048 490 1045 q 435 1069 448 1052 l 359 1160 l 281 1069 q 248 1048 269 1052 q 210 1058 227 1045 q 189 1092 192 1070 q 198 1130 186 1113 l 316 1270 q 359 1292 331 1292 q 399 1272 384 1292 l 518 1130 z "},"":{"ha":745,"x_min":68,"x_max":677,"o":"m 373 1017 q 588 927 498 1017 q 677 712 677 838 l 677 304 q 588 90 677 179 q 373 0 498 0 q 157 90 247 0 q 68 304 68 179 l 68 712 q 157 927 68 838 q 373 1017 247 1017 m 509 848 q 373 905 452 905 q 237 848 293 905 q 180 712 180 791 l 180 304 q 237 168 180 225 q 373 111 293 111 q 509 168 452 111 q 566 304 566 225 l 566 712 q 509 848 566 791 m 274 1124 q 254 1093 270 1103 q 227 1084 241 1084 q 216 1086 222 1084 q 185 1107 197 1090 q 177 1133 177 1118 q 178 1143 177 1138 q 222 1224 189 1196 q 288 1249 251 1249 q 312 1246 299 1249 q 399 1204 349 1240 q 452 1177 433 1177 q 460 1179 457 1177 q 472 1204 468 1184 l 472 1205 q 493 1236 476 1224 q 519 1244 505 1244 q 530 1242 524 1244 q 561 1221 549 1238 q 569 1195 569 1209 q 568 1184 569 1190 l 568 1183 q 515 1097 555 1124 q 456 1080 489 1080 q 428 1083 444 1080 q 344 1124 392 1090 q 296 1145 313 1145 l 294 1145 q 274 1124 278 1143 z "},"":{"ha":745,"x_min":68,"x_max":677,"o":"m 373 1017 q 588 927 498 1017 q 677 712 677 838 l 677 304 q 588 90 677 179 q 373 0 498 0 q 157 90 247 0 q 68 304 68 179 l 68 712 q 157 927 68 838 q 373 1017 247 1017 m 509 848 q 373 905 452 905 q 237 848 293 905 q 180 712 180 791 l 180 304 q 237 168 180 225 q 373 111 293 111 q 509 168 452 111 q 566 304 566 225 l 566 712 q 509 848 566 791 m 250 1231 q 293 1213 275 1231 q 311 1169 311 1195 q 293 1125 311 1143 q 250 1107 275 1107 q 205 1125 224 1107 q 187 1169 187 1143 q 205 1213 187 1195 q 250 1231 224 1231 m 496 1231 q 540 1213 522 1231 q 558 1169 558 1195 q 540 1125 558 1143 q 496 1107 522 1107 q 452 1125 471 1107 q 434 1169 434 1143 q 452 1213 434 1195 q 496 1231 471 1231 z "},"":{"ha":665,"x_min":68,"x_max":597,"o":"m 163 238 q 123 222 147 222 q 84 238 100 222 q 68 277 68 254 q 84 317 68 300 l 254 486 l 84 656 q 68 695 68 672 q 84 734 68 718 q 124 751 100 751 q 163 734 147 751 l 332 566 l 501 734 q 541 751 517 751 q 580 734 564 751 q 596 695 596 718 q 581 655 597 671 l 412 486 l 581 317 q 597 278 597 301 q 580 238 596 254 q 541 222 564 222 q 501 238 517 222 l 332 407 l 163 238 z "},"":{"ha":745,"x_min":68,"x_max":677,"o":"m 432 897 q 373 905 404 905 q 237 848 293 905 q 180 712 180 791 l 180 304 q 235 170 180 227 l 432 897 m 313 120 q 373 111 341 111 q 509 168 452 111 q 566 304 566 225 l 566 712 q 511 847 566 791 l 313 120 m 543 965 q 588 927 566 949 q 677 712 677 838 l 677 304 q 588 90 677 179 q 373 0 498 0 q 284 12 326 0 l 278 -11 q 258 -37 273 -28 q 224 -41 241 -47 q 197 -21 206 -37 q 193 12 189 -5 l 203 51 q 157 90 179 68 q 68 304 68 179 l 68 712 q 157 927 68 838 q 373 1017 247 1017 q 461 1004 420 1017 l 467 1027 q 488 1053 472 1044 q 522 1058 504 1063 q 548 1037 539 1053 q 553 1004 557 1021 l 543 965 z "},"":{"ha":745,"x_min":68,"x_max":677,"o":"m 566 961 q 582 1000 566 984 q 622 1017 599 1017 q 661 1000 645 1017 q 677 961 677 984 l 677 304 q 588 90 677 179 q 373 0 498 0 q 157 90 247 0 q 68 304 68 179 l 68 961 q 84 1000 68 984 q 123 1017 100 1017 q 163 1000 147 1017 q 180 961 180 984 l 180 304 q 237 168 180 225 q 373 111 293 111 q 509 168 452 111 q 566 304 566 225 l 566 961 m 244 1223 q 234 1265 231 1242 q 256 1301 237 1287 q 298 1312 275 1315 q 334 1289 321 1308 l 442 1143 q 452 1101 456 1124 q 430 1065 449 1078 q 389 1055 412 1051 q 352 1077 366 1058 l 244 1223 z "},"":{"ha":745,"x_min":68,"x_max":677,"o":"m 566 961 q 582 1000 566 984 q 622 1017 599 1017 q 661 1000 645 1017 q 677 961 677 984 l 677 304 q 588 90 677 179 q 373 0 498 0 q 157 90 247 0 q 68 304 68 179 l 68 961 q 84 1000 68 984 q 123 1017 100 1017 q 163 1000 147 1017 q 180 961 180 984 l 180 304 q 237 168 180 225 q 373 111 293 111 q 509 168 452 111 q 566 304 566 225 l 566 961 m 517 1223 l 409 1077 q 372 1055 395 1058 q 331 1065 349 1051 q 309 1101 312 1078 q 319 1143 305 1124 l 427 1289 q 463 1312 440 1308 q 505 1301 486 1315 q 527 1265 524 1287 q 517 1223 530 1242 z "},"":{"ha":745,"x_min":68,"x_max":677,"o":"m 566 961 q 582 1000 566 984 q 622 1017 599 1017 q 661 1000 645 1017 q 677 961 677 984 l 677 304 q 588 90 677 179 q 373 0 498 0 q 157 90 247 0 q 68 304 68 179 l 68 961 q 84 1000 68 984 q 123 1017 100 1017 q 163 1000 147 1017 q 180 961 180 984 l 180 304 q 237 168 180 225 q 373 111 293 111 q 509 168 452 111 q 566 304 566 225 l 566 961 m 532 1130 q 542 1092 545 1113 q 521 1058 538 1070 q 483 1048 504 1045 q 449 1069 462 1052 l 373 1160 l 296 1069 q 262 1048 283 1052 q 224 1058 241 1045 q 203 1092 206 1070 q 212 1130 200 1113 l 330 1270 q 374 1292 345 1292 q 414 1272 398 1292 l 532 1130 z "},"":{"ha":745,"x_min":68,"x_max":677,"o":"m 566 961 q 582 1000 566 984 q 622 1017 599 1017 q 661 1000 645 1017 q 677 961 677 984 l 677 304 q 588 90 677 179 q 373 0 498 0 q 157 90 247 0 q 68 304 68 179 l 68 961 q 84 1000 68 984 q 123 1017 100 1017 q 163 1000 147 1017 q 180 961 180 984 l 180 304 q 237 168 180 225 q 373 111 293 111 q 509 168 452 111 q 566 304 566 225 l 566 961 m 250 1231 q 293 1213 275 1231 q 311 1169 311 1195 q 293 1125 311 1143 q 250 1107 275 1107 q 205 1125 224 1107 q 187 1169 187 1143 q 205 1213 187 1195 q 250 1231 224 1231 m 496 1231 q 540 1213 522 1231 q 558 1169 558 1195 q 540 1125 558 1143 q 496 1107 522 1107 q 452 1125 471 1107 q 434 1169 434 1143 q 452 1213 434 1195 q 496 1231 471 1231 z "},"":{"ha":632,"x_min":7,"x_max":625,"o":"m 15 941 q 16 983 7 962 q 47 1013 26 1004 q 90 1011 69 1021 q 119 981 111 1002 l 258 616 q 287 572 271 583 q 316 564 298 564 q 345 572 334 564 q 374 616 362 584 l 513 981 q 542 1011 521 1002 q 585 1013 563 1021 q 616 983 606 1004 q 617 941 625 962 l 479 576 q 410 481 454 513 q 372 462 392 469 l 372 56 q 355 16 372 33 q 316 0 339 0 q 277 16 293 0 q 260 56 260 33 l 260 461 q 223 480 241 468 q 153 576 178 511 l 15 941 m 467 1194 l 359 1048 q 322 1025 345 1029 q 281 1036 299 1022 q 258 1072 262 1049 q 269 1114 255 1095 l 376 1260 q 413 1282 390 1278 q 454 1272 436 1286 q 477 1236 473 1258 q 467 1194 480 1213 z "},"":{"ha":694,"x_min":68,"x_max":677,"o":"m 180 800 l 395 800 q 595 718 512 800 q 677 517 677 635 q 595 318 677 401 q 395 235 512 235 l 180 235 l 180 56 q 163 16 180 33 q 123 0 147 0 q 84 16 100 0 q 68 56 68 33 l 68 961 q 84 1000 68 984 q 123 1017 100 1017 q 163 1000 147 1017 q 180 961 180 984 l 180 800 m 180 347 l 395 347 q 516 397 466 347 q 566 517 566 447 q 516 638 566 588 q 395 688 466 688 l 180 688 l 180 347 z "},"":{"ha":795,"x_min":68,"x_max":728,"o":"m 183 55 q 167 16 183 32 q 127 -1 150 -1 q 87 16 104 -1 q 71 55 71 32 l 71 709 q 102 876 68 800 q 334 1016 166 1016 q 514 970 446 1016 q 572 909 552 945 q 592 827 592 871 q 540 677 592 755 q 490 594 503 621 q 482 560 480 572 q 572 467 486 532 q 718 296 697 372 q 725 256 722 277 q 728 210 728 234 q 637 45 728 106 q 521 2 586 10 q 393 14 455 -7 q 215 200 260 58 q 218 242 208 222 q 251 270 229 263 q 294 267 273 277 q 321 234 314 256 q 428 119 349 146 q 507 113 466 107 q 574 137 545 117 q 616 210 616 165 q 614 243 616 229 q 610 267 612 256 q 505 379 599 307 q 372 544 382 471 q 389 640 365 587 q 447 739 405 675 q 481 827 481 789 q 474 855 481 843 q 452 878 467 868 q 334 905 413 905 q 201 819 237 905 q 182 714 180 771 q 183 707 183 711 l 183 55 z "},"":{"ha":686,"x_min":47,"x_max":618,"o":"m 506 79 q 374 5 454 21 q 224 19 298 -9 q 99 114 146 48 q 47 283 47 186 q 99 452 47 380 q 224 546 146 517 q 374 560 298 575 q 506 486 454 545 l 506 509 q 523 549 506 532 q 562 565 539 565 q 602 549 585 565 q 618 509 618 532 l 618 56 q 602 17 618 33 q 562 1 585 1 q 523 17 539 1 q 506 56 506 33 l 506 79 m 456 405 q 334 455 405 455 q 212 405 262 455 q 161 283 161 354 q 212 161 161 211 q 334 110 262 110 q 456 161 405 110 q 506 283 506 211 q 456 405 506 354 m 204 771 q 194 812 191 789 q 216 849 197 835 q 258 859 235 863 q 294 837 281 855 l 402 690 q 412 649 416 672 q 390 612 409 626 q 349 602 372 599 q 312 625 326 606 l 204 771 z "},"":{"ha":686,"x_min":47,"x_max":618,"o":"m 506 79 q 374 5 454 21 q 224 19 298 -9 q 99 114 146 48 q 47 283 47 186 q 99 452 47 380 q 224 546 146 517 q 374 560 298 575 q 506 486 454 545 l 506 509 q 523 549 506 532 q 562 565 539 565 q 602 549 585 565 q 618 509 618 532 l 618 56 q 602 17 618 33 q 562 1 585 1 q 523 17 539 1 q 506 56 506 33 l 506 79 m 456 405 q 334 455 405 455 q 212 405 262 455 q 161 283 161 354 q 212 161 161 211 q 334 110 262 110 q 456 161 405 110 q 506 283 506 211 q 456 405 506 354 m 477 771 l 369 625 q 332 602 355 606 q 291 612 309 599 q 269 649 272 626 q 279 690 265 672 l 387 837 q 423 859 400 855 q 465 849 446 863 q 487 812 484 835 q 477 771 490 789 z "},"":{"ha":686,"x_min":47,"x_max":618,"o":"m 506 79 q 374 5 454 21 q 224 19 298 -9 q 99 114 146 48 q 47 283 47 186 q 99 452 47 380 q 224 546 146 517 q 374 560 298 575 q 506 486 454 545 l 506 509 q 523 549 506 532 q 562 565 539 565 q 602 549 585 565 q 618 509 618 532 l 618 56 q 602 17 618 33 q 562 1 585 1 q 523 17 539 1 q 506 56 506 33 l 506 79 m 456 405 q 334 455 405 455 q 212 405 262 455 q 161 283 161 354 q 212 161 161 211 q 334 110 262 110 q 456 161 405 110 q 506 283 506 211 q 456 405 506 354 m 478 677 q 488 640 490 661 q 467 606 484 618 q 429 596 450 593 q 395 616 408 600 l 319 708 l 241 616 q 208 596 229 600 q 170 606 186 593 q 149 640 152 618 q 158 677 146 661 l 276 818 q 319 840 291 840 q 359 819 344 840 l 478 677 z "},"":{"ha":686,"x_min":47,"x_max":618,"o":"m 506 79 q 374 5 454 21 q 224 19 298 -9 q 99 114 146 48 q 47 283 47 186 q 99 452 47 380 q 224 546 146 517 q 374 560 298 575 q 506 486 454 545 l 506 509 q 523 549 506 532 q 562 565 539 565 q 602 549 585 565 q 618 509 618 532 l 618 56 q 602 17 618 33 q 562 1 585 1 q 523 17 539 1 q 506 56 506 33 l 506 79 m 456 405 q 334 455 405 455 q 212 405 262 455 q 161 283 161 354 q 212 161 161 211 q 334 110 262 110 q 456 161 405 110 q 506 283 506 211 q 456 405 506 354 m 234 671 q 214 640 230 651 q 187 632 201 632 q 176 633 182 632 q 145 654 157 637 q 137 680 137 666 q 138 691 137 686 q 182 772 149 744 q 248 797 211 797 q 272 794 259 797 q 359 752 309 787 q 412 725 393 725 q 420 726 417 725 q 432 752 428 732 l 432 753 q 453 783 436 772 q 479 791 465 791 q 490 790 484 791 q 521 769 509 786 q 529 743 529 757 q 528 732 529 737 l 528 731 q 475 645 515 672 q 416 628 449 628 q 388 631 404 628 q 304 671 352 637 q 256 693 273 693 l 254 693 q 234 671 238 691 z "},"":{"ha":686,"x_min":47,"x_max":618,"o":"m 506 79 q 374 5 454 21 q 224 19 298 -9 q 99 114 146 48 q 47 283 47 186 q 99 452 47 380 q 224 546 146 517 q 374 560 298 575 q 506 486 454 545 l 506 509 q 523 549 506 532 q 562 565 539 565 q 602 549 585 565 q 618 509 618 532 l 618 56 q 602 17 618 33 q 562 1 585 1 q 523 17 539 1 q 506 56 506 33 l 506 79 m 456 405 q 334 455 405 455 q 212 405 262 455 q 161 283 161 354 q 212 161 161 211 q 334 110 262 110 q 456 161 405 110 q 506 283 506 211 q 456 405 506 354 m 210 779 q 253 761 235 779 q 271 717 271 743 q 253 673 271 691 q 210 655 235 655 q 165 673 184 655 q 147 717 147 691 q 165 761 147 743 q 210 779 184 779 m 456 779 q 500 761 482 779 q 518 717 518 743 q 500 673 518 691 q 456 655 482 655 q 412 673 431 655 q 394 717 394 691 q 412 761 394 743 q 456 779 431 779 z "},"":{"ha":686,"x_min":47,"x_max":618,"o":"m 506 79 q 374 5 454 21 q 224 19 298 -9 q 99 114 146 48 q 47 283 47 186 q 99 452 47 380 q 224 546 146 517 q 374 560 298 575 q 506 486 454 545 l 506 509 q 523 549 506 532 q 562 565 539 565 q 602 549 585 565 q 618 509 618 532 l 618 56 q 602 17 618 33 q 562 1 585 1 q 523 17 539 1 q 506 56 506 33 l 506 79 m 456 405 q 334 455 405 455 q 212 405 262 455 q 161 283 161 354 q 212 161 161 211 q 334 110 262 110 q 456 161 405 110 q 506 283 506 211 q 456 405 506 354 m 325 827 q 418 789 379 827 q 456 696 456 751 q 418 604 456 642 q 325 566 379 566 q 232 604 271 566 q 194 696 194 642 q 232 789 194 751 q 325 827 271 827 m 366 737 q 325 754 349 754 q 284 737 301 754 q 268 696 268 720 q 284 656 268 673 q 325 640 301 640 q 366 656 349 640 q 382 696 382 673 q 366 737 382 720 z "},"":{"ha":1101,"x_min":47,"x_max":1070,"o":"m 334 455 q 212 405 262 455 q 161 283 161 354 q 212 161 161 211 q 334 110 262 110 q 456 161 405 110 q 506 283 506 211 q 456 405 506 354 q 334 455 405 455 m 627 330 l 949 330 q 909 403 943 369 q 788 453 859 453 q 667 403 718 453 q 627 330 633 369 m 618 59 l 618 56 q 602 17 618 33 q 562 1 585 1 q 523 17 539 1 q 506 56 506 33 l 506 79 q 374 5 454 21 q 224 19 298 -9 q 99 114 146 48 q 47 283 47 186 q 99 452 47 380 q 224 546 146 517 q 374 560 298 575 q 506 486 454 545 l 506 509 q 523 549 506 532 q 562 565 539 565 q 602 549 585 565 q 618 509 618 532 l 618 508 q 788 565 691 565 q 987 482 905 565 q 1070 283 1070 399 q 1054 245 1070 260 q 1015 231 1038 231 l 627 231 q 659 172 630 203 q 723 127 684 143 q 803 112 760 112 q 926 157 877 112 q 966 171 943 172 q 1004 153 989 170 q 1019 113 1020 136 q 1001 75 1018 90 q 803 0 920 0 q 680 24 739 0 q 618 59 646 39 z "},"":{"ha":637,"x_min":68,"x_max":569,"o":"m 473 163 q 512 180 489 180 q 552 165 535 181 q 569 126 568 149 q 553 86 569 103 q 460 22 513 45 q 350 0 408 0 q 151 82 233 0 q 68 282 68 165 q 151 481 68 399 q 350 564 233 564 q 460 542 408 564 q 553 477 513 519 q 569 438 569 461 q 552 399 568 415 q 512 383 535 382 q 473 400 489 384 q 416 439 449 425 q 350 452 385 452 q 229 402 279 452 q 180 282 180 353 q 229 161 180 212 q 350 111 279 111 q 416 125 385 111 q 473 163 449 138 m 391 113 q 391 113 391 113 q 391 113 391 113 m 405 -130 l 353 -245 q 321 -273 344 -266 q 279 -271 300 -281 q 250 -239 258 -261 q 253 -197 243 -217 l 304 -82 q 336 -54 314 -62 q 378 -56 358 -45 q 408 -87 400 -66 q 405 -130 415 -110 z "},"":{"ha":659,"x_min":47,"x_max":612,"o":"m 467 157 q 507 171 485 172 q 546 153 530 170 q 561 113 562 136 q 543 75 559 90 q 345 0 461 0 q 222 24 281 0 q 118 96 161 50 q 47 283 47 174 q 130 482 47 399 q 330 565 213 565 q 529 482 447 565 q 612 283 612 399 q 595 245 612 260 q 556 231 580 231 l 168 231 q 200 172 172 203 q 264 127 226 143 q 345 112 302 112 q 467 157 418 112 m 209 403 q 169 330 175 369 l 491 330 q 450 403 484 369 q 330 453 400 453 q 209 403 259 453 m 201 771 q 191 812 187 789 q 213 849 194 835 q 254 859 231 863 q 291 837 277 855 l 399 690 q 409 649 412 672 q 387 612 406 626 q 345 602 368 599 q 309 625 322 606 l 201 771 z "},"":{"ha":659,"x_min":47,"x_max":612,"o":"m 467 157 q 507 171 485 172 q 546 153 530 170 q 561 113 562 136 q 543 75 559 90 q 345 0 461 0 q 222 24 281 0 q 118 96 161 50 q 47 283 47 174 q 130 482 47 399 q 330 565 213 565 q 529 482 447 565 q 612 283 612 399 q 595 245 612 260 q 556 231 580 231 l 168 231 q 200 172 172 203 q 264 127 226 143 q 345 112 302 112 q 467 157 418 112 m 209 403 q 169 330 175 369 l 491 330 q 450 403 484 369 q 330 453 400 453 q 209 403 259 453 m 473 771 l 366 625 q 329 602 352 606 q 288 612 306 599 q 265 649 269 626 q 275 690 262 672 l 383 837 q 420 859 397 855 q 461 849 443 863 q 484 812 480 835 q 473 771 487 789 z "},"":{"ha":659,"x_min":47,"x_max":612,"o":"m 467 157 q 507 171 485 172 q 546 153 530 170 q 561 113 562 136 q 543 75 559 90 q 345 0 461 0 q 222 24 281 0 q 118 96 161 50 q 47 283 47 174 q 130 482 47 399 q 330 565 213 565 q 529 482 447 565 q 612 283 612 399 q 595 245 612 260 q 556 231 580 231 l 168 231 q 200 172 172 203 q 264 127 226 143 q 345 112 302 112 q 467 157 418 112 m 209 403 q 169 330 175 369 l 491 330 q 450 403 484 369 q 330 453 400 453 q 209 403 259 453 m 475 677 q 485 640 488 661 q 464 606 481 618 q 426 596 447 593 q 392 616 405 600 l 316 708 l 239 616 q 205 596 227 600 q 167 606 184 593 q 146 640 149 618 q 155 677 143 661 l 273 818 q 317 840 288 840 q 357 819 341 840 l 475 677 z "},"":{"ha":659,"x_min":47,"x_max":612,"o":"m 467 157 q 507 171 485 172 q 546 153 530 170 q 561 113 562 136 q 543 75 559 90 q 345 0 461 0 q 222 24 281 0 q 118 96 161 50 q 47 283 47 174 q 130 482 47 399 q 330 565 213 565 q 529 482 447 565 q 612 283 612 399 q 595 245 612 260 q 556 231 580 231 l 168 231 q 200 172 172 203 q 264 127 226 143 q 345 112 302 112 q 467 157 418 112 m 209 403 q 169 330 175 369 l 491 330 q 450 403 484 369 q 330 453 400 453 q 209 403 259 453 m 207 779 q 251 761 233 779 q 269 717 269 743 q 251 673 269 691 q 207 655 233 655 q 163 673 181 655 q 144 717 144 691 q 163 761 144 743 q 207 779 181 779 m 454 779 q 497 761 479 779 q 515 717 515 743 q 497 673 515 691 q 454 655 479 655 q 410 673 428 655 q 391 717 391 691 q 410 761 391 743 q 454 779 428 779 z "},"":{"ha":248,"x_min":-18,"x_max":207,"o":"m 68 508 q 84 548 68 532 q 123 564 100 564 q 163 548 147 564 q 180 508 180 532 l 180 56 q 163 16 180 33 q 123 0 147 0 q 84 16 100 0 q 68 56 68 33 l 68 508 m -5 771 q -15 812 -18 789 q 7 849 -12 835 q 49 859 26 863 q 85 837 72 855 l 193 690 q 203 649 207 672 q 181 612 200 626 q 140 602 163 599 q 103 625 117 606 l -5 771 z "},"":{"ha":248,"x_min":56,"x_max":281,"o":"m 68 508 q 84 548 68 532 q 123 564 100 564 q 163 548 147 564 q 180 508 180 532 l 180 56 q 163 16 180 33 q 123 0 147 0 q 84 16 100 0 q 68 56 68 33 l 68 508 m 268 771 l 160 625 q 123 602 146 606 q 82 612 100 599 q 60 649 63 626 q 70 690 56 672 l 178 837 q 214 859 191 855 q 256 849 237 863 q 278 812 275 835 q 268 771 281 789 z "},"":{"ha":248,"x_min":-63,"x_max":281,"o":"m 68 508 q 84 548 68 532 q 123 564 100 564 q 163 548 147 564 q 180 508 180 532 l 180 56 q 163 16 180 33 q 123 0 147 0 q 84 16 100 0 q 68 56 68 33 l 68 508 m 269 677 q 279 640 281 661 q 258 606 275 618 q 220 596 241 593 q 186 616 199 600 l 110 708 l 33 616 q -1 596 20 600 q -39 606 -22 593 q -60 640 -57 618 q -51 677 -63 661 l 67 818 q 111 840 82 840 q 151 819 135 840 l 269 677 z "},"":{"ha":248,"x_min":-62,"x_max":309,"o":"m 68 508 q 84 548 68 532 q 123 564 100 564 q 163 548 147 564 q 180 508 180 532 l 180 56 q 163 16 180 33 q 123 0 147 0 q 84 16 100 0 q 68 56 68 33 l 68 508 m 1 779 q 44 761 26 779 q 62 717 62 743 q 44 673 62 691 q 1 655 26 655 q -43 673 -25 655 q -62 717 -62 691 q -43 761 -62 743 q 1 779 -25 779 m 248 779 q 291 761 273 779 q 309 717 309 743 q 291 673 309 691 q 248 655 273 655 q 203 673 222 655 q 185 717 185 691 q 203 761 185 743 q 248 779 222 779 z "},"":{"ha":798,"x_min":68,"x_max":730,"o":"m 727 350 q 727 335 727 342 q 631 98 727 197 q 397 0 534 0 q 164 98 261 0 q 68 335 68 197 q 164 572 68 473 q 397 670 261 670 q 541 637 473 670 q 369 842 463 794 l 314 783 q 275 764 298 765 q 235 779 252 763 q 217 817 218 794 q 231 857 216 840 l 262 891 q 207 906 235 900 q 172 930 184 911 q 164 972 159 949 q 188 1007 169 994 q 230 1015 208 1020 q 344 981 290 1002 l 384 1024 q 422 1042 399 1041 q 463 1028 446 1044 q 481 989 479 1013 q 467 949 481 966 l 446 927 q 703 540 611 817 q 727 351 730 437 l 727 350 m 395 542 q 248 481 309 542 q 186 333 186 420 q 248 185 186 247 q 395 124 309 124 q 543 185 481 124 q 604 333 604 247 q 543 481 604 420 q 395 542 481 542 z "},"":{"ha":677,"x_min":68,"x_max":610,"o":"m 68 508 q 84 548 68 532 q 123 564 100 564 q 163 548 147 564 q 180 508 180 532 l 180 482 q 304 557 229 539 q 446 549 376 574 q 562 458 518 523 q 610 286 610 387 l 610 56 q 593 16 610 33 q 554 0 577 0 q 514 16 530 0 q 498 56 498 33 l 498 286 q 405 440 498 401 q 338 453 374 453 q 273 440 303 453 q 180 286 180 401 l 180 56 q 163 16 180 33 q 123 0 147 0 q 84 16 100 0 q 68 56 68 33 l 68 508 m 240 671 q 220 640 236 651 q 193 632 207 632 q 182 633 188 632 q 151 654 163 637 q 143 680 143 666 q 144 691 143 686 q 189 772 155 744 q 254 797 217 797 q 278 794 265 797 q 366 752 315 787 q 418 725 399 725 q 427 726 423 725 q 438 752 434 732 l 438 753 q 459 783 442 772 q 485 791 471 791 q 496 790 490 791 q 527 769 515 786 q 535 743 535 757 q 534 732 535 737 l 534 731 q 481 645 522 672 q 422 628 455 628 q 394 631 410 628 q 310 671 358 637 q 262 693 279 693 l 260 693 q 240 671 244 691 z "},"":{"ha":659,"x_min":47,"x_max":612,"o":"m 330 452 q 209 402 259 452 q 159 282 159 353 q 209 161 159 212 q 330 111 259 111 q 450 161 400 111 q 500 282 500 212 q 450 402 500 353 q 330 452 400 452 m 130 481 q 330 564 213 564 q 529 481 447 564 q 612 282 612 399 q 529 82 612 165 q 330 0 447 0 q 130 82 213 0 q 47 282 47 165 q 130 481 47 399 m 201 771 q 191 812 187 789 q 213 849 194 835 q 254 859 231 863 q 291 837 277 855 l 399 690 q 409 649 412 672 q 387 612 406 626 q 345 602 368 599 q 309 625 322 606 l 201 771 z "},"":{"ha":659,"x_min":47,"x_max":612,"o":"m 330 452 q 209 402 259 452 q 159 282 159 353 q 209 161 159 212 q 330 111 259 111 q 450 161 400 111 q 500 282 500 212 q 450 402 500 353 q 330 452 400 452 m 130 481 q 330 564 213 564 q 529 481 447 564 q 612 282 612 399 q 529 82 612 165 q 330 0 447 0 q 130 82 213 0 q 47 282 47 165 q 130 481 47 399 m 473 771 l 366 625 q 329 602 352 606 q 288 612 306 599 q 265 649 269 626 q 275 690 262 672 l 383 837 q 420 859 397 855 q 461 849 443 863 q 484 812 480 835 q 473 771 487 789 z "},"":{"ha":659,"x_min":47,"x_max":612,"o":"m 330 452 q 209 402 259 452 q 159 282 159 353 q 209 161 159 212 q 330 111 259 111 q 450 161 400 111 q 500 282 500 212 q 450 402 500 353 q 330 452 400 452 m 130 481 q 330 564 213 564 q 529 481 447 564 q 612 282 612 399 q 529 82 612 165 q 330 0 447 0 q 130 82 213 0 q 47 282 47 165 q 130 481 47 399 m 489 677 q 498 640 501 661 q 477 606 495 618 q 439 596 460 593 q 406 616 418 600 l 330 708 l 252 616 q 218 596 240 600 q 180 606 197 593 q 160 640 163 618 q 169 677 157 661 l 287 818 q 330 840 302 840 q 370 819 355 840 l 489 677 z "},"":{"ha":659,"x_min":47,"x_max":612,"o":"m 330 452 q 209 402 259 452 q 159 282 159 353 q 209 161 159 212 q 330 111 259 111 q 450 161 400 111 q 500 282 500 212 q 450 402 500 353 q 330 452 400 452 m 130 481 q 330 564 213 564 q 529 481 447 564 q 612 282 612 399 q 529 82 612 165 q 330 0 447 0 q 130 82 213 0 q 47 282 47 165 q 130 481 47 399 m 231 671 q 210 640 227 651 q 184 632 197 632 q 173 633 178 632 q 142 654 153 637 q 134 680 134 666 q 135 691 134 686 q 179 772 145 744 q 244 797 208 797 q 269 794 256 797 q 356 752 306 787 q 409 725 390 725 q 417 726 414 725 q 429 752 425 732 l 429 753 q 450 783 433 772 q 475 791 462 791 q 486 790 481 791 q 517 769 506 786 q 526 743 526 757 q 524 732 526 737 l 524 731 q 471 645 512 672 q 412 628 446 628 q 385 631 401 628 q 300 671 349 637 q 253 693 269 693 l 251 693 q 231 671 235 691 z "},"":{"ha":659,"x_min":47,"x_max":612,"o":"m 330 452 q 209 402 259 452 q 159 282 159 353 q 209 161 159 212 q 330 111 259 111 q 450 161 400 111 q 500 282 500 212 q 450 402 500 353 q 330 452 400 452 m 130 481 q 330 564 213 564 q 529 481 447 564 q 612 282 612 399 q 529 82 612 165 q 330 0 447 0 q 130 82 213 0 q 47 282 47 165 q 130 481 47 399 m 207 779 q 251 761 233 779 q 269 717 269 743 q 251 673 269 691 q 207 655 233 655 q 163 673 181 655 q 144 717 144 691 q 163 761 144 743 q 207 779 181 779 m 454 779 q 497 761 479 779 q 515 717 515 743 q 497 673 515 691 q 454 655 479 655 q 410 673 428 655 q 391 717 391 691 q 410 761 391 743 q 454 779 428 779 z "},"":{"ha":564,"x_min":68,"x_max":496,"o":"m 123 339 q 84 356 100 339 q 68 395 68 372 q 84 435 68 418 q 123 451 100 451 l 439 451 q 479 435 463 451 q 496 395 496 418 q 479 356 496 372 q 439 339 463 339 l 123 339 m 282 237 q 326 219 308 237 q 344 175 344 201 q 326 131 344 149 q 282 113 308 113 q 238 131 256 113 q 220 175 220 149 q 238 219 220 201 q 282 237 256 237 m 282 677 q 326 660 308 677 q 344 616 344 642 q 326 572 344 590 q 282 554 308 554 q 238 572 256 554 q 220 616 220 590 q 238 660 220 642 q 282 677 256 677 z "},"":{"ha":659,"x_min":47,"x_max":612,"o":"m 210 25 q 130 82 167 45 q 47 282 47 165 q 130 481 47 399 q 330 564 213 564 q 356 563 343 564 l 397 715 q 418 742 402 733 q 452 747 434 751 q 478 726 469 741 q 483 692 488 710 l 442 542 q 529 481 490 522 q 612 282 612 399 q 529 82 612 165 q 330 0 447 0 q 296 2 312 0 l 245 -186 q 224 -212 240 -203 q 191 -216 208 -222 q 164 -196 173 -212 q 159 -163 155 -180 l 210 25 m 412 431 l 326 111 l 330 111 q 450 161 400 111 q 500 282 500 212 q 450 402 500 353 q 412 431 433 420 m 240 136 l 326 452 q 209 402 258 451 q 159 282 159 353 q 209 161 159 212 q 240 136 224 146 z "},"":{"ha":677,"x_min":68,"x_max":610,"o":"m 610 56 q 593 16 610 33 q 554 0 577 0 q 514 16 530 0 q 498 56 498 33 l 498 81 q 374 7 448 24 q 232 15 302 -10 q 116 105 159 41 q 68 279 68 176 l 68 508 q 84 548 68 532 q 123 564 100 564 q 163 548 147 564 q 180 508 180 532 l 180 279 q 273 124 180 163 q 338 111 303 111 q 405 124 374 111 q 498 277 497 163 l 498 508 q 514 548 498 532 q 554 564 530 564 q 593 548 577 564 q 610 508 610 532 l 610 56 m 210 771 q 200 812 197 789 q 222 849 203 835 q 264 859 241 863 q 300 837 287 855 l 408 690 q 418 649 422 672 q 396 612 415 626 q 355 602 378 599 q 318 625 332 606 l 210 771 z "},"":{"ha":677,"x_min":68,"x_max":610,"o":"m 610 56 q 593 16 610 33 q 554 0 577 0 q 514 16 530 0 q 498 56 498 33 l 498 81 q 374 7 448 24 q 232 15 302 -10 q 116 105 159 41 q 68 279 68 176 l 68 508 q 84 548 68 532 q 123 564 100 564 q 163 548 147 564 q 180 508 180 532 l 180 279 q 273 124 180 163 q 338 111 303 111 q 405 124 374 111 q 498 277 497 163 l 498 508 q 514 548 498 532 q 554 564 530 564 q 593 548 577 564 q 610 508 610 532 l 610 56 m 483 771 l 375 625 q 338 602 361 606 q 297 612 315 599 q 275 649 278 626 q 285 690 271 672 l 393 837 q 429 859 406 855 q 471 849 452 863 q 493 812 490 835 q 483 771 496 789 z "},"":{"ha":677,"x_min":68,"x_max":610,"o":"m 610 56 q 593 16 610 33 q 554 0 577 0 q 514 16 530 0 q 498 56 498 33 l 498 81 q 374 7 448 24 q 232 15 302 -10 q 116 105 159 41 q 68 279 68 176 l 68 508 q 84 548 68 532 q 123 564 100 564 q 163 548 147 564 q 180 508 180 532 l 180 279 q 273 124 180 163 q 338 111 303 111 q 405 124 374 111 q 498 277 497 163 l 498 508 q 514 548 498 532 q 554 564 530 564 q 593 548 577 564 q 610 508 610 532 l 610 56 m 484 677 q 494 640 496 661 q 473 606 490 618 q 435 596 456 593 q 401 616 414 600 l 325 708 l 248 616 q 214 596 235 600 q 176 606 193 593 q 155 640 158 618 q 164 677 152 661 l 282 818 q 326 840 297 840 q 366 819 350 840 l 484 677 z "},"":{"ha":677,"x_min":68,"x_max":610,"o":"m 610 56 q 593 16 610 33 q 554 0 577 0 q 514 16 530 0 q 498 56 498 33 l 498 81 q 374 7 448 24 q 232 15 302 -10 q 116 105 159 41 q 68 279 68 176 l 68 508 q 84 548 68 532 q 123 564 100 564 q 163 548 147 564 q 180 508 180 532 l 180 279 q 273 124 180 163 q 338 111 303 111 q 405 124 374 111 q 498 277 497 163 l 498 508 q 514 548 498 532 q 554 564 530 564 q 593 548 577 564 q 610 508 610 532 l 610 56 m 216 779 q 259 761 241 779 q 277 717 277 743 q 259 673 277 691 q 216 655 241 655 q 172 673 190 655 q 153 717 153 691 q 172 761 153 743 q 216 779 190 779 m 463 779 q 506 761 488 779 q 524 717 524 743 q 506 673 524 691 q 463 655 488 655 q 418 673 437 655 q 400 717 400 691 q 418 761 400 743 q 463 779 437 779 z "},"":{"ha":700,"x_min":125,"x_max":667,"o":"m 555 509 q 572 548 555 532 q 611 564 588 564 q 650 548 634 564 q 667 509 667 532 l 667 -172 q 601 -368 667 -289 q 405 -453 524 -453 q 209 -368 286 -453 q 143 -171 143 -288 q 159 -132 143 -148 q 199 -115 176 -115 q 238 -132 222 -115 q 254 -171 254 -148 q 288 -288 254 -241 q 405 -342 332 -342 q 522 -288 477 -342 q 555 -172 555 -241 l 555 70 q 406 1 507 5 q 244 44 313 -1 q 125 282 125 123 l 125 509 q 141 548 125 532 q 180 564 157 564 q 220 548 204 564 q 237 509 237 532 l 237 282 q 330 125 237 164 q 396 112 361 112 q 462 125 431 112 q 534 182 513 146 q 555 287 554 218 l 555 509 m 494 771 l 386 625 q 349 602 372 606 q 308 612 326 599 q 286 649 289 626 q 296 690 282 672 l 404 837 q 440 859 417 855 q 481 849 463 863 q 504 812 500 835 q 494 771 507 789 z "},"":{"ha":686,"x_min":68,"x_max":638,"o":"m 353 109 q 475 159 424 109 q 525 281 525 210 q 475 404 525 353 q 353 454 424 454 q 230 404 281 454 q 180 281 180 353 q 230 159 180 210 q 353 109 281 109 m 180 -398 q 163 -437 180 -421 q 123 -454 147 -454 q 84 -437 100 -454 q 68 -398 68 -421 l 68 961 q 84 1000 68 984 q 123 1017 100 1017 q 163 1000 147 1017 q 180 961 180 984 l 180 485 q 311 559 231 543 q 463 545 387 574 q 587 450 540 515 q 638 281 638 378 q 587 113 638 184 q 463 18 540 47 q 311 4 387 -11 q 180 78 231 20 l 180 -398 z "},"":{"ha":700,"x_min":125,"x_max":667,"o":"m 555 509 q 572 548 555 532 q 611 564 588 564 q 650 548 634 564 q 667 509 667 532 l 667 -172 q 601 -368 667 -289 q 405 -453 524 -453 q 209 -368 286 -453 q 143 -171 143 -288 q 159 -132 143 -148 q 199 -115 176 -115 q 238 -132 222 -115 q 254 -171 254 -148 q 288 -288 254 -241 q 405 -342 332 -342 q 522 -288 477 -342 q 555 -172 555 -241 l 555 70 q 406 1 507 5 q 244 44 313 -1 q 125 282 125 123 l 125 509 q 141 548 125 532 q 180 564 157 564 q 220 548 204 564 q 237 509 237 532 l 237 282 q 330 125 237 164 q 396 112 361 112 q 462 125 431 112 q 534 182 513 146 q 555 287 554 218 l 555 509 m 227 779 q 271 761 253 779 q 289 717 289 743 q 271 673 289 691 q 227 655 253 655 q 183 673 201 655 q 165 717 165 691 q 183 761 165 743 q 227 779 201 779 m 474 779 q 518 761 500 779 q 536 717 536 743 q 518 673 536 691 q 474 655 500 655 q 430 673 448 655 q 412 717 412 691 q 430 761 412 743 q 474 779 448 779 z "},"":{"ha":248,"x_min":68,"x_max":180,"o":"m 68 508 q 84 548 68 532 q 123 564 100 564 q 163 548 147 564 q 180 508 180 532 l 180 56 q 163 16 180 33 q 123 0 147 0 q 84 16 100 0 q 68 56 68 33 l 68 508 z "},"":{"ha":480,"x_min":68,"x_max":412,"o":"m 400 677 q 410 640 412 661 q 389 606 406 618 q 351 596 372 593 q 317 616 330 600 l 241 708 l 163 616 q 130 596 151 600 q 92 606 109 593 q 71 640 74 618 q 80 677 68 661 l 198 818 q 241 840 213 840 q 281 819 266 840 l 400 677 z "},"":{"ha":480,"x_min":68,"x_max":412,"o":"m 400 751 l 281 609 q 241 589 266 589 q 198 610 213 589 l 80 751 q 71 789 68 768 q 92 823 74 810 q 130 832 109 836 q 163 812 151 829 l 241 720 l 317 812 q 351 832 330 829 q 389 823 372 836 q 410 789 406 810 q 400 751 412 768 z "},"":{"ha":496,"x_min":68,"x_max":428,"o":"m 123 637 q 84 654 100 637 q 68 693 68 670 q 84 732 68 716 q 123 749 100 749 l 372 749 q 412 732 395 749 q 428 693 428 716 q 412 654 428 670 q 372 637 395 637 l 123 637 z "},"":{"ha":512,"x_min":68,"x_max":444,"o":"m 256 612 q 142 646 192 612 q 74 739 90 680 q 79 782 68 762 q 113 808 91 802 q 155 803 135 814 q 181 769 175 791 q 204 739 186 750 q 256 724 226 724 q 308 739 286 724 q 330 769 325 750 q 357 803 336 791 q 399 808 377 814 q 433 782 421 802 q 438 739 444 762 q 370 646 422 681 q 256 612 320 612 z "},"":{"ha":260,"x_min":68,"x_max":192,"o":"m 130 846 q 174 828 156 846 q 192 785 192 810 q 174 741 192 759 q 130 723 156 723 q 86 741 104 723 q 68 785 68 759 q 86 828 68 810 q 130 846 104 846 z "},"":{"ha":398,"x_min":68,"x_max":330,"o":"m 199 827 q 292 789 253 827 q 330 696 330 750 q 292 603 330 642 q 199 565 253 565 q 106 603 144 565 q 68 696 68 642 q 106 789 68 750 q 199 827 144 827 m 239 736 q 199 753 222 753 q 158 736 175 753 q 142 696 142 720 q 158 655 142 672 q 199 639 175 639 q 239 655 222 639 q 256 696 256 672 q 239 736 256 720 z "},"":{"ha":359,"x_min":92,"x_max":296,"o":"m 236 2 l 201 -117 q 232 -178 177 -183 q 273 -190 256 -176 q 294 -227 292 -205 q 283 -264 296 -246 q 245 -286 269 -283 q 151 -269 190 -292 q 98 -185 104 -241 q 111 -85 92 -146 l 136 2 l 236 2 z "},"":{"ha":548,"x_min":78,"x_max":470,"o":"m 175 671 q 155 640 171 651 q 128 632 142 632 q 117 633 123 632 q 86 654 98 637 q 78 680 78 666 q 79 691 78 686 q 123 772 90 744 q 189 797 152 797 q 213 794 200 797 q 300 752 250 787 q 353 725 334 725 q 361 726 358 725 q 373 752 369 732 l 373 753 q 394 783 377 772 q 420 791 406 791 q 431 790 425 791 q 462 769 450 786 q 470 743 470 757 q 469 732 470 737 l 469 731 q 416 645 456 672 q 357 628 390 628 q 329 631 345 628 q 245 671 293 637 q 197 693 214 693 l 195 693 q 175 671 179 691 z "},"":{"ha":381,"x_min":38,"x_max":475,"o":"m 231 787 l 142 663 q 105 641 128 644 q 64 651 82 637 q 41 688 45 665 q 52 729 38 711 l 140 852 q 177 875 154 871 q 218 865 200 878 q 241 828 237 850 q 231 787 244 805 m 462 787 l 373 663 q 336 641 359 644 q 295 651 313 637 q 273 688 276 665 q 283 729 269 711 l 372 852 q 408 875 385 871 q 450 865 431 878 q 472 828 469 850 q 462 787 475 805 z "},"":{"ha":577,"x_min":7,"x_max":570,"o":"m 62 319 q 23 336 39 319 q 7 375 7 352 q 23 414 7 398 q 62 431 39 431 l 514 431 q 554 414 538 431 q 570 375 570 398 q 554 336 570 352 q 514 319 538 319 l 62 319 z "},"":{"ha":1052,"x_min":7,"x_max":1045,"o":"m 62 319 q 23 336 39 319 q 7 375 7 352 q 23 414 7 398 q 62 431 39 431 l 989 431 q 1029 414 1013 431 q 1045 375 1045 398 q 1029 336 1045 352 q 989 319 1013 319 l 62 319 z "},"":{"ha":260,"x_min":68,"x_max":192,"o":"m 144 864 q 174 847 161 860 q 192 804 192 829 q 174 760 192 778 q 130 742 155 742 q 86 760 104 742 q 68 804 68 778 q 71 823 68 814 l 127 997 q 142 1013 131 1008 q 163 1015 152 1019 q 180 1001 174 1011 q 182 979 185 990 l 144 864 z "},"":{"ha":260,"x_min":68,"x_max":192,"o":"m 115 895 q 86 911 99 899 q 68 955 68 929 q 86 999 68 981 q 130 1017 104 1017 q 174 999 156 1017 q 192 955 192 981 q 189 936 192 945 l 132 762 q 118 745 129 751 q 96 743 108 740 q 80 758 85 747 q 78 780 75 768 l 115 895 z "},"":{"ha":260,"x_min":68,"x_max":192,"o":"m 115 1 q 86 18 99 5 q 68 62 68 36 q 86 105 68 87 q 130 123 104 123 q 174 105 156 123 q 192 62 192 87 q 189 43 192 52 l 132 -132 q 118 -148 129 -142 q 96 -150 108 -153 q 80 -136 85 -146 q 78 -113 75 -125 l 115 1 z "},"":{"ha":433,"x_min":68,"x_max":366,"o":"m 144 864 q 174 847 161 860 q 192 804 192 829 q 174 760 192 778 q 130 742 155 742 q 86 760 104 742 q 68 804 68 778 q 71 823 68 814 l 127 997 q 142 1013 131 1008 q 163 1015 152 1019 q 180 1001 174 1011 q 182 979 185 990 l 144 864 m 318 864 q 347 847 334 860 q 366 804 366 829 q 347 760 366 778 q 303 742 329 742 q 259 760 277 742 q 241 804 241 778 q 244 823 241 814 l 301 997 q 315 1013 304 1008 q 337 1015 326 1019 q 353 1001 348 1011 q 355 979 359 990 l 318 864 z "},"":{"ha":433,"x_min":68,"x_max":366,"o":"m 115 895 q 86 911 99 899 q 68 955 68 929 q 86 999 68 981 q 130 1017 104 1017 q 174 999 156 1017 q 192 955 192 981 q 189 936 192 945 l 132 762 q 118 745 129 751 q 96 743 108 740 q 80 758 85 747 q 78 780 75 768 l 115 895 m 289 895 q 260 911 273 899 q 241 955 241 929 q 260 999 241 981 q 304 1017 278 1017 q 348 999 330 1017 q 366 955 366 981 q 363 936 366 945 l 306 762 q 292 745 302 751 q 270 743 281 740 q 254 758 259 747 q 252 780 248 768 l 289 895 z "},"":{"ha":433,"x_min":68,"x_max":366,"o":"m 115 15 q 86 32 99 19 q 68 75 68 50 q 86 119 68 101 q 130 137 104 137 q 174 119 156 137 q 192 75 192 101 q 189 56 192 65 l 132 -118 q 118 -134 129 -129 q 96 -136 108 -140 q 80 -122 85 -132 q 78 -100 75 -111 l 115 15 m 289 15 q 260 32 273 19 q 241 75 241 50 q 260 119 241 101 q 304 137 278 137 q 348 119 330 137 q 366 75 366 101 q 363 56 366 65 l 306 -118 q 292 -134 302 -129 q 270 -136 281 -140 q 254 -122 259 -132 q 252 -100 248 -111 l 289 15 z "},"":{"ha":733,"x_min":34,"x_max":699,"o":"m 422 628 l 422 -136 q 406 -175 422 -159 q 366 -191 390 -191 q 327 -175 343 -191 q 311 -136 311 -159 l 311 628 l 90 628 q 50 644 66 628 q 34 684 34 661 q 50 724 34 707 q 90 740 66 740 l 311 740 l 311 961 q 327 1000 311 984 q 366 1017 343 1017 q 406 1000 390 1017 q 422 961 422 984 l 422 740 l 644 740 q 683 724 667 740 q 699 684 699 707 q 683 644 699 661 q 644 628 667 628 l 422 628 z "},"":{"ha":733,"x_min":34,"x_max":699,"o":"m 311 740 l 311 961 q 327 1000 311 984 q 366 1017 343 1017 q 406 1000 390 1017 q 422 961 422 984 l 422 740 l 644 740 q 683 724 667 740 q 699 684 699 707 q 683 644 699 661 q 644 628 667 628 l 422 628 l 422 200 l 644 200 q 683 184 667 200 q 699 144 699 168 q 683 104 699 121 q 644 88 667 88 l 422 88 l 422 -136 q 406 -175 422 -159 q 366 -191 390 -191 q 327 -175 343 -191 q 311 -136 311 -159 l 311 88 l 90 88 q 50 104 66 88 q 34 144 34 121 q 50 184 34 168 q 90 200 66 200 l 311 200 l 311 628 l 90 628 q 50 644 66 628 q 34 684 34 661 q 50 724 34 707 q 90 740 66 740 l 311 740 z "},"":{"ha":571,"x_min":68,"x_max":503,"o":"m 439 382 q 286 446 376 446 q 132 382 195 446 q 68 223 68 316 q 132 65 68 130 q 286 0 195 0 q 439 65 376 0 q 503 223 503 130 q 439 382 503 316 z "},"":{"ha":1389,"x_min":68,"x_max":1118,"o":"m 130 123 q 174 105 156 123 q 192 62 192 87 q 174 18 192 36 q 130 0 156 0 q 86 18 104 0 q 68 62 68 36 q 86 105 68 87 q 130 123 104 123 m 593 123 q 637 105 619 123 q 655 62 655 87 q 637 18 655 36 q 593 0 619 0 q 549 18 568 0 q 531 62 531 36 q 549 105 531 87 q 593 123 568 123 m 1057 123 q 1100 105 1082 123 q 1118 62 1118 87 q 1100 18 1118 36 q 1057 0 1082 0 q 1013 18 1031 0 q 994 62 994 36 q 1013 105 994 87 q 1057 123 1031 123 z "},"":{"ha":442,"x_min":41,"x_max":401,"o":"m 310 671 q 351 681 328 684 q 388 659 374 677 q 398 617 401 640 q 376 581 394 595 l 167 362 l 376 143 q 398 106 394 130 q 388 65 401 84 q 351 43 374 47 q 310 53 328 39 l 67 316 q 54 329 60 321 q 44 370 41 348 q 66 407 47 393 l 310 671 z "},"":{"ha":442,"x_min":41,"x_max":401,"o":"m 132 671 l 376 407 q 398 370 394 393 q 388 329 401 348 q 374 316 382 321 l 132 53 q 91 43 114 39 q 54 65 68 47 q 44 106 41 84 q 66 143 47 130 l 275 362 l 66 581 q 44 617 47 595 q 54 659 41 640 q 91 681 68 677 q 132 671 114 684 z "},"":{"ha":175,"x_min":-96,"x_max":273,"o":"m 183 1017 q 203 1044 188 1035 q 237 1048 220 1053 q 264 1027 255 1043 q 269 994 273 1012 l -6 -20 q -26 -47 -11 -37 q -60 -51 -43 -56 q -87 -31 -78 -46 q -92 3 -96 -14 l 183 1017 z "},"":{"ha":664,"x_min":7,"x_max":610,"o":"m 248 198 l 248 56 q 232 16 248 33 q 192 0 216 0 q 153 16 169 0 q 136 56 136 33 l 136 198 l 62 198 q 23 215 39 198 q 7 254 7 231 q 23 294 7 277 q 62 310 39 310 l 136 310 l 136 961 q 153 1000 136 984 q 192 1017 169 1017 l 554 1017 q 594 1000 578 1017 q 610 961 610 984 q 594 922 610 938 q 554 905 578 905 l 248 905 l 248 564 l 509 564 q 549 548 532 564 q 565 508 565 532 q 549 469 565 485 q 509 452 532 452 l 248 452 l 248 310 l 378 310 q 418 294 402 310 q 435 254 435 277 q 418 215 435 231 q 378 198 402 198 l 248 198 z "},"":{"ha":872,"x_min":68,"x_max":804,"o":"m 123 432 q 84 448 100 432 q 68 488 68 465 q 84 528 68 511 q 123 544 100 544 l 217 544 q 195 675 195 610 q 235 831 195 762 q 349 938 275 903 q 471 964 405 964 q 655 892 577 964 q 740 718 728 824 q 728 676 742 694 q 690 656 713 659 q 649 667 667 653 q 629 705 631 682 q 579 810 621 771 q 471 852 534 852 q 396 836 429 852 q 332 777 355 817 q 307 675 307 734 q 336 544 307 611 l 534 544 q 573 528 557 544 q 590 488 590 511 q 573 448 590 465 q 534 432 557 432 l 366 432 q 342 273 372 355 q 295 176 324 224 q 310 177 302 177 q 464 155 382 180 l 465 155 q 614 129 559 127 q 718 161 663 131 q 760 166 737 172 q 793 140 782 160 q 798 97 804 119 q 772 64 792 75 q 618 18 695 20 q 432 49 544 15 l 432 49 q 315 66 368 68 q 163 24 244 62 q 93 35 123 0 q 79 75 77 52 q 98 113 80 98 q 237 311 199 203 q 254 432 261 376 l 123 432 z "},"":{"ha":1406,"x_min":68,"x_max":1388,"o":"m 169 56 q 154 16 169 33 q 118 0 139 0 q 82 16 97 0 q 68 56 68 33 l 68 961 q 82 1000 68 984 q 118 1017 97 1017 l 302 1017 q 481 935 407 1017 q 556 734 556 852 q 481 535 556 618 q 302 452 407 452 l 169 452 l 169 56 m 169 905 l 169 564 l 302 564 q 410 614 365 564 q 455 734 455 664 q 410 855 455 805 q 302 905 365 905 l 169 905 m 644 452 q 605 469 621 452 q 589 508 589 485 q 605 548 589 532 q 644 564 621 564 l 724 564 l 724 961 q 741 1000 724 984 q 780 1017 757 1017 q 819 1000 803 1017 q 836 961 836 984 l 836 564 l 916 564 q 955 548 939 564 q 971 508 971 532 q 955 469 971 485 q 916 452 939 452 l 836 452 l 836 56 q 819 16 836 33 q 780 0 803 0 q 741 16 757 0 q 724 56 724 33 l 724 452 l 644 452 m 1354 492 q 1366 450 1368 473 q 1345 413 1363 427 q 1304 401 1327 399 q 1267 422 1281 404 q 1236 450 1255 438 q 1190 461 1215 461 q 1119 439 1145 461 q 1102 405 1102 425 q 1147 357 1102 373 q 1193 345 1162 351 q 1245 332 1235 334 q 1343 285 1311 315 q 1388 170 1388 243 q 1325 45 1388 96 q 1190 0 1267 0 q 1076 30 1128 0 q 993 114 1021 61 q 989 156 982 134 q 1016 189 996 178 q 1059 193 1036 200 q 1091 165 1081 186 q 1190 106 1120 106 q 1256 127 1230 106 q 1276 170 1276 149 q 1232 229 1276 210 q 1133 256 1219 235 q 1035 298 1066 272 q 990 405 990 334 q 1054 524 990 478 q 1190 565 1109 565 q 1280 546 1237 565 q 1354 492 1325 526 z "},"":{"ha":928,"x_min":68,"x_max":861,"o":"m 123 361 q 84 377 100 361 q 68 416 68 393 q 84 456 68 439 q 123 473 100 473 l 197 473 q 197 494 197 483 l 197 494 q 198 527 197 511 l 123 527 q 84 543 100 527 q 68 583 68 560 q 84 623 68 606 q 123 639 100 639 l 214 639 q 241 724 224 684 q 378 906 289 842 q 582 969 467 969 q 732 949 662 969 q 830 907 786 933 q 855 872 850 895 q 849 830 861 850 q 815 804 838 810 q 772 811 793 799 q 701 842 741 830 q 582 857 648 857 q 444 815 503 857 q 344 682 380 770 q 329 639 335 661 l 739 639 q 778 623 762 639 q 794 583 794 606 q 778 543 794 560 q 739 527 762 527 l 310 527 q 309 494 309 511 l 309 494 q 309 473 309 483 l 705 473 q 745 456 728 473 q 761 416 761 439 q 745 377 761 393 q 705 361 728 361 l 326 361 q 379 243 344 292 q 547 138 440 157 q 760 176 658 117 q 802 181 781 187 q 836 155 825 175 q 842 113 848 135 q 816 79 836 90 q 527 28 678 0 q 288 178 376 56 q 211 361 234 254 l 123 361 z "},"":{"ha":136,"x_min":68,"x_max":1330,"o":"m 610 960 q 627 1000 610 983 q 667 1016 643 1016 q 706 1000 690 1016 q 722 960 722 983 l 722 124 q 696 48 722 81 q 629 4 671 15 q 546 10 585 -7 q 485 77 501 30 l 202 895 q 193 905 199 905 q 182 901 185 905 q 180 892 180 897 l 180 56 q 163 16 180 33 q 123 0 146 0 q 84 16 100 0 q 68 56 68 33 l 68 892 q 94 968 68 935 q 161 1013 119 1002 q 244 1006 204 1023 q 304 943 288 987 l 588 119 q 602 112 592 110 q 610 124 610 114 l 610 960 m 1097 742 q 1261 674 1194 742 q 1330 509 1330 606 q 1261 343 1330 412 q 1097 275 1194 275 q 931 343 1000 275 q 863 509 863 412 q 931 674 863 606 q 1097 742 1000 742 m 1196 608 q 1097 650 1155 650 q 996 608 1038 650 q 956 509 956 567 q 996 409 956 450 q 1097 368 1038 368 q 1196 409 1155 368 q 1238 509 1238 450 q 1196 608 1238 567 m 938 0 q 899 17 915 0 q 882 56 882 33 q 899 96 882 79 q 938 112 915 112 l 1254 112 q 1294 96 1278 112 q 1310 56 1310 79 q 1294 17 1310 33 q 1254 0 1278 0 l 938 0 z "},"":{"ha":983,"x_min":7,"x_max":868,"o":"m 218 537 q 209 517 218 526 q 187 509 200 509 q 166 517 175 509 q 157 537 157 526 l 157 962 l 38 962 q 16 970 25 962 q 7 990 7 978 q 16 1009 7 1001 q 38 1018 25 1018 l 336 1018 q 358 1009 350 1018 q 367 990 367 1001 q 358 970 367 978 q 336 962 350 962 l 218 962 l 218 537 m 868 537 q 859 517 868 526 q 838 509 850 509 q 816 517 825 509 q 807 537 807 526 l 807 956 q 802 962 807 961 q 794 957 796 963 l 707 655 q 683 624 702 635 q 643 612 665 612 q 602 624 620 612 q 578 655 584 635 l 491 957 q 484 962 490 963 q 479 956 479 961 l 479 537 q 470 517 479 526 q 448 509 460 509 q 426 517 435 509 q 417 537 417 526 l 417 956 q 433 995 417 978 q 473 1016 448 1012 q 520 1009 498 1021 q 549 975 543 998 l 637 672 q 643 668 638 668 q 649 672 648 668 l 736 975 q 765 1009 742 998 q 813 1016 787 1021 q 853 995 837 1012 q 868 956 868 978 l 868 537 z "},"":{"ha":661,"x_min":59,"x_max":585,"o":"m 291 694 q 259 665 281 673 q 216 668 237 658 q 188 700 196 678 q 191 743 180 722 q 245 824 211 785 q 399 905 317 905 q 541 826 491 905 q 585 646 585 758 q 584 560 585 589 l 584 557 q 583 551 584 554 q 541 311 578 412 q 328 84 479 141 q 221 69 272 63 q 123 116 163 76 q 73 308 59 182 q 216 536 90 456 q 473 612 317 602 l 473 631 l 473 646 q 447 767 473 726 q 399 794 430 794 q 322 744 361 794 q 291 694 302 719 m 436 349 q 468 500 460 414 q 276 443 349 490 q 184 296 195 391 q 203 194 176 222 q 234 180 214 182 q 288 189 258 177 q 436 349 391 227 z "},"":{"ha":904,"x_min":68,"x_max":836,"o":"m 694 210 l 454 746 l 214 210 l 694 210 m 128 98 l 128 98 q 105 103 116 98 q 76 134 84 113 q 77 176 68 155 l 404 905 q 431 933 412 924 q 474 934 452 942 q 505 905 496 926 l 829 181 q 836 154 836 168 q 820 115 836 131 q 781 98 804 98 l 128 98 z "},"":{"ha":872,"x_min":68,"x_max":804,"o":"m 180 24 q 163 -16 180 1 q 123 -32 146 -32 q 84 -16 100 -32 q 68 24 68 1 l 68 983 q 84 1023 68 1006 q 123 1040 100 1040 l 749 1040 q 788 1023 772 1040 q 804 983 804 1006 l 804 24 q 788 -16 804 1 q 749 -32 772 -32 q 709 -16 726 -32 q 692 24 692 1 l 692 928 l 180 928 l 180 24 z "},"":{"ha":882,"x_min":68,"x_max":814,"o":"m 759 1026 q 798 1010 782 1026 q 814 970 814 993 q 798 930 814 947 q 759 914 782 914 l 241 914 l 534 543 q 546 507 546 527 q 534 473 546 488 l 241 102 l 759 102 q 798 86 782 102 q 814 46 814 69 q 798 7 814 23 q 759 -9 782 -9 l 125 -9 l 125 -9 q 92 3 106 -9 q 71 40 73 17 q 82 81 68 62 l 419 508 l 85 931 q 70 970 70 947 q 86 1010 70 993 q 125 1026 102 1026 l 759 1026 z "},"":{"ha":564,"x_min":68,"x_max":496,"o":"m 123 339 q 84 356 100 339 q 68 395 68 372 q 84 435 68 418 q 123 451 100 451 l 439 451 q 479 435 463 451 q 496 395 496 418 q 479 356 496 372 q 439 339 463 339 l 123 339 z "},"":{"ha":646,"x_min":14,"x_max":650,"o":"m 95 459 q 52 459 74 450 q 22 490 31 469 q 22 532 14 511 q 53 562 31 553 l 179 614 q 220 615 199 623 q 250 587 240 607 l 250 587 l 406 269 l 536 1074 q 558 1110 540 1097 q 600 1120 577 1124 q 636 1098 623 1117 q 646 1057 650 1079 l 488 81 q 457 36 486 50 q 414 33 437 26 q 382 62 393 41 l 173 492 l 95 459 z "},"":{"ha":793,"x_min":68,"x_max":725,"o":"m 218 671 q 372 595 305 671 q 553 699 450 699 q 687 646 644 699 q 725 503 725 599 q 679 359 725 409 q 549 308 632 308 q 372 408 449 308 q 217 338 306 338 q 87 414 125 338 q 68 507 68 452 q 90 600 68 560 q 213 671 127 667 l 218 671 m 304 501 q 218 560 259 559 q 187 545 195 559 q 180 507 180 532 q 186 463 180 477 q 217 450 193 450 q 304 501 261 450 m 441 500 q 549 420 499 420 q 610 433 597 420 q 627 503 627 452 q 614 576 627 560 l 614 576 q 553 587 604 587 q 441 500 502 587 z "},"":{"ha":413,"x_min":7,"x_max":406,"o":"m 371 1054 q 401 1024 392 1045 q 406 1002 406 1013 q 402 981 406 991 q 372 951 393 960 q 350 946 361 946 q 330 950 340 946 q 278 966 287 966 q 276 966 277 966 q 261 642 261 937 l 262 416 q 235 22 262 73 q 134 -33 207 -33 q 120 -32 127 -33 q 41 -14 79 -29 q 11 16 20 -5 q 7 37 7 26 q 11 58 7 47 q 41 89 19 79 q 62 94 52 94 q 83 90 73 94 q 134 73 125 73 q 136 74 136 73 q 151 397 151 102 l 151 608 q 178 1017 151 964 q 279 1072 205 1072 q 292 1071 286 1072 q 371 1054 334 1068 z "},"":{"ha":783,"x_min":68,"x_max":715,"o":"m 161 533 q 121 520 143 518 q 83 540 98 522 q 70 581 68 557 q 90 618 72 604 q 274 690 174 690 q 431 650 326 690 q 524 624 503 624 q 622 669 570 624 q 663 682 640 684 q 701 662 686 680 q 713 621 715 644 q 694 583 711 598 q 524 512 610 512 q 393 546 484 512 q 274 578 307 578 q 161 533 214 578 m 161 304 q 120 292 143 290 q 83 311 98 294 q 70 352 68 329 q 90 390 72 375 q 274 461 173 461 q 431 422 326 461 q 524 395 503 395 q 622 440 570 395 q 663 453 640 455 q 701 433 686 451 q 713 393 715 416 q 694 355 711 370 q 524 284 610 284 q 393 318 484 284 q 274 350 307 350 q 161 304 214 350 z "},"":{"ha":729,"x_min":68,"x_max":661,"o":"m 128 170 q 89 186 105 170 q 73 225 73 202 q 89 264 73 248 q 128 281 105 281 l 601 281 q 641 264 624 281 q 657 225 657 248 q 641 186 657 202 q 601 170 624 170 l 128 170 m 579 834 q 622 835 601 844 q 652 804 644 826 q 653 762 661 783 q 623 732 644 741 l 273 584 l 623 437 q 653 407 644 428 q 652 364 661 385 q 622 334 644 342 q 579 334 601 325 l 106 533 q 77 563 85 542 q 77 606 68 584 q 106 635 85 627 l 579 834 z "},"":{"ha":729,"x_min":68,"x_max":661,"o":"m 128 170 q 89 186 105 170 q 73 225 73 202 q 89 264 73 248 q 128 281 105 281 l 601 281 q 641 264 624 281 q 657 225 657 248 q 641 186 657 202 q 601 170 624 170 l 128 170 m 150 834 l 623 635 q 653 606 644 627 q 652 563 661 584 q 623 533 644 542 l 150 334 q 107 334 129 325 q 77 364 85 342 q 77 407 68 385 q 106 437 85 428 l 457 584 l 106 732 q 77 762 85 741 q 77 804 68 783 q 107 835 85 826 q 150 834 129 844 z "},"":{"ha":1333,"x_min":47,"x_max":1285,"o":"m 666 1126 q 1103 946 923 1126 q 1285 508 1285 764 q 1103 71 1285 252 q 666 -110 923 -110 q 229 71 410 -110 q 47 508 47 252 q 229 946 47 764 q 666 1126 410 1126 m 1051 892 q 666 1053 891 1053 q 281 892 441 1053 q 123 508 123 734 q 281 124 123 283 q 666 -36 441 -36 q 1051 124 891 -36 q 1210 508 1210 283 q 1051 892 1210 734 z "},"":{"ha":1153,"x_min":68,"x_max":1085,"o":"m 576 1017 q 217 868 366 1017 q 68 508 68 719 q 217 149 68 298 q 576 0 366 0 q 936 149 787 0 q 1085 508 1085 298 q 936 868 1085 719 q 576 1017 787 1017 z "},"":{"ha":530,"x_min":34,"x_max":496,"o":"m 264 1016 q 428 948 360 1016 q 496 785 496 880 l 496 498 q 428 336 496 404 q 264 268 360 268 q 102 336 170 268 q 34 498 34 404 l 34 785 q 102 948 34 880 q 264 1016 170 1016 m 264 904 q 180 869 216 904 q 146 785 146 834 l 146 498 q 180 415 146 450 q 264 380 216 380 q 349 415 314 380 q 384 498 384 450 l 384 785 q 349 869 384 834 q 264 904 314 904 z "},"":{"ha":377,"x_min":3,"x_max":262,"o":"m 150 761 l 111 695 q 76 670 98 675 q 34 676 54 665 q 9 711 14 688 q 16 753 3 733 l 156 985 q 206 1016 172 1016 q 245 1000 229 1016 q 262 960 262 983 l 262 324 q 245 284 262 300 q 206 268 229 268 q 166 284 182 268 q 150 324 150 300 l 150 761 z "},"":{"ha":530,"x_min":34,"x_max":496,"o":"m 146 802 q 130 762 146 779 q 90 746 113 746 q 50 762 66 746 q 34 802 34 779 q 104 956 34 892 q 264 1017 171 1017 q 426 956 359 1017 q 496 802 496 892 q 430 636 496 696 q 286 559 391 601 q 189 511 216 531 q 146 420 146 475 l 146 380 l 439 380 q 479 364 463 380 q 496 325 496 348 q 479 285 496 301 q 439 269 463 269 l 90 269 q 50 285 66 269 q 34 325 34 301 l 34 420 q 100 585 34 526 q 244 663 139 621 q 340 711 314 690 q 384 802 384 746 q 351 873 384 843 q 264 905 315 905 q 178 873 214 905 q 146 802 146 843 z "},"":{"ha":530,"x_min":34,"x_max":496,"o":"m 146 802 q 130 762 146 779 q 90 746 113 746 q 50 762 66 746 q 34 802 34 779 q 104 956 34 892 q 264 1017 171 1017 q 426 956 359 1017 q 496 802 496 892 q 426 648 496 711 q 420 642 423 645 q 426 637 423 640 q 496 484 496 574 q 426 330 496 393 q 264 269 359 269 q 104 330 171 269 q 34 484 34 393 q 50 523 34 507 q 90 539 66 539 q 130 523 113 539 q 146 484 146 507 q 178 412 146 442 q 264 380 214 380 q 351 412 315 380 q 384 484 384 442 q 351 555 384 525 q 264 587 315 587 q 225 603 241 587 q 209 642 209 619 q 225 682 209 666 q 264 699 241 699 q 351 730 315 699 q 384 802 384 760 q 351 873 384 843 q 264 905 315 905 q 178 873 214 905 q 146 802 146 843 z "},"":{"ha":606,"x_min":34,"x_max":572,"o":"m 454 325 q 437 285 454 301 q 398 269 421 269 q 359 285 375 269 q 342 325 342 301 l 342 431 l 94 431 l 94 431 q 63 439 77 431 q 39 475 44 452 q 46 517 34 497 l 349 987 q 398 1017 366 1017 q 437 1000 421 1017 q 454 960 454 984 l 454 543 l 516 543 q 555 526 539 543 q 572 487 572 510 q 555 447 572 464 q 516 431 539 431 l 454 431 l 454 325 m 188 543 l 342 543 l 342 792 l 188 543 z "},"":{"ha":532,"x_min":34,"x_max":498,"o":"m 406 1017 q 446 1000 429 1017 q 462 960 462 984 q 446 921 462 937 q 406 905 429 905 l 206 905 l 190 722 q 265 734 227 734 q 429 666 361 734 q 498 501 498 597 q 429 337 498 405 q 265 269 361 269 q 123 317 186 269 q 39 444 59 367 q 45 486 34 466 q 80 511 58 506 q 122 505 102 517 q 148 471 142 494 q 191 406 158 431 q 265 380 223 380 q 351 416 315 380 q 386 501 386 451 q 351 587 386 551 q 265 623 315 623 q 224 615 243 623 q 187 595 203 608 q 177 585 183 591 q 167 574 172 579 q 119 553 149 551 q 81 573 96 555 q 68 614 66 591 l 100 960 q 116 1000 100 984 q 155 1017 132 1017 l 406 1017 z "},"":{"ha":530,"x_min":34,"x_max":496,"o":"m 264 730 q 428 662 360 730 q 496 498 496 594 q 428 336 496 404 q 264 268 360 268 q 102 336 169 268 q 34 498 34 404 l 34 785 q 102 948 34 880 q 264 1016 170 1016 q 428 948 360 1016 q 496 785 496 880 q 479 745 496 762 q 439 729 463 729 q 400 745 416 729 q 384 785 384 762 q 349 869 384 834 q 264 904 314 904 q 180 869 216 904 q 146 785 146 834 l 146 696 q 264 730 200 730 m 349 583 q 264 618 314 618 q 180 583 216 618 q 146 498 146 548 q 180 414 146 450 q 264 380 216 380 q 349 414 314 380 q 384 498 384 450 q 349 583 384 548 z "},"":{"ha":526,"x_min":34,"x_max":492,"o":"m 262 307 q 234 275 255 284 q 191 272 213 264 q 159 300 170 279 q 157 343 149 321 l 354 905 l 90 905 q 50 922 66 905 q 34 961 34 938 q 50 1000 34 984 q 90 1017 66 1017 l 430 1016 q 450 1013 440 1017 q 482 985 473 1006 q 485 942 492 964 l 262 307 z "},"":{"ha":498,"x_min":34,"x_max":464,"o":"m 393 642 q 401 635 397 639 q 464 484 464 572 q 401 332 464 395 q 249 269 338 269 q 97 332 160 269 q 34 484 34 395 q 97 635 34 572 q 104 642 100 639 q 97 650 100 646 q 34 802 34 713 q 97 954 34 890 q 249 1017 160 1017 q 401 954 338 1017 q 464 802 464 890 q 401 650 464 713 q 393 642 397 646 m 321 557 q 249 587 292 587 q 176 557 206 587 q 146 484 146 526 q 176 410 146 441 q 249 380 206 380 q 321 410 292 380 q 352 484 352 441 q 321 557 352 526 m 321 875 q 249 905 292 905 q 176 875 206 905 q 146 802 146 844 q 176 728 146 759 q 249 699 206 699 q 321 728 292 699 q 352 802 352 759 q 321 875 352 844 z "},"":{"ha":530,"x_min":34,"x_max":496,"o":"m 264 555 q 102 623 169 555 q 34 785 34 690 q 102 949 34 881 q 264 1017 169 1017 q 428 949 360 1017 q 496 785 496 881 l 496 499 q 428 336 496 404 q 264 269 360 269 q 102 336 170 269 q 34 499 34 404 q 50 539 34 523 q 90 555 66 555 q 130 539 113 555 q 146 499 146 523 q 180 416 146 450 q 264 380 216 380 q 349 416 314 380 q 384 499 384 450 l 384 588 q 264 555 329 555 m 180 701 q 264 667 216 667 q 349 701 314 667 q 384 785 384 736 q 349 870 384 835 q 264 905 314 905 q 180 870 216 905 q 146 785 146 835 q 180 701 146 736 z "},"":{"ha":769,"x_min":115,"x_max":654,"o":"m 171 692 q 132 709 148 692 q 115 748 115 725 q 132 787 115 771 q 171 804 148 804 l 329 804 l 329 962 q 345 1001 329 985 q 385 1017 361 1017 q 425 1001 408 1017 q 441 962 441 985 l 441 804 l 598 804 q 637 787 621 804 q 654 748 654 771 q 637 709 654 725 q 598 692 621 692 l 441 692 l 441 534 q 425 495 441 511 q 385 479 408 479 q 345 495 361 479 q 329 534 329 511 l 329 692 l 171 692 z "},"":{"ha":425,"x_min":34,"x_max":387,"o":"m 90 678 q 50 695 66 678 q 34 734 34 711 q 50 774 34 758 q 90 790 66 790 l 331 790 q 371 774 355 790 q 387 734 387 758 q 371 695 387 711 q 331 678 355 678 l 90 678 z "},"":{"ha":502,"x_min":34,"x_max":462,"o":"m 90 726 q 50 743 66 726 q 34 782 34 759 q 50 821 34 805 q 90 838 66 838 l 406 838 q 446 821 429 838 q 462 782 462 805 q 446 743 462 759 q 406 726 429 726 l 90 726 m 90 495 q 50 512 66 495 q 34 551 34 528 q 50 591 34 574 q 90 607 66 607 l 406 607 q 446 591 429 607 q 462 551 462 574 q 446 512 462 528 q 406 495 429 495 l 90 495 z "},"":{"ha":192,"x_min":34,"x_max":158,"o":"m 40 711 q 56 751 40 735 q 96 768 73 768 q 136 751 119 768 q 152 711 152 735 l 152 395 q 136 355 152 372 q 96 339 119 339 q 56 355 73 339 q 40 395 40 372 l 40 711 m 96 1017 q 140 999 121 1017 q 158 955 158 981 q 140 911 158 929 q 96 893 121 893 q 52 911 70 893 q 34 955 34 929 q 52 999 34 981 q 96 1017 70 1017 z "},"":{"ha":355,"x_min":34,"x_max":321,"o":"m 264 245 q 304 229 288 245 q 321 189 321 212 q 304 150 321 166 q 264 134 288 134 q 102 201 170 134 q 34 364 34 269 l 34 785 q 102 948 34 880 q 264 1016 170 1016 q 304 1000 288 1016 q 321 960 321 983 q 304 921 321 937 q 264 904 288 904 q 180 869 216 904 q 146 785 146 834 l 146 364 q 180 280 146 315 q 264 245 216 245 z "},"":{"ha":355,"x_min":34,"x_max":321,"o":"m 90 904 q 50 921 66 904 q 34 960 34 937 q 50 1000 34 983 q 90 1016 66 1016 q 253 948 185 1016 q 321 785 321 880 l 321 364 q 253 201 321 269 q 90 134 185 134 q 50 150 66 134 q 34 189 34 166 q 50 229 34 212 q 90 245 66 245 q 174 280 139 245 q 209 364 209 315 l 209 785 q 174 869 209 834 q 90 904 139 904 z "},"":{"ha":572,"x_min":34,"x_max":535,"o":"m 34 960 q 50 1000 34 984 q 90 1017 66 1017 q 130 1000 113 1017 q 146 960 146 984 l 146 935 q 270 1009 195 991 q 371 1002 328 1020 q 487 911 444 975 q 535 738 535 840 l 535 616 q 519 577 535 593 q 479 561 503 561 q 439 577 456 561 q 423 616 423 593 l 423 738 q 344 892 423 853 q 291 905 313 905 q 239 892 269 905 q 146 739 146 853 l 146 616 q 130 577 146 593 q 90 561 113 561 q 50 577 66 561 q 34 616 34 593 l 34 960 z "},"":{"ha":530,"x_min":34,"x_max":496,"o":"m 264 374 q 428 307 360 374 q 496 143 496 239 l 496 -143 q 428 -306 496 -238 q 264 -374 360 -374 q 102 -306 170 -374 q 34 -143 34 -238 l 34 143 q 102 307 34 239 q 264 374 170 374 m 264 262 q 180 227 216 262 q 146 143 146 193 l 146 -143 q 180 -227 146 -192 q 264 -262 216 -262 q 349 -227 314 -262 q 384 -143 384 -192 l 384 143 q 349 227 384 193 q 264 262 314 262 z "},"":{"ha":377,"x_min":3,"x_max":262,"o":"m 150 119 l 111 54 q 76 28 98 34 q 34 35 54 23 q 9 69 14 47 q 16 111 3 92 l 156 344 q 206 374 172 374 q 245 358 229 374 q 262 318 262 342 l 262 -317 q 245 -357 262 -341 q 206 -374 229 -374 q 166 -357 182 -374 q 150 -317 150 -341 l 150 119 z "},"":{"ha":530,"x_min":34,"x_max":496,"o":"m 146 159 q 130 120 146 136 q 90 104 113 104 q 50 120 66 104 q 34 159 34 136 q 104 313 34 250 q 264 374 171 374 q 426 313 359 374 q 496 159 496 250 q 430 -6 496 54 q 286 -83 391 -41 q 189 -132 216 -111 q 146 -222 146 -167 l 146 -262 l 439 -262 q 479 -278 463 -262 q 496 -317 496 -294 q 479 -357 496 -341 q 439 -374 463 -374 l 90 -374 q 50 -357 66 -374 q 34 -317 34 -341 l 34 -222 q 100 -57 34 -117 q 244 20 139 -22 q 340 69 314 48 q 384 159 384 104 q 351 231 384 201 q 264 262 315 262 q 178 231 214 262 q 146 159 146 201 z "},"":{"ha":530,"x_min":34,"x_max":496,"o":"m 146 159 q 130 120 146 136 q 90 104 113 104 q 50 120 66 104 q 34 159 34 136 q 104 313 34 250 q 264 374 171 374 q 426 313 359 374 q 496 159 496 250 q 426 5 496 69 q 420 0 423 3 q 426 -5 423 -2 q 496 -159 496 -68 q 426 -313 496 -249 q 264 -374 359 -374 q 104 -313 171 -374 q 34 -159 34 -249 q 50 -119 34 -136 q 90 -103 66 -103 q 130 -119 113 -103 q 146 -159 146 -136 q 178 -230 146 -200 q 264 -262 214 -262 q 351 -230 315 -262 q 384 -159 384 -200 q 351 -87 384 -117 q 264 -56 315 -56 q 225 -39 241 -56 q 209 0 209 -23 q 225 40 209 24 q 264 56 241 56 q 351 88 315 56 q 384 159 384 118 q 351 231 384 201 q 264 262 315 262 q 178 231 214 262 q 146 159 146 201 z "},"":{"ha":606,"x_min":34,"x_max":572,"o":"m 454 -317 q 437 -357 454 -341 q 398 -374 421 -374 q 359 -357 375 -374 q 342 -317 342 -341 l 342 -212 l 94 -212 l 94 -212 q 63 -203 77 -212 q 39 -168 44 -190 q 46 -125 34 -145 l 349 345 q 398 374 366 374 q 437 358 421 374 q 454 318 454 342 l 454 -100 l 516 -100 q 555 -116 539 -100 q 572 -155 572 -132 q 555 -195 572 -178 q 516 -212 539 -212 l 454 -212 l 454 -317 m 188 -100 l 342 -100 l 342 150 l 188 -100 z "},"":{"ha":532,"x_min":34,"x_max":498,"o":"m 406 374 q 446 358 429 374 q 462 318 462 342 q 446 279 462 295 q 406 262 429 262 l 206 262 l 190 79 q 265 92 227 92 q 429 24 361 92 q 498 -141 498 -45 q 429 -305 498 -237 q 265 -374 361 -374 q 123 -325 186 -374 q 39 -199 59 -275 q 45 -156 34 -176 q 80 -131 58 -136 q 122 -137 102 -125 q 148 -171 142 -149 q 191 -237 158 -212 q 265 -262 223 -262 q 351 -227 315 -262 q 386 -141 386 -191 q 351 -56 386 -91 q 265 -20 315 -20 q 224 -27 243 -20 q 187 -47 203 -35 q 177 -57 183 -52 q 167 -68 172 -63 q 119 -89 149 -92 q 81 -69 96 -87 q 68 -28 66 -52 l 100 318 q 116 358 100 342 q 155 374 132 374 l 406 374 z "},"":{"ha":530,"x_min":34,"x_max":496,"o":"m 264 88 q 428 20 360 88 q 496 -143 496 -47 q 428 -306 496 -238 q 264 -374 360 -374 q 102 -306 169 -374 q 34 -143 34 -238 l 34 143 q 102 307 34 239 q 264 374 170 374 q 428 307 360 374 q 496 143 496 239 q 479 104 496 120 q 439 87 463 87 q 400 104 416 87 q 384 143 384 120 q 349 227 384 193 q 264 262 314 262 q 180 227 216 262 q 146 143 146 193 l 146 55 q 264 88 200 88 m 349 -58 q 264 -24 314 -24 q 180 -58 216 -24 q 146 -143 146 -94 q 180 -227 146 -192 q 264 -262 216 -262 q 349 -227 314 -262 q 384 -143 384 -192 q 349 -58 384 -94 z "},"":{"ha":526,"x_min":34,"x_max":492,"o":"m 262 -336 q 234 -368 255 -359 q 191 -371 213 -378 q 159 -342 170 -363 q 157 -300 149 -322 l 354 262 l 90 262 q 50 279 66 262 q 34 318 34 295 q 50 357 34 341 q 90 374 66 374 l 430 373 q 450 370 440 374 q 482 342 473 363 q 485 299 492 321 l 262 -336 z "},"":{"ha":498,"x_min":34,"x_max":464,"o":"m 393 0 q 401 -7 397 -3 q 464 -159 464 -70 q 401 -311 464 -248 q 249 -374 338 -374 q 97 -311 160 -374 q 34 -159 34 -248 q 97 -7 34 -70 q 104 0 100 -3 q 97 7 100 3 q 34 159 34 71 q 97 311 34 248 q 249 374 160 374 q 401 311 338 374 q 464 159 464 248 q 401 7 464 71 q 393 0 397 4 m 321 -85 q 249 -56 292 -56 q 176 -85 206 -56 q 146 -159 146 -116 q 176 -232 146 -201 q 249 -262 206 -262 q 321 -232 292 -262 q 352 -159 352 -201 q 321 -85 352 -116 m 321 233 q 249 262 292 262 q 176 233 206 262 q 146 159 146 202 q 176 86 146 117 q 249 56 206 56 q 321 86 292 56 q 352 159 352 117 q 321 233 352 202 z "},"":{"ha":530,"x_min":34,"x_max":496,"o":"m 264 -87 q 102 -20 169 -87 q 34 143 34 48 q 102 307 34 239 q 264 374 169 374 q 428 307 360 374 q 496 143 496 239 l 496 -143 q 428 -306 496 -238 q 264 -374 360 -374 q 102 -306 170 -374 q 34 -143 34 -238 q 50 -103 34 -119 q 90 -87 66 -87 q 130 -103 113 -87 q 146 -143 146 -119 q 180 -227 146 -192 q 264 -262 216 -262 q 349 -227 314 -262 q 384 -143 384 -192 l 384 -54 q 264 -87 329 -87 m 180 59 q 264 24 216 24 q 349 59 314 24 q 384 143 384 94 q 349 228 384 193 q 264 262 314 262 q 180 228 216 262 q 146 143 146 193 q 180 59 146 94 z "},"":{"ha":769,"x_min":115,"x_max":654,"o":"m 171 -56 q 132 -39 148 -56 q 115 0 115 -23 q 132 39 115 23 q 171 56 148 56 l 329 56 l 329 214 q 345 253 329 237 q 385 269 361 269 q 425 253 408 269 q 441 214 441 237 l 441 56 l 598 56 q 637 39 621 56 q 654 0 654 23 q 637 -39 654 -23 q 598 -56 621 -56 l 441 -56 l 441 -214 q 425 -253 441 -237 q 385 -269 408 -269 q 345 -253 361 -269 q 329 -214 329 -237 l 329 -56 l 171 -56 z "},"":{"ha":425,"x_min":34,"x_max":387,"o":"m 90 -56 q 50 -39 66 -56 q 34 1 34 -22 q 50 40 34 24 q 90 56 66 56 l 331 56 q 371 40 355 56 q 387 1 387 24 q 371 -39 387 -22 q 331 -56 355 -56 l 90 -56 z "},"":{"ha":502,"x_min":34,"x_max":462,"o":"m 90 60 q 50 77 66 60 q 34 116 34 93 q 50 155 34 139 q 90 172 66 172 l 406 172 q 446 155 429 172 q 462 116 462 139 q 446 77 462 93 q 406 60 429 60 l 90 60 m 90 -171 q 50 -154 66 -171 q 34 -115 34 -138 q 50 -75 34 -92 q 90 -59 66 -59 l 406 -59 q 446 -75 429 -59 q 462 -115 462 -92 q 446 -154 462 -138 q 406 -171 429 -171 l 90 -171 z "},"":{"ha":355,"x_min":34,"x_max":321,"o":"m 264 -338 q 304 -354 288 -338 q 321 -394 321 -371 q 304 -433 321 -417 q 264 -450 288 -450 q 102 -382 170 -450 q 34 -219 34 -314 l 34 202 q 102 365 34 297 q 264 433 170 433 q 304 416 288 433 q 321 377 321 400 q 304 338 321 354 q 264 321 288 321 q 180 286 216 321 q 146 202 146 251 l 146 -219 q 180 -303 146 -268 q 264 -338 216 -338 z "},"":{"ha":355,"x_min":34,"x_max":321,"o":"m 90 321 q 50 338 66 321 q 34 377 34 354 q 50 416 34 400 q 90 433 66 433 q 253 365 185 433 q 321 202 321 297 l 321 -219 q 253 -382 321 -314 q 90 -450 185 -450 q 50 -433 66 -450 q 34 -394 34 -417 q 50 -354 34 -371 q 90 -338 66 -338 q 174 -303 139 -338 q 209 -219 209 -268 l 209 202 q 174 286 209 251 q 90 321 139 321 z "},"":{"ha":745,"x_min":68,"x_max":677,"o":"m 373 1017 q 588 927 498 1017 q 677 712 677 838 l 677 304 q 588 90 677 179 q 373 0 498 0 q 157 90 247 0 q 68 304 68 179 l 68 712 q 157 927 68 838 q 373 1017 247 1017 m 509 848 q 373 905 452 905 q 237 848 293 905 q 180 712 180 791 l 180 304 q 237 168 180 225 q 373 111 293 111 q 509 168 452 111 q 566 304 566 225 l 566 712 q 509 848 566 791 z "},"":{"ha":527,"x_min":16,"x_max":330,"o":"m 218 762 l 123 606 q 88 581 111 586 q 46 587 66 575 q 21 621 26 599 q 28 663 16 644 l 224 987 q 275 1017 240 1017 q 314 1000 298 1017 q 330 961 330 984 l 330 56 q 314 16 330 33 q 275 0 298 0 q 235 16 252 0 q 218 56 218 33 l 218 762 z "},"":{"ha":745,"x_min":68,"x_max":677,"o":"m 180 734 q 163 695 180 711 q 123 679 147 679 q 84 695 100 679 q 68 734 68 711 q 159 936 68 853 q 373 1017 248 1017 q 587 936 497 1017 q 677 734 677 853 q 589 515 677 595 q 393 411 535 468 q 246 336 286 369 q 180 191 180 281 l 180 111 l 622 111 q 661 95 645 111 q 677 56 677 79 q 661 16 677 33 q 622 0 645 0 l 123 0 q 84 16 100 0 q 68 56 68 33 l 68 191 q 157 410 68 332 q 352 515 210 458 q 499 590 459 557 q 566 734 566 645 q 511 853 566 804 q 373 905 454 905 q 234 853 291 905 q 180 734 180 804 z "},"":{"ha":745,"x_min":68,"x_max":677,"o":"m 180 734 q 163 695 180 711 q 123 679 147 679 q 84 695 100 679 q 68 734 68 711 q 159 936 68 853 q 373 1017 248 1017 q 587 936 497 1017 q 677 734 677 853 q 587 533 677 616 q 555 508 572 519 q 587 484 572 496 q 677 282 677 400 q 587 81 677 163 q 373 0 497 0 q 159 81 248 0 q 68 282 68 163 q 84 321 68 305 q 123 338 100 338 q 163 321 147 338 q 180 282 180 305 q 234 163 180 213 q 373 111 291 111 q 511 163 454 111 q 566 282 566 213 q 511 401 566 351 q 373 452 454 452 q 333 469 349 452 q 317 508 317 485 q 333 548 317 532 q 373 564 349 564 q 511 616 454 564 q 566 734 566 665 q 511 853 566 804 q 373 905 454 905 q 234 853 291 905 q 180 734 180 804 z "},"":{"ha":852,"x_min":68,"x_max":785,"o":"m 617 56 q 601 16 617 33 q 561 0 584 0 q 522 16 538 0 q 505 56 505 33 l 505 231 l 127 231 l 127 231 q 97 239 111 231 q 73 275 78 252 q 80 317 68 297 l 512 988 q 561 1017 528 1017 q 601 1000 584 1017 q 617 961 617 984 l 617 342 l 729 342 q 768 326 752 342 q 785 286 785 309 q 768 247 785 263 q 729 231 752 231 l 617 231 l 617 56 m 224 342 l 505 342 l 505 777 l 224 342 z "},"":{"ha":732,"x_min":68,"x_max":679,"o":"m 572 1017 q 612 1000 595 1017 q 629 961 629 984 q 612 922 629 938 q 572 905 595 905 l 267 905 l 238 584 q 267 596 252 591 q 372 615 318 615 q 589 525 499 615 q 679 307 679 435 q 589 90 679 180 q 372 0 499 0 q 183 64 267 0 q 73 231 100 129 q 79 273 68 254 q 114 299 92 293 q 156 293 136 304 q 182 258 176 281 q 252 153 199 193 q 372 111 304 111 q 510 169 452 111 q 567 307 567 226 q 510 446 567 389 q 372 503 452 503 q 305 492 336 503 q 246 458 273 479 q 230 443 239 452 q 214 425 223 435 q 166 405 195 402 q 128 425 143 407 q 115 465 114 442 l 160 961 q 176 1000 160 984 q 216 1017 193 1017 l 572 1017 z "},"":{"ha":631,"x_min":14,"x_max":617,"o":"m 293 37 q 264 5 286 15 q 222 2 243 -5 q 190 31 200 10 q 188 73 180 52 l 479 905 l 69 905 q 30 922 46 905 q 14 961 14 938 q 30 1000 14 984 q 69 1017 46 1017 l 555 1017 q 576 1013 566 1017 q 608 985 597 1005 q 610 942 617 964 l 293 37 z "},"":{"ha":745,"x_min":68,"x_max":677,"o":"m 373 407 q 157 496 246 407 q 68 712 68 586 q 157 928 68 838 q 373 1017 246 1017 q 588 928 499 1017 q 677 712 677 838 l 677 304 q 588 90 677 179 q 373 0 498 0 q 157 90 247 0 q 68 304 68 179 q 84 344 68 328 q 123 361 100 361 q 163 344 147 361 q 180 304 180 328 q 237 168 180 225 q 373 111 293 111 q 509 168 452 111 q 566 304 566 225 l 566 476 q 373 407 481 407 m 236 576 q 373 519 293 519 q 509 576 453 519 q 566 712 566 632 q 509 848 566 792 q 373 905 453 905 q 236 848 293 905 q 180 712 180 792 q 236 576 180 632 z "},"":{"ha":745,"x_min":68,"x_max":677,"o":"m 373 610 q 588 520 499 610 q 677 304 677 431 q 588 89 677 178 q 373 0 499 0 q 157 89 246 0 q 68 304 68 178 l 68 712 q 157 927 68 838 q 373 1017 247 1017 q 588 927 498 1017 q 677 712 677 838 q 661 673 677 689 q 622 656 645 656 q 582 673 599 656 q 566 712 566 689 q 509 848 566 791 q 373 905 452 905 q 237 848 293 905 q 180 712 180 791 l 180 541 q 373 610 264 610 m 509 441 q 373 498 453 498 q 236 441 293 498 q 180 304 180 385 q 236 168 180 224 q 373 111 293 111 q 509 168 453 111 q 566 304 566 224 q 509 441 566 385 z "},"":{"ha":700,"x_min":68,"x_max":632,"o":"m 519 508 q 549 481 535 496 q 632 282 632 399 q 549 82 632 165 q 350 0 467 0 q 151 82 233 0 q 68 282 68 165 q 151 481 68 399 q 182 508 165 496 q 151 535 165 521 q 68 734 68 618 q 151 935 68 852 q 350 1017 233 1017 q 549 935 467 1017 q 632 734 632 852 q 549 535 632 618 q 519 508 535 521 m 471 402 q 350 452 420 452 q 229 402 279 452 q 180 282 180 353 q 229 161 180 212 q 350 111 279 111 q 471 161 420 111 q 521 282 521 212 q 471 402 521 353 m 471 855 q 350 905 420 905 q 229 855 279 905 q 180 734 180 805 q 229 614 180 664 q 350 564 279 564 q 471 614 420 564 q 521 734 521 664 q 471 855 521 805 z "},"":{"ha":1333,"x_min":47,"x_max":1285,"o":"m 666 1126 q 1103 946 923 1126 q 1285 508 1285 764 q 1103 71 1285 252 q 666 -110 923 -110 q 229 71 410 -110 q 47 508 47 252 q 229 946 47 764 q 666 1126 410 1126 m 1051 892 q 666 1053 891 1053 q 281 892 441 1053 q 123 508 123 734 q 281 124 123 283 q 666 -36 441 -36 q 1051 124 891 -36 q 1210 508 1210 283 q 1051 892 1210 734 m 682 627 l 642 562 q 608 536 630 542 q 566 543 585 531 q 541 577 546 555 q 547 619 535 600 l 688 852 q 738 882 703 882 q 777 866 761 882 q 793 826 793 850 l 793 191 q 777 151 793 167 q 738 134 761 134 q 698 151 714 134 q 682 191 682 167 l 682 627 z "},"":{"ha":1333,"x_min":47,"x_max":1285,"o":"m 666 1126 q 1103 946 923 1126 q 1285 508 1285 764 q 1103 71 1285 252 q 666 -110 923 -110 q 229 71 410 -110 q 47 508 47 252 q 229 946 47 764 q 666 1126 410 1126 m 1051 892 q 666 1053 891 1053 q 281 892 441 1053 q 123 508 123 734 q 281 124 123 283 q 666 -36 441 -36 q 1051 124 891 -36 q 1210 508 1210 283 q 1051 892 1210 734 m 547 667 q 531 628 547 644 q 491 612 514 612 q 452 628 468 612 q 435 667 435 644 q 505 821 435 758 q 666 882 572 882 q 827 821 760 882 q 897 667 897 758 q 831 502 897 562 q 687 425 792 467 q 591 376 617 397 q 547 286 547 341 l 547 246 l 841 246 q 880 230 864 246 q 897 191 897 214 q 880 151 897 167 q 841 134 864 134 l 491 134 q 452 151 468 134 q 435 191 435 167 l 435 286 q 501 451 435 391 q 646 528 541 486 q 742 577 715 556 q 785 667 785 612 q 752 739 785 709 q 666 770 717 770 q 580 739 615 770 q 547 667 547 709 z "},"":{"ha":1333,"x_min":47,"x_max":1285,"o":"m 666 1126 q 1103 946 923 1126 q 1285 508 1285 764 q 1103 71 1285 252 q 666 -110 923 -110 q 229 71 410 -110 q 47 508 47 252 q 229 946 47 764 q 666 1126 410 1126 m 1051 892 q 666 1053 891 1053 q 281 892 441 1053 q 123 508 123 734 q 281 124 123 283 q 666 -36 441 -36 q 1051 124 891 -36 q 1210 508 1210 283 q 1051 892 1210 734 m 547 667 q 531 628 547 644 q 491 612 514 612 q 452 628 468 612 q 435 667 435 644 q 505 821 435 758 q 666 882 572 882 q 827 821 760 882 q 897 667 897 758 q 827 513 897 577 q 821 508 825 511 q 827 503 825 506 q 897 349 897 439 q 827 195 897 259 q 666 134 760 134 q 505 195 572 134 q 435 349 435 259 q 452 389 435 372 q 491 405 468 405 q 531 389 514 405 q 547 349 547 372 q 580 278 547 308 q 666 246 615 246 q 752 278 717 246 q 785 349 785 308 q 752 420 785 391 q 666 452 717 452 q 627 469 643 452 q 610 508 610 485 q 627 548 610 532 q 666 564 643 564 q 752 596 717 564 q 785 667 785 626 q 752 739 785 709 q 666 770 717 770 q 580 739 615 770 q 547 667 547 709 z "},"":{"ha":1333,"x_min":47,"x_max":1285,"o":"m 666 1126 q 1103 946 923 1126 q 1285 508 1285 764 q 1103 71 1285 252 q 666 -110 923 -110 q 229 71 410 -110 q 47 508 47 252 q 229 946 47 764 q 666 1126 410 1126 m 1051 892 q 666 1053 891 1053 q 281 892 441 1053 q 123 508 123 734 q 281 124 123 283 q 666 -36 441 -36 q 1051 124 891 -36 q 1210 508 1210 283 q 1051 892 1210 734 m 815 191 q 799 151 815 167 q 760 134 783 134 q 720 151 736 134 q 704 191 704 167 l 704 296 l 455 296 l 455 296 q 425 305 438 296 q 400 340 406 318 q 408 382 395 363 l 711 853 q 760 882 727 882 q 799 866 783 882 q 815 826 815 850 l 815 408 l 878 408 q 917 392 901 408 q 933 353 933 376 q 917 313 933 330 q 878 296 901 296 l 815 296 l 815 191 m 549 408 l 704 408 l 704 658 l 549 408 z "},"":{"ha":1333,"x_min":47,"x_max":1285,"o":"m 666 1126 q 1103 946 923 1126 q 1285 508 1285 764 q 1103 71 1285 252 q 666 -110 923 -110 q 229 71 410 -110 q 47 508 47 252 q 229 946 47 764 q 666 1126 410 1126 m 1051 892 q 666 1053 891 1053 q 281 892 441 1053 q 123 508 123 734 q 281 124 123 283 q 666 -36 441 -36 q 1051 124 891 -36 q 1210 508 1210 283 q 1051 892 1210 734 m 805 882 q 844 866 828 882 q 861 826 861 850 q 844 787 861 803 q 805 770 828 770 l 605 770 l 589 587 q 664 600 625 600 q 828 532 760 600 q 897 367 897 463 q 828 203 897 271 q 664 134 760 134 q 522 183 585 134 q 438 309 458 233 q 444 352 433 332 q 479 377 456 372 q 521 371 501 383 q 547 337 541 359 q 589 271 557 296 q 664 246 622 246 q 749 281 714 246 q 785 367 785 317 q 749 452 785 417 q 664 488 714 488 q 623 481 642 488 q 586 460 602 473 q 576 451 582 456 q 566 439 570 445 q 518 419 547 416 q 480 439 495 421 q 467 479 465 456 l 498 826 q 515 866 498 850 q 554 882 531 882 l 805 882 z "},"":{"ha":1333,"x_min":47,"x_max":1285,"o":"m 666 1126 q 1103 946 923 1126 q 1285 508 1285 764 q 1103 71 1285 252 q 666 -110 923 -110 q 229 71 410 -110 q 47 508 47 252 q 229 946 47 764 q 666 1126 410 1126 m 1051 892 q 666 1053 891 1053 q 281 892 441 1053 q 123 508 123 734 q 281 124 123 283 q 666 -36 441 -36 q 1051 124 891 -36 q 1210 508 1210 283 q 1051 892 1210 734 m 666 596 q 829 528 762 596 q 897 365 897 460 q 829 202 897 270 q 666 134 762 134 q 503 202 570 134 q 435 365 435 270 l 435 651 q 503 814 435 747 q 666 882 571 882 q 829 814 762 882 q 897 651 897 747 q 880 612 897 628 q 841 595 864 595 q 802 612 818 595 q 785 651 785 628 q 750 735 785 701 q 666 770 715 770 q 582 735 617 770 q 547 651 547 701 l 547 563 q 666 596 602 596 m 750 450 q 666 484 715 484 q 582 450 617 484 q 547 365 547 414 q 582 281 547 316 q 666 246 617 246 q 750 281 715 246 q 785 365 785 316 q 750 450 785 414 z "},"":{"ha":1333,"x_min":47,"x_max":1285,"o":"m 666 1126 q 1103 946 923 1126 q 1285 508 1285 764 q 1103 71 1285 252 q 666 -110 923 -110 q 229 71 410 -110 q 47 508 47 252 q 229 946 47 764 q 666 1126 410 1126 m 1051 892 q 666 1053 891 1053 q 281 892 441 1053 q 123 508 123 734 q 281 124 123 283 q 666 -36 441 -36 q 1051 124 891 -36 q 1210 508 1210 283 q 1051 892 1210 734 m 668 172 q 640 140 661 150 q 597 138 618 130 q 565 166 575 145 q 563 209 555 186 l 760 771 l 495 771 q 456 787 472 771 q 439 827 439 804 q 456 866 439 850 q 495 882 472 882 l 836 882 q 856 879 846 882 q 888 850 878 871 q 890 808 898 830 l 668 172 z "},"":{"ha":1333,"x_min":47,"x_max":1285,"o":"m 666 1126 q 1103 946 923 1126 q 1285 508 1285 764 q 1103 71 1285 252 q 666 -110 923 -110 q 229 71 410 -110 q 47 508 47 252 q 229 946 47 764 q 666 1126 410 1126 m 1051 892 q 666 1053 891 1053 q 281 892 441 1053 q 123 508 123 734 q 281 124 123 283 q 666 -36 441 -36 q 1051 124 891 -36 q 1210 508 1210 283 q 1051 892 1210 734 m 810 508 q 818 501 814 505 q 881 349 881 438 q 818 197 881 260 q 666 134 755 134 q 514 197 577 134 q 451 349 451 260 q 514 501 451 438 q 522 508 517 505 q 514 515 517 511 q 451 667 451 578 q 514 819 451 756 q 666 882 577 882 q 818 819 755 882 q 881 667 881 756 q 818 515 881 578 q 810 508 814 512 m 739 422 q 666 452 709 452 q 593 422 623 452 q 563 349 563 392 q 593 276 563 307 q 666 246 623 246 q 739 276 709 246 q 769 349 769 307 q 739 422 769 392 m 739 741 q 666 770 709 770 q 593 741 623 770 q 563 667 563 710 q 593 594 563 625 q 666 564 623 564 q 739 594 709 564 q 769 667 769 625 q 739 741 769 710 z "},"":{"ha":1333,"x_min":47,"x_max":1285,"o":"m 666 1126 q 1103 946 923 1126 q 1285 508 1285 764 q 1103 71 1285 252 q 666 -110 923 -110 q 229 71 410 -110 q 47 508 47 252 q 229 946 47 764 q 666 1126 410 1126 m 1051 892 q 666 1053 891 1053 q 281 892 441 1053 q 123 508 123 734 q 281 124 123 283 q 666 -36 441 -36 q 1051 124 891 -36 q 1210 508 1210 283 q 1051 892 1210 734 m 666 420 q 503 488 570 420 q 435 651 435 556 q 503 814 435 747 q 666 882 570 882 q 829 814 762 882 q 897 651 897 747 l 897 365 q 829 202 897 270 q 666 134 762 134 q 503 202 571 134 q 435 365 435 270 q 452 405 435 389 q 491 421 468 421 q 531 405 514 421 q 547 365 547 389 q 582 281 547 316 q 666 246 617 246 q 750 281 715 246 q 785 365 785 316 l 785 454 q 666 420 730 420 m 582 567 q 666 532 617 532 q 750 567 715 532 q 785 651 785 602 q 750 736 785 701 q 666 770 715 770 q 582 736 617 770 q 547 651 547 701 q 582 567 547 602 z "},"":{"ha":1333,"x_min":47,"x_max":1285,"o":"m 666 1126 q 1103 946 923 1126 q 1285 508 1285 764 q 1103 71 1285 252 q 666 -110 923 -110 q 229 71 410 -110 q 47 508 47 252 q 229 946 47 764 q 666 1126 410 1126 m 1051 892 q 666 1053 891 1053 q 281 892 441 1053 q 123 508 123 734 q 281 124 123 283 q 666 -36 441 -36 q 1051 124 891 -36 q 1210 508 1210 283 q 1051 892 1210 734 m 666 882 q 829 814 762 882 q 897 651 897 747 l 897 365 q 829 202 897 270 q 666 134 762 134 q 503 202 571 134 q 435 365 435 270 l 435 651 q 503 814 435 747 q 666 882 571 882 m 666 770 q 582 735 617 770 q 547 651 547 701 l 547 365 q 582 281 547 316 q 666 246 617 246 q 750 281 715 246 q 785 365 785 316 l 785 651 q 750 735 785 701 q 666 770 715 770 z "},"":{"ha":1333,"x_min":47,"x_max":1285,"o":"m 666 1126 q 1103 946 923 1126 q 1285 508 1285 764 q 1103 71 1285 252 q 666 -110 923 -110 q 229 71 410 -110 q 47 508 47 252 q 229 946 47 764 q 666 1126 410 1126 m 1051 892 q 666 1053 891 1053 q 281 892 441 1053 q 123 508 123 734 q 281 124 123 283 q 666 -36 441 -36 q 1051 124 891 -36 q 1210 508 1210 283 q 1051 892 1210 734 m 473 627 l 433 562 q 399 536 421 542 q 357 543 376 531 q 332 577 337 555 q 338 619 326 600 l 479 852 q 529 882 494 882 q 568 866 552 882 q 585 826 585 850 l 585 191 q 568 151 585 167 q 529 134 552 134 q 489 151 505 134 q 473 191 473 167 l 473 627 m 762 627 l 722 562 q 688 536 710 542 q 646 543 665 531 q 621 577 626 555 q 627 619 615 600 l 768 852 q 818 882 783 882 q 857 866 841 882 q 873 826 873 850 l 873 191 q 857 151 873 167 q 818 134 841 134 q 778 151 794 134 q 762 191 762 167 l 762 627 z "},"":{"ha":1333,"x_min":47,"x_max":1285,"o":"m 666 1126 q 1103 946 923 1126 q 1285 508 1285 764 q 1103 71 1285 252 q 666 -110 923 -110 q 229 71 410 -110 q 47 508 47 252 q 229 946 47 764 q 666 1126 410 1126 m 1051 892 q 666 1053 891 1053 q 281 892 441 1053 q 123 508 123 734 q 281 124 123 283 q 666 -36 441 -36 q 1051 124 891 -36 q 1210 508 1210 283 q 1051 892 1210 734 m 385 627 l 345 562 q 311 536 333 542 q 269 543 288 531 q 243 577 249 555 q 250 619 238 600 l 391 852 q 441 882 406 882 q 480 866 464 882 q 496 826 496 850 l 496 191 q 480 151 496 167 q 441 134 464 134 q 401 151 417 134 q 385 191 385 167 l 385 627 m 676 667 q 660 628 676 644 q 620 612 643 612 q 581 628 597 612 q 564 667 564 644 q 634 821 564 758 q 795 882 701 882 q 956 821 889 882 q 1026 667 1026 758 q 960 502 1026 562 q 816 425 921 467 q 720 376 746 397 q 676 286 676 341 l 676 246 l 970 246 q 1009 230 993 246 q 1026 191 1026 214 q 1009 151 1026 167 q 970 134 993 134 l 620 134 q 581 151 597 134 q 564 191 564 167 l 564 286 q 630 451 564 391 q 774 528 669 486 q 871 577 844 556 q 914 667 914 612 q 881 739 914 709 q 795 770 846 770 q 709 739 744 770 q 676 667 676 709 z "},"":{"ha":1333,"x_min":47,"x_max":1285,"o":"m 666 1126 q 1103 946 923 1126 q 1285 508 1285 764 q 1103 71 1285 252 q 666 -110 923 -110 q 229 71 410 -110 q 47 508 47 252 q 229 946 47 764 q 666 1126 410 1126 m 1051 892 q 666 1053 891 1053 q 281 892 441 1053 q 123 508 123 734 q 281 124 123 283 q 666 -36 441 -36 q 1051 124 891 -36 q 1210 508 1210 283 q 1051 892 1210 734 m 385 627 l 345 562 q 311 536 333 542 q 269 543 288 531 q 243 577 249 555 q 250 619 238 600 l 391 852 q 441 882 406 882 q 480 866 464 882 q 496 826 496 850 l 496 191 q 480 151 496 167 q 441 134 464 134 q 401 151 417 134 q 385 191 385 167 l 385 627 m 676 667 q 660 628 676 644 q 620 612 643 612 q 581 628 597 612 q 564 667 564 644 q 634 821 564 758 q 795 882 701 882 q 956 821 889 882 q 1026 667 1026 758 q 956 513 1026 577 q 950 508 954 511 q 956 503 954 506 q 1026 349 1026 439 q 956 195 1026 259 q 795 134 889 134 q 634 195 701 134 q 564 349 564 259 q 581 389 564 372 q 620 405 597 405 q 660 389 643 405 q 676 349 676 372 q 709 278 676 308 q 795 246 744 246 q 881 278 846 246 q 914 349 914 308 q 881 420 914 391 q 795 452 846 452 q 755 469 772 452 q 739 508 739 485 q 755 548 739 532 q 795 564 772 564 q 881 596 846 564 q 914 667 914 626 q 881 739 914 709 q 795 770 846 770 q 709 739 744 770 q 676 667 676 709 z "},"":{"ha":1333,"x_min":47,"x_max":1285,"o":"m 666 1126 q 1103 946 923 1126 q 1285 508 1285 764 q 1103 71 1285 252 q 666 -110 923 -110 q 229 71 410 -110 q 47 508 47 252 q 229 946 47 764 q 666 1126 410 1126 m 1051 892 q 666 1053 891 1053 q 281 892 441 1053 q 123 508 123 734 q 281 124 123 283 q 666 -36 441 -36 q 1051 124 891 -36 q 1210 508 1210 283 q 1051 892 1210 734 m 371 627 l 332 562 q 297 536 319 542 q 255 543 275 531 q 230 577 235 555 q 237 619 224 600 l 377 852 q 427 882 393 882 q 467 866 450 882 q 483 826 483 850 l 483 191 q 467 151 483 167 q 427 134 450 134 q 387 151 404 134 q 371 191 371 167 l 371 627 m 967 191 q 951 151 967 167 q 911 134 935 134 q 872 151 888 134 q 856 191 856 167 l 856 296 l 607 296 l 607 296 q 576 305 590 296 q 552 340 557 318 q 559 382 547 363 l 863 853 q 911 882 879 882 q 951 866 935 882 q 967 826 967 850 l 967 408 l 1029 408 q 1069 392 1053 408 q 1085 353 1085 376 q 1069 313 1085 330 q 1029 296 1053 296 l 967 296 l 967 191 m 701 408 l 856 408 l 856 658 l 701 408 z "},"":{"ha":1333,"x_min":47,"x_max":1285,"o":"m 666 1126 q 1103 946 923 1126 q 1285 508 1285 764 q 1103 71 1285 252 q 666 -110 923 -110 q 229 71 410 -110 q 47 508 47 252 q 229 946 47 764 q 666 1126 410 1126 m 1051 892 q 666 1053 891 1053 q 281 892 441 1053 q 123 508 123 734 q 281 124 123 283 q 666 -36 441 -36 q 1051 124 891 -36 q 1210 508 1210 283 q 1051 892 1210 734 m 385 627 l 345 562 q 311 536 333 542 q 269 543 288 531 q 243 577 249 555 q 250 619 238 600 l 391 852 q 441 882 406 882 q 480 866 464 882 q 496 826 496 850 l 496 191 q 480 151 496 167 q 441 134 464 134 q 401 151 417 134 q 385 191 385 167 l 385 627 m 933 882 q 972 866 956 882 q 989 826 989 850 q 972 787 989 803 q 933 770 956 770 l 733 770 l 717 587 q 792 600 753 600 q 956 532 888 600 q 1025 367 1025 463 q 956 203 1025 271 q 792 134 888 134 q 650 183 713 134 q 566 309 586 233 q 572 352 561 332 q 607 377 585 372 q 649 371 629 383 q 675 337 669 359 q 718 271 685 296 q 792 246 750 246 q 878 281 842 246 q 913 367 913 317 q 878 452 913 417 q 792 488 842 488 q 751 481 770 488 q 714 460 730 473 q 704 451 710 456 q 694 439 699 445 q 646 419 675 416 q 608 439 623 421 q 595 479 593 456 l 627 826 q 643 866 627 850 q 682 882 659 882 l 933 882 z "},"":{"ha":1333,"x_min":47,"x_max":1285,"o":"m 666 1126 q 1103 946 923 1126 q 1285 508 1285 764 q 1103 71 1285 252 q 666 -110 923 -110 q 229 71 410 -110 q 47 508 47 252 q 229 946 47 764 q 666 1126 410 1126 m 1051 892 q 666 1053 891 1053 q 281 892 441 1053 q 123 508 123 734 q 281 124 123 283 q 666 -36 441 -36 q 1051 124 891 -36 q 1210 508 1210 283 q 1051 892 1210 734 m 385 627 l 345 562 q 311 536 333 542 q 269 543 288 531 q 243 577 249 555 q 250 619 238 600 l 391 852 q 441 882 406 882 q 480 866 464 882 q 496 826 496 850 l 496 191 q 480 151 496 167 q 441 134 464 134 q 401 151 417 134 q 385 191 385 167 l 385 627 m 795 596 q 958 528 890 596 q 1026 365 1026 460 q 958 202 1026 270 q 795 134 890 134 q 632 202 699 134 q 564 365 564 270 l 564 651 q 632 814 564 747 q 795 882 700 882 q 958 814 890 882 q 1026 651 1026 747 q 1009 612 1026 628 q 970 595 993 595 q 930 612 947 595 q 914 651 914 628 q 879 735 914 701 q 795 770 844 770 q 711 735 746 770 q 676 651 676 701 l 676 563 q 795 596 730 596 m 879 450 q 795 484 844 484 q 711 450 746 484 q 676 365 676 414 q 711 281 676 316 q 795 246 746 246 q 879 281 844 246 q 914 365 914 316 q 879 450 914 414 z "},"":{"ha":1333,"x_min":47,"x_max":1285,"o":"m 666 1126 q 1103 946 923 1126 q 1285 508 1285 764 q 1103 71 1285 252 q 666 -110 923 -110 q 229 71 410 -110 q 47 508 47 252 q 229 946 47 764 q 666 1126 410 1126 m 1051 892 q 666 1053 891 1053 q 281 892 441 1053 q 123 508 123 734 q 281 124 123 283 q 666 -36 441 -36 q 1051 124 891 -36 q 1210 508 1210 283 q 1051 892 1210 734 m 385 627 l 345 562 q 311 536 333 542 q 269 543 288 531 q 243 577 249 555 q 250 619 238 600 l 391 852 q 441 882 406 882 q 480 866 464 882 q 496 826 496 850 l 496 191 q 480 151 496 167 q 441 134 464 134 q 401 151 417 134 q 385 191 385 167 l 385 627 m 793 172 q 764 140 785 150 q 722 138 743 130 q 690 166 700 145 q 688 209 680 186 l 884 771 l 620 771 q 581 787 597 771 q 564 827 564 804 q 581 866 564 850 q 620 882 597 882 l 960 882 q 981 879 970 882 q 1013 850 1003 871 q 1015 808 1023 830 l 793 172 z "},"":{"ha":1333,"x_min":47,"x_max":1285,"o":"m 666 1126 q 1103 946 923 1126 q 1285 508 1285 764 q 1103 71 1285 252 q 666 -110 923 -110 q 229 71 410 -110 q 47 508 47 252 q 229 946 47 764 q 666 1126 410 1126 m 1051 892 q 666 1053 891 1053 q 281 892 441 1053 q 123 508 123 734 q 281 124 123 283 q 666 -36 441 -36 q 1051 124 891 -36 q 1210 508 1210 283 q 1051 892 1210 734 m 385 627 l 345 562 q 311 536 333 542 q 269 543 288 531 q 243 577 249 555 q 250 619 238 600 l 391 852 q 441 882 406 882 q 480 866 464 882 q 496 826 496 850 l 496 191 q 480 151 496 167 q 441 134 464 134 q 401 151 417 134 q 385 191 385 167 l 385 627 m 924 508 q 931 501 927 505 q 994 349 994 438 q 931 197 994 260 q 779 134 868 134 q 627 197 690 134 q 564 349 564 260 q 627 501 564 438 q 635 508 631 505 q 627 515 631 511 q 564 667 564 578 q 627 819 564 756 q 779 882 690 882 q 931 819 868 882 q 994 667 994 756 q 931 515 994 578 q 924 508 927 512 m 852 422 q 779 452 822 452 q 706 422 736 452 q 676 349 676 392 q 706 276 676 307 q 779 246 736 246 q 852 276 822 246 q 882 349 882 307 q 852 422 882 392 m 852 741 q 779 770 822 770 q 706 741 736 770 q 676 667 676 710 q 706 594 676 625 q 779 564 736 564 q 852 594 822 564 q 882 667 882 625 q 852 741 882 710 z "},"":{"ha":1333,"x_min":47,"x_max":1285,"o":"m 666 1126 q 1103 946 923 1126 q 1285 508 1285 764 q 1103 71 1285 252 q 666 -110 923 -110 q 229 71 410 -110 q 47 508 47 252 q 229 946 47 764 q 666 1126 410 1126 m 1051 892 q 666 1053 891 1053 q 281 892 441 1053 q 123 508 123 734 q 281 124 123 283 q 666 -36 441 -36 q 1051 124 891 -36 q 1210 508 1210 283 q 1051 892 1210 734 m 385 627 l 345 562 q 311 536 333 542 q 269 543 288 531 q 243 577 249 555 q 250 619 238 600 l 391 852 q 441 882 406 882 q 480 866 464 882 q 496 826 496 850 l 496 191 q 480 151 496 167 q 441 134 464 134 q 401 151 417 134 q 385 191 385 167 l 385 627 m 795 420 q 632 488 699 420 q 564 651 564 556 q 632 814 564 747 q 795 882 699 882 q 958 814 890 882 q 1026 651 1026 747 l 1026 365 q 958 202 1026 270 q 795 134 890 134 q 632 202 700 134 q 564 365 564 270 q 581 405 564 389 q 620 421 597 421 q 660 405 643 421 q 676 365 676 389 q 711 281 676 316 q 795 246 746 246 q 879 281 844 246 q 914 365 914 316 l 914 454 q 795 420 859 420 m 711 567 q 795 532 746 532 q 879 567 844 532 q 914 651 914 602 q 879 736 914 701 q 795 770 844 770 q 711 736 746 770 q 676 651 676 701 q 711 567 676 602 z "},"":{"ha":1333,"x_min":47,"x_max":1285,"o":"m 666 1126 q 1103 946 923 1126 q 1285 508 1285 764 q 1103 71 1285 252 q 666 -110 923 -110 q 229 71 410 -110 q 47 508 47 252 q 229 946 47 764 q 666 1126 410 1126 m 1051 892 q 666 1053 891 1053 q 281 892 441 1053 q 123 508 123 734 q 281 124 123 283 q 666 -36 441 -36 q 1051 124 891 -36 q 1210 508 1210 283 q 1051 892 1210 734 m 352 671 q 338 636 352 650 q 302 621 323 621 q 267 636 281 621 q 252 671 252 650 q 315 808 252 751 q 458 862 374 862 q 601 808 541 862 q 663 671 663 751 q 605 524 663 576 q 476 455 570 492 q 391 412 414 430 q 352 332 352 380 l 352 296 l 613 296 q 648 282 633 296 q 663 247 663 267 q 648 212 663 226 q 613 197 633 197 l 302 197 q 267 212 281 197 q 252 247 252 226 l 252 332 q 311 479 252 425 q 439 547 346 510 q 525 591 502 572 q 564 671 564 621 q 534 734 564 707 q 458 762 503 762 q 381 734 412 762 q 352 671 352 707 m 909 862 q 1055 802 994 862 q 1114 656 1114 741 l 1114 402 q 1055 257 1114 317 q 909 197 994 197 q 764 257 825 197 q 704 402 704 317 l 704 656 q 764 802 704 741 q 909 862 825 862 m 909 762 q 834 731 865 762 q 804 656 804 701 l 804 402 q 834 328 804 359 q 909 296 865 296 q 984 328 953 296 q 1015 402 1015 359 l 1015 656 q 984 731 1015 701 q 909 762 953 762 z "},"":{"ha":1333,"x_min":47,"x_max":1285,"o":"m 666 1126 q 1103 946 923 1126 q 1285 508 1285 764 q 1103 71 1285 252 q 666 -110 923 -110 q 229 71 410 -110 q 47 508 47 252 q 229 946 47 764 q 666 1126 410 1126 m 1051 892 q 666 1053 891 1053 q 281 892 441 1053 q 123 508 123 734 q 281 124 123 283 q 666 -36 441 -36 q 1051 124 891 -36 q 1210 508 1210 283 q 1051 892 1210 734 m 371 452 q 332 469 348 452 q 315 509 315 486 q 332 548 315 532 q 371 564 348 564 l 610 564 l 610 804 q 627 843 610 827 q 666 859 643 859 q 706 843 689 859 q 722 804 722 827 l 722 564 l 961 564 q 1000 548 984 564 q 1017 509 1017 532 q 1000 469 1017 486 q 961 452 984 452 l 722 452 l 722 214 q 706 174 722 191 q 666 158 689 158 q 627 174 643 158 q 610 214 610 191 l 610 452 l 371 452 z "},"":{"ha":1333,"x_min":47,"x_max":1285,"o":"m 666 1126 q 1103 946 923 1126 q 1285 508 1285 764 q 1103 71 1285 252 q 666 -110 923 -110 q 229 71 410 -110 q 47 508 47 252 q 229 946 47 764 q 666 1126 410 1126 m 1051 892 q 666 1053 891 1053 q 281 892 441 1053 q 123 508 123 734 q 281 124 123 283 q 666 -36 441 -36 q 1051 124 891 -36 q 1210 508 1210 283 q 1051 892 1210 734 m 508 452 q 469 469 485 452 q 452 509 452 486 q 469 548 452 532 q 508 564 485 564 l 824 564 q 864 548 848 564 q 880 509 880 532 q 864 469 880 486 q 824 452 848 452 l 508 452 z "},"":{"ha":1333,"x_min":47,"x_max":1285,"o":"m 666 1126 q 1103 946 923 1126 q 1285 508 1285 764 q 1103 71 1285 252 q 666 -110 923 -110 q 229 71 410 -110 q 47 508 47 252 q 229 946 47 764 q 666 1126 410 1126 m 1051 892 q 666 1053 891 1053 q 281 892 441 1053 q 123 508 123 734 q 281 124 123 283 q 666 -36 441 -36 q 1051 124 891 -36 q 1210 508 1210 283 q 1051 892 1210 734 m 498 260 q 458 243 481 243 q 418 260 435 243 q 402 299 402 276 q 418 338 402 322 l 588 508 l 418 677 q 402 717 402 694 q 418 756 402 740 q 458 772 435 772 q 498 756 481 772 l 667 587 l 836 756 q 875 772 852 772 q 914 756 898 772 q 930 717 930 740 q 915 677 931 693 l 746 508 l 915 339 q 931 300 931 323 q 914 260 930 276 q 875 243 898 243 q 836 260 852 243 l 667 429 l 498 260 z "},"":{"ha":1333,"x_min":47,"x_max":1285,"o":"m 944 977 q 666 1053 821 1053 q 281 892 441 1053 q 123 508 123 734 q 281 124 123 283 q 319 90 300 106 q 321 94 319 92 l 938 970 q 944 977 941 974 m 391 37 q 666 -36 514 -36 q 1051 124 891 -36 q 1210 508 1210 283 q 1051 892 1210 734 q 1016 925 1034 909 q 1012 918 1015 921 l 395 41 q 391 37 393 39 m 1103 946 q 1285 508 1285 764 q 1103 71 1285 252 q 666 -110 923 -110 q 229 71 410 -110 q 47 508 47 252 q 229 946 47 764 q 666 1126 410 1126 q 1103 946 923 1126 z "},"":{"ha":1333,"x_min":47,"x_max":1285,"o":"m 666 1126 q 1103 946 923 1126 q 1285 508 1285 764 q 1103 71 1285 252 q 666 -110 923 -110 q 229 71 410 -110 q 47 508 47 252 q 229 946 47 764 q 666 1126 410 1126 m 1051 892 q 666 1053 891 1053 q 281 892 441 1053 q 123 508 123 734 q 281 124 123 283 q 666 -36 441 -36 q 1051 124 891 -36 q 1210 508 1210 283 q 1051 892 1210 734 m 666 561 q 704 546 688 561 q 719 509 719 530 q 704 471 719 486 q 666 456 688 456 q 629 471 644 456 q 613 509 613 486 q 629 546 613 530 q 666 561 644 561 z "},"":{"ha":1333,"x_min":47,"x_max":1285,"o":"m 666 1126 q 1103 946 923 1126 q 1285 508 1285 764 q 1103 71 1285 252 q 666 -110 923 -110 q 229 71 410 -110 q 47 508 47 252 q 229 946 47 764 q 666 1126 410 1126 m 1051 892 q 666 1053 891 1053 q 281 892 441 1053 q 123 508 123 734 q 281 124 123 283 q 666 -36 441 -36 q 1051 124 891 -36 q 1210 508 1210 283 q 1051 892 1210 734 m 666 671 q 781 624 734 671 q 829 509 829 576 q 781 393 829 441 q 666 346 734 346 q 551 393 598 346 q 503 509 503 441 q 551 624 503 576 q 666 671 598 671 m 717 559 q 666 580 696 580 q 616 559 637 580 q 595 508 595 538 q 616 457 595 478 q 666 437 637 437 q 717 457 696 437 q 738 508 738 478 q 717 559 738 538 z "},"":{"ha":1333,"x_min":47,"x_max":1285,"o":"m 666 1126 q 1103 946 923 1126 q 1285 508 1285 764 q 1103 71 1285 252 q 666 -110 923 -110 q 229 71 410 -110 q 47 508 47 252 q 229 946 47 764 q 666 1126 410 1126 m 1051 892 q 666 1053 891 1053 q 281 892 441 1053 q 123 508 123 734 q 281 124 123 283 q 666 -36 441 -36 q 1051 124 891 -36 q 1210 508 1210 283 q 1051 892 1210 734 m 610 734 q 627 774 610 758 q 667 790 644 790 q 706 774 690 790 q 722 734 722 758 l 722 561 l 887 614 q 930 611 909 622 q 958 578 950 601 q 954 536 964 557 q 922 509 943 515 l 757 455 l 859 315 q 869 273 872 296 q 846 237 865 250 q 805 227 827 223 q 768 249 782 231 l 667 389 l 564 249 q 528 227 551 231 q 487 237 505 223 q 465 273 468 250 q 474 315 460 296 l 576 455 l 411 509 q 378 536 389 515 q 376 578 368 557 q 403 611 382 601 q 446 614 424 622 l 610 561 l 610 734 z "},"":{"ha":1333,"x_min":47,"x_max":1285,"o":"m 666 1126 q 1103 946 923 1126 q 1285 508 1285 764 q 1103 71 1285 252 q 666 -110 923 -110 q 229 71 410 -110 q 47 508 47 252 q 229 946 47 764 q 666 1126 410 1126 m 1051 892 q 666 1053 891 1053 q 281 892 441 1053 q 123 508 123 734 q 281 124 123 283 q 666 -36 441 -36 q 1051 124 891 -36 q 1210 508 1210 283 q 1051 892 1210 734 m 440 588 q 401 605 417 588 q 385 644 385 621 q 401 684 385 667 q 440 700 417 700 l 892 700 q 932 684 916 700 q 948 644 948 667 q 932 605 948 621 q 892 588 916 588 l 440 588 m 440 317 q 401 334 417 317 q 385 373 385 350 q 401 412 385 396 q 440 429 417 429 l 892 429 q 932 412 916 429 q 948 373 948 396 q 932 334 948 350 q 892 317 916 317 l 440 317 z "},"":{"ha":1333,"x_min":47,"x_max":1285,"o":"m 666 1126 q 1103 946 923 1126 q 1285 508 1285 764 q 1103 71 1285 252 q 666 -110 923 -110 q 229 71 410 -110 q 47 508 47 252 q 229 946 47 764 q 666 1126 410 1126 m 1051 892 q 666 1053 891 1053 q 281 892 441 1053 q 123 508 123 734 q 281 124 123 283 q 666 -36 441 -36 q 1051 124 891 -36 q 1210 508 1210 283 q 1051 892 1210 734 m 508 452 q 469 469 485 452 q 452 509 452 486 q 469 548 452 532 q 508 564 485 564 l 824 564 q 864 548 848 564 q 880 509 880 532 q 864 469 880 486 q 824 452 848 452 l 508 452 z "},"":{"ha":1333,"x_min":47,"x_max":1285,"o":"m 666 1126 q 1103 946 923 1126 q 1285 508 1285 764 q 1103 71 1285 252 q 666 -110 923 -110 q 229 71 410 -110 q 47 508 47 252 q 229 946 47 764 q 666 1126 410 1126 m 1051 892 q 666 1053 891 1053 q 281 892 441 1053 q 123 508 123 734 q 281 124 123 283 q 666 -36 441 -36 q 1051 124 891 -36 q 1210 508 1210 283 q 1051 892 1210 734 m 547 191 q 531 151 547 167 q 491 134 514 134 q 452 151 468 134 q 435 191 435 167 l 435 651 q 503 814 435 747 q 666 882 570 882 q 829 814 762 882 q 897 651 897 747 l 897 191 q 880 151 897 167 q 841 134 864 134 q 802 151 818 134 q 785 191 785 167 l 785 402 l 547 402 l 547 191 m 785 513 l 785 651 q 750 736 785 701 q 666 770 715 770 q 582 736 617 770 q 547 651 547 701 l 547 513 l 785 513 z "},"":{"ha":1333,"x_min":47,"x_max":1285,"o":"m 666 1126 q 1103 946 923 1126 q 1285 508 1285 764 q 1103 71 1285 252 q 666 -110 923 -110 q 229 71 410 -110 q 47 508 47 252 q 229 946 47 764 q 666 1126 410 1126 m 1051 892 q 666 1053 891 1053 q 281 892 441 1053 q 123 508 123 734 q 281 124 123 283 q 666 -36 441 -36 q 1051 124 891 -36 q 1210 508 1210 283 q 1051 892 1210 734 m 568 452 l 568 246 l 703 246 q 775 276 745 246 q 806 349 806 307 q 775 422 806 392 q 703 452 745 452 l 568 452 m 568 564 l 703 564 q 775 594 745 564 q 806 667 806 625 q 775 740 806 710 q 703 770 745 770 l 568 770 l 568 564 m 511 134 q 472 151 488 134 q 456 191 456 167 l 456 826 q 472 866 456 849 q 511 882 488 882 l 703 882 q 854 819 791 882 q 918 667 918 756 q 830 508 918 549 q 918 349 918 465 q 854 197 918 260 q 703 134 791 134 l 511 134 z "},"":{"ha":1333,"x_min":47,"x_max":1285,"o":"m 666 1126 q 1103 946 923 1126 q 1285 508 1285 764 q 1103 71 1285 252 q 666 -110 923 -110 q 229 71 410 -110 q 47 508 47 252 q 229 946 47 764 q 666 1126 410 1126 m 1051 892 q 666 1053 891 1053 q 281 892 441 1053 q 123 508 123 734 q 281 124 123 283 q 666 -36 441 -36 q 1051 124 891 -36 q 1210 508 1210 283 q 1051 892 1210 734 m 897 651 q 880 612 897 628 q 841 595 864 595 q 802 612 818 595 q 785 651 785 628 q 750 736 785 701 q 666 770 715 770 q 582 736 617 770 q 547 651 547 701 l 547 365 q 582 281 547 316 q 666 246 617 246 q 750 281 715 246 q 785 365 785 316 q 802 405 785 389 q 841 421 818 421 q 880 405 864 421 q 897 365 897 389 q 829 202 897 270 q 666 134 762 134 q 503 202 570 134 q 435 365 435 270 l 435 651 q 503 814 435 747 q 666 882 570 882 q 829 814 762 882 q 897 651 897 747 z "},"":{"ha":1333,"x_min":47,"x_max":1285,"o":"m 666 1126 q 1103 946 923 1126 q 1285 508 1285 764 q 1103 71 1285 252 q 666 -110 923 -110 q 229 71 410 -110 q 47 508 47 252 q 229 946 47 764 q 666 1126 410 1126 m 1051 892 q 666 1053 891 1053 q 281 892 441 1053 q 123 508 123 734 q 281 124 123 283 q 666 -36 441 -36 q 1051 124 891 -36 q 1210 508 1210 283 q 1051 892 1210 734 m 671 882 q 845 810 772 882 q 918 635 918 737 l 918 381 q 845 207 918 279 q 671 134 772 134 l 511 134 q 472 151 488 134 q 456 191 456 167 l 456 826 q 472 866 456 849 q 511 882 488 882 l 671 882 m 568 770 l 568 246 l 671 246 q 766 286 726 246 q 806 381 806 326 l 806 635 q 766 731 806 691 q 671 770 726 770 l 568 770 z "},"":{"ha":1333,"x_min":47,"x_max":1285,"o":"m 666 1126 q 1103 946 923 1126 q 1285 508 1285 764 q 1103 71 1285 252 q 666 -110 923 -110 q 229 71 410 -110 q 47 508 47 252 q 229 946 47 764 q 666 1126 410 1126 m 1051 892 q 666 1053 891 1053 q 281 892 441 1053 q 123 508 123 734 q 281 124 123 283 q 666 -36 441 -36 q 1051 124 891 -36 q 1210 508 1210 283 q 1051 892 1210 734 m 809 246 q 849 230 832 246 q 865 191 865 214 q 849 151 865 167 q 809 134 832 134 l 523 134 q 484 151 500 134 q 467 191 467 167 l 467 826 q 484 866 467 849 q 523 882 500 882 l 809 882 q 849 866 832 882 q 865 826 865 849 q 849 787 865 803 q 809 770 832 770 l 579 770 l 579 564 l 777 564 q 817 548 801 564 q 833 508 833 532 q 817 469 833 485 q 777 452 801 452 l 579 452 l 579 246 l 809 246 z "},"":{"ha":1333,"x_min":47,"x_max":1285,"o":"m 666 1126 q 1103 946 923 1126 q 1285 508 1285 764 q 1103 71 1285 252 q 666 -110 923 -110 q 229 71 410 -110 q 47 508 47 252 q 229 946 47 764 q 666 1126 410 1126 m 1051 892 q 666 1053 891 1053 q 281 892 441 1053 q 123 508 123 734 q 281 124 123 283 q 666 -36 441 -36 q 1051 124 891 -36 q 1210 508 1210 283 q 1051 892 1210 734 m 622 191 q 606 151 622 167 q 566 134 589 134 q 526 151 543 134 q 510 191 510 167 l 510 826 q 526 866 510 849 q 566 882 543 882 l 820 882 q 860 866 844 882 q 876 826 876 849 q 860 787 876 803 q 820 770 844 770 l 622 770 l 622 564 l 789 564 q 828 548 812 564 q 844 508 844 532 q 828 469 844 485 q 789 452 812 452 l 622 452 l 622 191 z "},"":{"ha":1333,"x_min":47,"x_max":1285,"o":"m 666 1126 q 1103 946 923 1126 q 1285 508 1285 764 q 1103 71 1285 252 q 666 -110 923 -110 q 229 71 410 -110 q 47 508 47 252 q 229 946 47 764 q 666 1126 410 1126 m 1051 892 q 666 1053 891 1053 q 281 892 441 1053 q 123 508 123 734 q 281 124 123 283 q 666 -36 441 -36 q 1051 124 891 -36 q 1210 508 1210 283 q 1051 892 1210 734 m 666 452 q 627 469 643 452 q 610 508 610 485 q 627 548 610 532 q 666 564 643 564 l 841 564 q 880 548 864 564 q 897 508 897 532 l 897 365 q 829 202 897 270 q 666 134 762 134 q 503 202 571 134 q 435 365 435 270 l 435 651 q 503 814 435 747 q 666 882 571 882 q 829 814 762 882 q 897 651 897 747 q 880 612 897 628 q 841 595 864 595 q 802 612 818 595 q 785 651 785 628 q 750 735 785 701 q 666 770 715 770 q 582 735 617 770 q 547 651 547 701 l 547 365 q 582 281 547 316 q 666 246 617 246 q 750 281 715 246 q 785 365 785 316 l 785 452 l 666 452 z "},"":{"ha":1333,"x_min":47,"x_max":1285,"o":"m 666 1126 q 1103 946 923 1126 q 1285 508 1285 764 q 1103 71 1285 252 q 666 -110 923 -110 q 229 71 410 -110 q 47 508 47 252 q 229 946 47 764 q 666 1126 410 1126 m 1051 892 q 666 1053 891 1053 q 281 892 441 1053 q 123 508 123 734 q 281 124 123 283 q 666 -36 441 -36 q 1051 124 891 -36 q 1210 508 1210 283 q 1051 892 1210 734 m 881 191 q 864 151 881 167 q 825 134 848 134 q 785 151 802 134 q 769 191 769 167 l 769 452 l 563 452 l 563 191 q 547 151 563 167 q 507 134 530 134 q 467 151 484 134 q 451 191 451 167 l 451 826 q 467 866 451 849 q 507 882 484 882 q 547 866 530 882 q 563 826 563 849 l 563 564 l 769 564 l 769 826 q 785 866 769 849 q 825 882 802 882 q 864 866 848 882 q 881 826 881 849 l 881 191 z "},"":{"ha":1333,"x_min":47,"x_max":1285,"o":"m 666 1126 q 1103 946 923 1126 q 1285 508 1285 764 q 1103 71 1285 252 q 666 -110 923 -110 q 229 71 410 -110 q 47 508 47 252 q 229 946 47 764 q 666 1126 410 1126 m 1051 892 q 666 1053 891 1053 q 281 892 441 1053 q 123 508 123 734 q 281 124 123 283 q 666 -36 441 -36 q 1051 124 891 -36 q 1210 508 1210 283 q 1051 892 1210 734 m 722 191 q 706 151 722 167 q 666 134 689 134 q 627 151 643 134 q 610 191 610 167 l 610 826 q 627 866 610 849 q 666 882 643 882 q 706 866 689 882 q 722 826 722 849 l 722 191 z "},"":{"ha":1333,"x_min":47,"x_max":1285,"o":"m 666 1126 q 1103 946 923 1126 q 1285 508 1285 764 q 1103 71 1285 252 q 666 -110 923 -110 q 229 71 410 -110 q 47 508 47 252 q 229 946 47 764 q 666 1126 410 1126 m 1051 892 q 666 1053 891 1053 q 281 892 441 1053 q 123 508 123 734 q 281 124 123 283 q 666 -36 441 -36 q 1051 124 891 -36 q 1210 508 1210 283 q 1051 892 1210 734 m 720 825 q 736 865 720 848 q 775 882 752 882 q 815 865 798 882 q 831 825 831 848 l 831 364 q 715 155 831 212 q 632 135 675 135 q 549 155 589 135 q 433 364 433 212 q 450 404 433 388 q 489 420 466 420 q 529 404 512 420 q 545 364 545 388 q 598 254 545 281 q 632 247 614 247 q 667 254 650 247 q 720 364 720 281 l 720 825 z "},"":{"ha":1333,"x_min":47,"x_max":1285,"o":"m 666 1126 q 1103 946 923 1126 q 1285 508 1285 764 q 1103 71 1285 252 q 666 -110 923 -110 q 229 71 410 -110 q 47 508 47 252 q 229 946 47 764 q 666 1126 410 1126 m 1051 892 q 666 1053 891 1053 q 281 892 441 1053 q 123 508 123 734 q 281 124 123 283 q 666 -36 441 -36 q 1051 124 891 -36 q 1210 508 1210 283 q 1051 892 1210 734 m 656 509 l 894 231 q 911 192 911 215 q 897 152 912 169 q 857 134 880 135 q 818 150 834 134 l 578 441 l 574 441 l 574 191 q 557 151 574 167 q 517 134 541 134 q 478 151 494 134 q 462 191 462 167 l 462 826 q 478 866 462 849 q 517 882 494 882 q 557 866 541 882 q 574 826 574 849 l 574 576 l 578 576 l 810 867 q 850 882 827 882 q 889 865 873 882 q 905 825 905 848 q 888 786 904 802 l 656 509 z "},"":{"ha":1333,"x_min":47,"x_max":1285,"o":"m 666 1126 q 1103 946 923 1126 q 1285 508 1285 764 q 1103 71 1285 252 q 666 -110 923 -110 q 229 71 410 -110 q 47 508 47 252 q 229 946 47 764 q 666 1126 410 1126 m 1051 892 q 666 1053 891 1053 q 281 892 441 1053 q 123 508 123 734 q 281 124 123 283 q 666 -36 441 -36 q 1051 124 891 -36 q 1210 508 1210 283 q 1051 892 1210 734 m 845 246 q 884 230 868 246 q 901 191 901 214 q 884 151 901 167 q 845 134 868 134 l 527 134 q 488 151 504 134 q 471 191 471 167 l 471 826 q 488 866 471 849 q 527 882 504 882 q 567 866 550 882 q 583 826 583 849 l 583 246 l 845 246 z "},"":{"ha":1333,"x_min":47,"x_max":1285,"o":"m 666 1126 q 1103 946 923 1126 q 1285 508 1285 764 q 1103 71 1285 252 q 666 -110 923 -110 q 229 71 410 -110 q 47 508 47 252 q 229 946 47 764 q 666 1126 410 1126 m 1051 892 q 666 1053 891 1053 q 281 892 441 1053 q 123 508 123 734 q 281 124 123 283 q 666 -36 441 -36 q 1051 124 891 -36 q 1210 508 1210 283 q 1051 892 1210 734 m 928 191 q 912 151 928 167 q 873 134 896 134 q 833 151 850 134 q 817 191 817 167 l 817 638 l 713 478 q 677 454 700 458 q 635 462 655 449 q 619 479 625 469 l 515 638 l 515 191 q 499 151 515 167 q 459 134 482 134 q 420 151 436 134 q 404 191 404 167 l 404 826 q 429 873 404 857 q 471 881 448 885 q 506 857 494 876 l 666 610 l 823 852 q 873 882 840 882 q 912 866 896 882 q 928 826 928 849 l 928 191 z "},"":{"ha":1333,"x_min":47,"x_max":1285,"o":"m 666 1126 q 1103 946 923 1126 q 1285 508 1285 764 q 1103 71 1285 252 q 666 -110 923 -110 q 229 71 410 -110 q 47 508 47 252 q 229 946 47 764 q 666 1126 410 1126 m 1051 892 q 666 1053 891 1053 q 281 892 441 1053 q 123 508 123 734 q 281 124 123 283 q 666 -36 441 -36 q 1051 124 891 -36 q 1210 508 1210 283 q 1051 892 1210 734 m 802 826 q 818 866 802 849 q 857 882 834 882 q 897 866 880 882 q 913 826 913 849 l 913 238 q 891 175 913 203 q 835 138 870 146 q 766 143 799 129 q 715 197 728 159 q 713 201 714 199 l 532 729 l 532 191 q 515 151 532 167 q 475 134 498 134 q 436 151 452 134 q 420 191 420 167 l 420 779 q 441 842 420 814 q 498 879 463 870 q 567 873 534 888 q 618 820 605 857 l 802 288 l 802 826 z "},"":{"ha":1333,"x_min":47,"x_max":1285,"o":"m 666 1126 q 1103 946 923 1126 q 1285 508 1285 764 q 1103 71 1285 252 q 666 -110 923 -110 q 229 71 410 -110 q 47 508 47 252 q 229 946 47 764 q 666 1126 410 1126 m 1051 892 q 666 1053 891 1053 q 281 892 441 1053 q 123 508 123 734 q 281 124 123 283 q 666 -36 441 -36 q 1051 124 891 -36 q 1210 508 1210 283 q 1051 892 1210 734 m 666 882 q 829 814 762 882 q 897 651 897 747 l 897 365 q 829 202 897 270 q 666 134 762 134 q 503 202 571 134 q 435 365 435 270 l 435 651 q 503 814 435 747 q 666 882 571 882 m 666 770 q 582 735 617 770 q 547 651 547 701 l 547 365 q 582 281 547 316 q 666 246 617 246 q 750 281 715 246 q 785 365 785 316 l 785 651 q 750 735 785 701 q 666 770 715 770 z "},"":{"ha":1333,"x_min":47,"x_max":1285,"o":"m 666 1126 q 1103 946 923 1126 q 1285 508 1285 764 q 1103 71 1285 252 q 666 -110 923 -110 q 229 71 410 -110 q 47 508 47 252 q 229 946 47 764 q 666 1126 410 1126 m 1051 892 q 666 1053 891 1053 q 281 892 441 1053 q 123 508 123 734 q 281 124 123 283 q 666 -36 441 -36 q 1051 124 891 -36 q 1210 508 1210 283 q 1051 892 1210 734 m 595 191 q 578 151 595 167 q 538 134 562 134 q 499 151 515 134 q 483 191 483 167 l 483 826 q 499 866 483 849 q 538 882 515 882 l 730 882 q 882 819 819 882 q 945 667 945 756 q 882 515 945 578 q 730 452 819 452 l 595 452 l 595 191 m 595 770 l 595 564 l 730 564 q 802 594 772 564 q 833 667 833 625 q 802 740 833 710 q 730 770 772 770 l 595 770 z "},"":{"ha":1333,"x_min":47,"x_max":1285,"o":"m 666 1126 q 1103 946 923 1126 q 1285 508 1285 764 q 1103 71 1285 252 q 666 -110 923 -110 q 229 71 410 -110 q 47 508 47 252 q 229 946 47 764 q 666 1126 410 1126 m 1051 892 q 666 1053 891 1053 q 281 892 441 1053 q 123 508 123 734 q 281 124 123 283 q 666 -36 441 -36 q 1051 124 891 -36 q 1210 508 1210 283 q 1051 892 1210 734 m 610 318 q 627 357 610 341 q 666 374 643 374 q 705 357 689 374 q 722 318 722 341 l 722 254 q 750 275 738 262 q 785 359 785 310 l 785 645 q 750 729 785 694 q 666 764 715 764 q 582 729 617 764 q 547 645 547 694 l 547 359 q 582 275 547 310 q 610 254 595 262 l 610 318 m 722 87 q 705 48 722 64 q 666 32 689 32 q 627 48 643 32 q 610 87 610 64 l 610 135 q 503 196 549 151 q 435 359 435 264 l 435 645 q 503 808 435 741 q 666 876 571 876 q 829 808 762 876 q 897 645 897 741 l 897 359 q 829 196 897 264 q 722 135 784 151 l 722 87 z "},"":{"ha":1333,"x_min":47,"x_max":1285,"o":"m 666 1126 q 1103 946 923 1126 q 1285 508 1285 764 q 1103 71 1285 252 q 666 -110 923 -110 q 229 71 410 -110 q 47 508 47 252 q 229 946 47 764 q 666 1126 410 1126 m 1051 892 q 666 1053 891 1053 q 281 892 441 1053 q 123 508 123 734 q 281 124 123 283 q 666 -36 441 -36 q 1051 124 891 -36 q 1210 508 1210 283 q 1051 892 1210 734 m 880 216 q 884 174 891 196 q 857 141 878 152 q 814 137 837 130 q 782 164 793 144 l 629 452 l 574 452 l 574 191 q 558 151 574 167 q 518 134 541 134 q 479 151 495 134 q 463 191 463 167 l 463 826 q 479 866 463 849 q 518 882 495 882 l 709 882 q 861 819 798 882 q 924 667 924 756 q 861 515 924 578 q 753 457 816 470 l 880 216 m 574 770 l 574 564 l 709 564 q 782 594 752 564 q 812 667 812 625 q 782 740 812 710 q 709 770 752 770 l 574 770 z "},"":{"ha":1333,"x_min":47,"x_max":1285,"o":"m 666 1126 q 1103 946 923 1126 q 1285 508 1285 764 q 1103 71 1285 252 q 666 -110 923 -110 q 229 71 410 -110 q 47 508 47 252 q 229 946 47 764 q 666 1126 410 1126 m 1051 892 q 666 1053 891 1053 q 281 892 441 1053 q 123 508 123 734 q 281 124 123 283 q 666 -36 441 -36 q 1051 124 891 -36 q 1210 508 1210 283 q 1051 892 1210 734 m 897 667 q 880 628 897 644 q 841 612 864 612 q 802 628 818 612 q 785 667 785 644 q 752 739 785 709 q 666 770 717 770 q 580 739 615 770 q 547 667 547 709 q 588 592 547 616 q 678 563 612 577 q 829 509 787 539 q 897 349 897 460 q 827 195 897 259 q 666 134 760 134 q 505 195 572 134 q 435 349 435 259 q 452 389 435 372 q 491 405 468 405 q 531 389 514 405 q 547 349 547 372 q 580 278 547 308 q 666 246 615 246 q 752 278 717 246 q 785 349 785 308 q 745 425 785 400 q 654 454 720 439 q 504 507 545 477 q 435 667 435 557 q 505 821 435 758 q 666 882 572 882 q 827 821 760 882 q 897 667 897 758 z "},"":{"ha":1333,"x_min":47,"x_max":1285,"o":"m 666 1126 q 1103 946 923 1126 q 1285 508 1285 764 q 1103 71 1285 252 q 666 -110 923 -110 q 229 71 410 -110 q 47 508 47 252 q 229 946 47 764 q 666 1126 410 1126 m 1051 892 q 666 1053 891 1053 q 281 892 441 1053 q 123 508 123 734 q 281 124 123 283 q 666 -36 441 -36 q 1051 124 891 -36 q 1210 508 1210 283 q 1051 892 1210 734 m 722 170 q 706 130 722 146 q 667 114 690 114 q 627 130 644 114 q 610 170 610 146 l 610 750 l 475 750 q 436 766 452 750 q 420 806 420 783 q 436 846 420 829 q 475 862 452 862 l 857 862 q 897 846 880 862 q 913 806 913 829 q 897 766 913 783 q 857 750 880 750 l 722 750 l 722 170 z "},"":{"ha":1333,"x_min":47,"x_max":1285,"o":"m 666 1126 q 1103 946 923 1126 q 1285 508 1285 764 q 1103 71 1285 252 q 666 -110 923 -110 q 229 71 410 -110 q 47 508 47 252 q 229 946 47 764 q 666 1126 410 1126 m 1051 892 q 666 1053 891 1053 q 281 892 441 1053 q 123 508 123 734 q 281 124 123 283 q 666 -36 441 -36 q 1051 124 891 -36 q 1210 508 1210 283 q 1051 892 1210 734 m 785 826 q 802 866 785 849 q 841 882 818 882 q 880 866 864 882 q 897 826 897 849 l 897 365 q 829 202 897 270 q 666 134 762 134 q 503 202 571 134 q 435 365 435 270 l 435 826 q 452 866 435 849 q 491 882 468 882 q 531 866 514 882 q 547 826 547 849 l 547 365 q 582 281 547 316 q 666 246 617 246 q 750 281 715 246 q 785 365 785 316 l 785 826 z "},"":{"ha":1333,"x_min":47,"x_max":1285,"o":"m 666 1126 q 1103 946 923 1126 q 1285 508 1285 764 q 1103 71 1285 252 q 666 -110 923 -110 q 229 71 410 -110 q 47 508 47 252 q 229 946 47 764 q 666 1126 410 1126 m 1051 892 q 666 1053 891 1053 q 281 892 441 1053 q 123 508 123 734 q 281 124 123 283 q 666 -36 441 -36 q 1051 124 891 -36 q 1210 508 1210 283 q 1051 892 1210 734 m 422 797 q 426 840 415 819 q 459 866 437 859 q 502 862 481 873 q 528 829 522 851 l 666 371 l 803 829 q 830 862 810 851 q 873 866 850 873 q 906 840 895 859 q 910 797 917 819 l 720 161 q 682 123 711 132 q 640 127 660 117 q 612 161 619 138 l 422 797 z "},"":{"ha":1333,"x_min":47,"x_max":1285,"o":"m 666 1126 q 1103 946 923 1126 q 1285 508 1285 764 q 1103 71 1285 252 q 666 -110 923 -110 q 229 71 410 -110 q 47 508 47 252 q 229 946 47 764 q 666 1126 410 1126 m 1051 892 q 666 1053 891 1053 q 281 892 441 1053 q 123 508 123 734 q 281 124 123 283 q 666 -36 441 -36 q 1051 124 891 -36 q 1210 508 1210 283 q 1051 892 1210 734 m 667 188 q 658 178 662 183 q 502 114 593 114 q 347 178 411 114 q 282 334 282 243 l 282 806 q 298 846 282 829 q 338 862 315 862 q 378 846 361 862 q 394 806 394 829 l 394 334 q 425 258 394 289 q 502 226 457 226 q 578 258 547 226 q 610 334 610 289 l 610 806 q 627 846 610 829 q 667 862 643 862 q 706 846 690 862 q 722 806 722 829 l 722 334 q 754 258 722 289 q 831 226 786 226 q 907 258 876 226 q 939 334 939 289 l 939 806 q 956 846 939 829 q 995 862 972 862 q 1034 846 1018 862 q 1050 806 1050 829 l 1050 334 q 986 178 1050 243 q 831 114 922 114 q 675 178 739 114 q 667 188 671 183 z "},"":{"ha":1333,"x_min":47,"x_max":1285,"o":"m 666 1126 q 1103 946 923 1126 q 1285 508 1285 764 q 1103 71 1285 252 q 666 -110 923 -110 q 229 71 410 -110 q 47 508 47 252 q 229 946 47 764 q 666 1126 410 1126 m 1051 892 q 666 1053 891 1053 q 281 892 441 1053 q 123 508 123 734 q 281 124 123 283 q 666 -36 441 -36 q 1051 124 891 -36 q 1210 508 1210 283 q 1051 892 1210 734 m 521 190 q 505 151 521 167 q 465 134 488 134 q 425 151 441 134 q 409 190 409 167 l 409 288 q 511 511 409 433 q 409 734 409 589 l 409 827 q 425 866 409 850 q 465 882 441 882 q 505 866 488 882 q 521 827 521 850 l 521 734 q 613 580 521 619 q 666 567 637 567 q 719 580 695 567 q 812 734 812 619 l 812 827 q 828 866 812 850 q 867 882 844 882 q 907 866 890 882 q 923 827 923 850 l 923 734 q 821 511 923 589 q 923 288 923 433 l 923 190 q 907 151 923 167 q 867 134 890 134 q 828 151 844 134 q 812 190 812 167 l 812 288 q 719 443 812 404 q 666 456 695 456 q 613 443 637 456 q 521 288 521 404 l 521 190 z "},"":{"ha":1333,"x_min":47,"x_max":1285,"o":"m 666 1126 q 1103 946 923 1126 q 1285 508 1285 764 q 1103 71 1285 252 q 666 -110 923 -110 q 229 71 410 -110 q 47 508 47 252 q 229 946 47 764 q 666 1126 410 1126 m 1051 892 q 666 1053 891 1053 q 281 892 441 1053 q 123 508 123 734 q 281 124 123 283 q 666 -36 441 -36 q 1051 124 891 -36 q 1210 508 1210 283 q 1051 892 1210 734 m 722 170 q 705 130 722 147 q 666 114 689 114 q 627 130 643 114 q 610 170 610 147 l 610 349 q 471 433 532 366 q 395 648 389 522 l 395 806 q 412 846 395 829 q 451 862 428 862 q 491 846 474 862 q 507 806 507 829 l 507 648 q 550 512 500 568 q 666 455 600 455 q 782 512 732 455 q 825 648 832 568 l 825 806 q 842 846 825 829 q 881 862 858 862 q 920 846 904 862 q 937 806 937 829 l 937 648 q 861 433 943 522 q 722 349 801 366 l 722 170 z "},"":{"ha":1333,"x_min":47,"x_max":1285,"o":"m 666 1126 q 1103 946 923 1126 q 1285 508 1285 764 q 1103 71 1285 252 q 666 -110 923 -110 q 229 71 410 -110 q 47 508 47 252 q 229 946 47 764 q 666 1126 410 1126 m 1051 892 q 666 1053 891 1053 q 281 892 441 1053 q 123 508 123 734 q 281 124 123 283 q 666 -36 441 -36 q 1051 124 891 -36 q 1210 508 1210 283 q 1051 892 1210 734 m 491 770 q 452 787 468 770 q 435 826 435 803 q 452 866 435 849 q 491 882 468 882 l 841 882 q 880 866 864 882 q 897 826 897 849 q 888 796 897 810 l 586 246 l 841 246 q 880 230 864 246 q 897 191 897 214 q 880 151 897 167 q 841 134 864 134 l 491 134 l 491 134 q 465 141 477 134 q 438 175 444 153 q 442 217 431 197 l 747 770 l 491 770 z "},"":{"ha":1333,"x_min":47,"x_max":1285,"o":"m 666 1126 q 1103 946 923 1126 q 1285 508 1285 764 q 1103 71 1285 252 q 666 -110 923 -110 q 229 71 410 -110 q 47 508 47 252 q 229 946 47 764 q 666 1126 410 1126 m 1051 892 q 666 1053 891 1053 q 281 892 441 1053 q 123 508 123 734 q 281 124 123 283 q 666 -36 441 -36 q 1051 124 891 -36 q 1210 508 1210 283 q 1051 892 1210 734 m 787 366 q 695 314 751 325 q 590 324 642 304 q 503 390 536 344 q 467 509 467 441 q 503 627 467 576 q 590 693 536 672 q 695 703 642 713 q 787 651 751 692 l 787 667 q 799 695 787 683 q 827 706 811 706 q 854 695 843 706 q 866 667 866 683 l 866 350 q 854 322 866 334 q 827 311 843 311 q 799 322 811 311 q 787 350 787 334 l 787 366 m 752 594 q 667 629 717 629 q 581 594 617 629 q 546 509 546 558 q 581 423 546 458 q 667 388 617 388 q 752 423 717 388 q 787 509 787 458 q 752 594 787 558 z "},"":{"ha":1333,"x_min":47,"x_max":1285,"o":"m 666 1126 q 1103 946 923 1126 q 1285 508 1285 764 q 1103 71 1285 252 q 666 -110 923 -110 q 229 71 410 -110 q 47 508 47 252 q 229 946 47 764 q 666 1126 410 1126 m 1051 892 q 666 1053 891 1053 q 281 892 441 1053 q 123 508 123 734 q 281 124 123 283 q 666 -36 441 -36 q 1051 124 891 -36 q 1210 508 1210 283 q 1051 892 1210 734 m 572 906 q 561 934 572 923 q 533 945 549 945 q 505 934 516 945 q 494 906 494 923 l 494 273 q 505 245 494 257 q 533 234 516 234 q 561 245 549 234 q 572 273 572 257 l 572 289 q 664 237 608 248 q 770 247 717 227 q 857 313 824 267 q 893 431 893 363 q 857 549 893 499 q 770 615 824 595 q 664 625 717 636 q 572 574 608 614 l 572 906 m 607 517 q 693 552 643 552 q 779 517 743 552 q 814 431 814 481 q 779 346 814 381 q 693 310 743 310 q 607 346 643 310 q 572 431 572 381 q 607 517 572 481 z "},"":{"ha":1333,"x_min":47,"x_max":1285,"o":"m 666 1126 q 1103 946 923 1126 q 1285 508 1285 764 q 1103 71 1285 252 q 666 -110 923 -110 q 229 71 410 -110 q 47 508 47 252 q 229 946 47 764 q 666 1126 410 1126 m 1051 892 q 666 1053 891 1053 q 281 892 441 1053 q 123 508 123 734 q 281 124 123 283 q 666 -36 441 -36 q 1051 124 891 -36 q 1210 508 1210 283 q 1051 892 1210 734 m 774 425 q 802 437 786 437 q 830 426 818 437 q 842 399 841 415 q 831 371 842 383 q 766 326 803 342 q 688 311 729 311 q 549 368 607 311 q 491 508 491 426 q 549 648 491 590 q 688 706 607 706 q 766 690 729 706 q 831 645 803 674 q 842 617 842 633 q 830 590 841 601 q 802 579 818 578 q 774 591 786 579 q 735 618 758 608 q 688 627 713 627 q 604 592 639 627 q 569 508 569 557 q 604 424 569 459 q 688 388 639 388 q 735 398 713 388 q 774 425 758 407 z "},"":{"ha":1333,"x_min":47,"x_max":1285,"o":"m 666 1126 q 1103 946 923 1126 q 1285 508 1285 764 q 1103 71 1285 252 q 666 -110 923 -110 q 229 71 410 -110 q 47 508 47 252 q 229 946 47 764 q 666 1126 410 1126 m 1051 892 q 666 1053 891 1053 q 281 892 441 1053 q 123 508 123 734 q 281 124 123 283 q 666 -36 441 -36 q 1051 124 891 -36 q 1210 508 1210 283 q 1051 892 1210 734 m 774 906 q 786 934 774 923 q 813 945 797 945 q 841 934 829 945 q 852 906 852 923 l 852 273 q 841 245 852 257 q 813 234 829 234 q 786 245 797 234 q 774 273 774 257 l 774 289 q 682 237 738 248 q 576 247 629 227 q 489 313 522 267 q 453 431 453 363 q 489 549 453 499 q 576 615 522 595 q 682 625 629 636 q 774 574 738 614 l 774 906 m 739 517 q 653 552 703 552 q 568 517 603 552 q 532 431 532 481 q 568 346 532 381 q 653 310 603 310 q 739 346 703 310 q 774 431 774 381 q 739 517 774 481 z "}}}
